<svg width="24" height="28" viewBox="0 0 24 28" fill="none" xmlns="http://www.w3.org/2000/svg">
<path d="M23.5582 11.8384C23.5582 5.45443 18.3838 0.280029 11.9998 0.280029C5.61581 0.280029 0.441406 5.45443 0.441406 11.8384C0.441406 15.4364 2.08501 18.6508 4.66381 20.7704L10.6362 27.0368C10.9442 27.4512 11.437 27.72 11.9914 27.72C12.5038 27.72 12.963 27.4904 13.271 27.132L19.5458 20.5912C20.0974 20.1152 20.6014 19.5888 21.055 19.0176L21.3098 18.7516H21.2594C22.7042 16.8252 23.5582 14.4312 23.5582 11.8384ZM11.997 17.5756C8.46061 17.5756 5.59621 14.7112 5.59621 11.1748C5.59621 7.63843 8.46061 4.77403 11.997 4.77403C15.5306 4.77403 18.3978 7.63843 18.3978 11.1748C18.3978 14.7112 15.5334 17.5756 11.997 17.5756Z" fill="#0E5E6F"/>
</svg>
