<svg width="18" height="20" viewBox="0 0 18 20" fill="none" xmlns="http://www.w3.org/2000/svg">
<path d="M17.2559 8.45595C17.2559 3.89595 13.5599 0.199951 8.9999 0.199951C4.4399 0.199951 0.743896 3.89595 0.743896 8.45595C0.743896 11.026 1.9179 13.322 3.7599 14.836L8.0259 19.312C8.2459 19.608 8.5979 19.8 8.9939 19.8C9.3599 19.8 9.6879 19.636 9.9079 19.38L14.3899 14.708C14.7839 14.368 15.1439 13.992 15.4679 13.584L15.6499 13.394H15.6139C16.6459 12.018 17.2559 10.308 17.2559 8.45595ZM8.9979 12.554C6.4719 12.554 4.4259 10.508 4.4259 7.98195C4.4259 5.45595 6.4719 3.40995 8.9979 3.40995C11.5219 3.40995 13.5699 5.45595 13.5699 7.98195C13.5699 10.508 11.5239 12.554 8.9979 12.554Z" fill="#263538"/>
</svg>
