<svg width="102" height="102" viewBox="0 0 102 102" fill="none" xmlns="http://www.w3.org/2000/svg">
<path d="M40.8205 0.246002C36.934 0.804482 34.124 4.172 34.124 8.2384C34.124 9.554 34.6616 10.5503 37.0536 13.6797C40.4815 18.1642 42.2162 21.0543 42.5948 22.8878L42.7144 23.5254L40.8205 24.4218C31.1735 28.9261 26.6089 38.1145 25.752 54.8179L25.5128 59.083L24.8149 60.1989C24.4364 60.8166 24.0776 61.3554 24.038 61.3949C23.9985 61.4344 23.5201 61.0558 22.9616 60.5379C22.4032 60.02 21.6263 59.4615 21.228 59.3024C20.4303 58.9644 3.0498 55.4357 2.19284 55.4357C1.35564 55.4357 0.678599 55.834 0.339559 56.5318C0.0795591 57.1101 0.0400391 59.2826 0.0400391 74.4708C0.0400391 89.4 0.079559 91.8118 0.338519 92.3099C0.976039 93.5257 0.816919 93.5059 8.92892 93.5059C17.0212 93.5059 17.3997 93.4664 19.0346 92.3494C19.7917 91.8107 20.9877 90.3558 21.2072 89.6985C21.2467 89.5789 22.5623 90.077 24.1171 90.8144C36.1759 96.3555 46.3408 100.103 53.0582 101.497C55.8288 102.076 58.8385 102.076 61.5488 101.518C66.99 100.362 75.1624 97.1532 86.4838 91.7317C96.629 86.8686 101.213 84.5765 101.592 84.1376C101.911 83.7788 101.99 83.4398 101.951 82.5027C101.891 80.2709 100.257 77.8591 97.9051 76.5435C97.227 76.165 97.1282 75.985 96.7091 74.4906C95.772 71.0627 93.1814 65.3614 90.65 61.1567L89.3542 58.9842L89.1348 54.9386C89.0349 52.7057 88.8352 50.1348 88.7167 49.2186C87.1016 36.0241 82.5183 28.3302 73.9071 24.3438C72.2524 23.5867 72.1932 23.5264 72.3128 22.9887C72.5915 21.8728 73.1302 21.1947 76.1795 18.0654C80.0264 14.1383 80.6442 13.1222 80.664 10.7708C80.664 9.4552 80.6036 9.15672 80.1055 8.41936C78.69 6.28632 75.1228 5.90775 69.6816 7.30344C68.6447 7.58215 67.768 7.8016 67.7284 7.8016C67.6692 7.8016 67.4497 7.22336 67.2105 6.52552C66.2735 3.69568 64.3807 1.42327 62.2872 0.605835C61.4302 0.286552 60.6928 0.166962 59.4376 0.166962C56.4278 0.147202 54.4352 1.02392 52.402 3.21623C51.804 3.87351 51.206 4.41223 51.0666 4.41223C50.947 4.41223 50.1296 3.73416 49.2528 2.89697C47.4984 1.22256 46.2431 0.545517 44.29 0.246002C42.8329 0.00576019 42.4741 0.00576019 40.8205 0.246002ZM44.2286 4.43096C44.9264 4.60984 45.5047 5.02895 46.8598 6.28423C48.7328 8.03871 49.4712 8.39648 51.1852 8.39648C52.5798 8.39648 53.9755 7.67888 55.1517 6.34351C56.4871 4.8688 57.3638 4.3904 58.9186 4.2708C59.995 4.17096 60.3143 4.23128 61.0111 4.6296C62.466 5.44704 63.4031 7.30032 63.8212 10.151C64.0406 11.686 64.3994 12.284 65.2761 12.5627C65.8544 12.7624 66.1934 12.7021 67.7877 12.1842C70.2796 11.347 73.308 10.6491 74.9824 10.4702C76.1587 10.3506 76.3979 10.3902 76.4967 10.6699C76.7556 11.348 76.0183 12.3641 73.228 15.1544C70.2182 18.1642 69.0617 19.6992 68.4845 21.3934C68.1652 22.3502 68.1455 22.3897 67.5277 22.2701C63.8804 21.592 62.4848 21.4724 57.5416 21.4724C53.3754 21.4724 51.8809 21.5317 49.9673 21.851C46.4594 22.3897 46.6788 22.4292 46.3596 21.1729C45.7418 18.8204 43.7284 15.5122 40.0613 10.828C38.0884 8.3164 37.9491 7.85776 38.726 6.26344C39.584 4.51103 41.6972 3.8132 44.2286 4.43096ZM65.2168 26.037C78.1919 28.3884 83.7736 36.0823 84.9488 53.2434C85.0486 54.8377 85.1484 57.03 85.1484 58.147V60.1604L85.9856 61.4365C87.1619 63.2502 89.4343 67.3562 90.2715 69.1502C91.1482 71.0835 92.3244 74.0735 92.3244 74.4126C92.3244 74.6122 91.7868 74.6518 89.9522 74.6122C86.9622 74.5124 84.0928 74.9908 77.7738 76.6059C75.2029 77.2632 72.9108 77.8414 72.6716 77.9018C72.3128 77.9818 72.2129 77.8622 72.0132 77.0448C71.3757 74.5332 69.1428 72.3804 65.5954 70.9057L64.26 70.3472L65.4956 69.1117C69.1033 65.5632 68.7445 60.6409 64.6781 57.8901C62.8446 56.6743 61.9471 56.3561 56.3467 55.0602C54.0743 54.5423 52.1212 53.5658 51.5232 52.6682C50.9855 51.8706 50.9054 50.5352 51.364 49.6782C51.5232 49.359 52.0213 48.7818 52.48 48.3824C55.29 45.9904 60.6523 46.2702 62.984 48.9606C63.3428 49.3392 63.662 49.8977 63.7213 50.1566C63.7816 50.4354 63.8607 50.894 63.921 51.1727C64.0999 51.9496 64.9579 52.6474 65.7545 52.6474C68.0072 52.6474 68.5646 50.555 67.1096 47.6846C66.0728 45.6316 63.402 43.6982 60.6315 43.0202L59.5353 42.7414L59.4355 41.1274C59.3554 39.792 59.2556 39.4332 58.8572 39.0151C58.2197 38.337 57.422 38.1977 56.5651 38.597C55.6884 39.0151 55.5885 39.2346 55.4689 41.1679L55.3493 42.7425L54.2532 43.0212C51.3235 43.7586 48.7921 45.6722 47.6356 48.0236C47.0376 49.2196 46.9784 49.5181 46.9784 51.153C46.9784 52.7078 47.0584 53.0863 47.5368 54.0826C48.8327 56.7138 51.7624 58.3685 56.9447 59.4241C62.1072 60.461 64.0011 61.7558 63.7816 64.0282C63.5424 66.3598 60.852 68.0738 57.4428 68.0738C54.0743 68.0738 51.364 66.3598 50.9647 64.0074C50.7255 62.5919 49.0906 61.7547 47.8551 62.413C47.3767 62.672 46.8785 63.6288 46.8785 64.3266C46.8785 64.6657 46.7984 64.805 46.6393 64.7447C46.5 64.6854 45.3435 64.207 44.0882 63.6683C40.2215 61.9939 39.7628 61.9138 35.3179 61.9346C32.826 61.9544 30.8729 62.0542 29.8964 62.2539C29.0394 62.413 28.3416 62.4931 28.3416 62.4536C28.3416 62.4141 28.6411 61.8754 29.0196 61.2576L29.6977 60.1219L29.8173 56.2354C30.3758 37.5394 35.8368 28.8294 48.5727 26.2585C51.4628 25.6802 53.0967 25.5606 58.2395 25.6407C61.9273 25.6782 63.8409 25.7978 65.2168 26.037ZM11.9595 61.5155C16.0259 62.333 19.5338 63.0901 19.7532 63.2097C20.371 63.529 20.7693 64.2268 20.7693 65.0037C20.7693 66.1196 17.6202 87.8847 17.4008 88.3038C16.8631 89.2804 16.6031 89.3199 10.205 89.3199H4.225V74.6705C4.225 66.6188 4.30508 60.021 4.38412 60.021C4.46524 60.02 7.87332 60.6981 11.9595 61.5155ZM37.9106 66C39.844 66.3193 40.8205 66.6781 45.1854 68.6905C49.8696 70.8433 51.8227 71.5203 56.148 72.4771C62.2674 73.8125 65.974 75.2477 67.2698 76.763C69.7814 79.6926 66.7716 81.367 60.0345 80.7888C55.5698 80.4102 50.766 79.4337 43.9499 77.5398L40.3224 76.5227L39.5652 76.8815C38.987 77.181 38.7478 77.4598 38.5284 78.0775C38.2694 78.8346 38.2694 78.9542 38.6282 79.572C39.1461 80.4685 39.4259 80.5891 43.7107 81.7446C48.2752 82.9998 53.1185 84.0367 56.7263 84.5546C60.8124 85.1526 65.6952 85.033 67.768 84.2957C68.5656 83.9962 69.5016 83.5583 69.8604 83.2994C71.0564 82.4029 83.1943 79.2933 87.5997 78.7546C91.0681 78.3365 94.9151 79.2132 96.888 80.847C97.227 81.1455 97.5057 81.4648 97.5057 81.5844C97.5057 81.6842 94.6551 83.159 91.1877 84.8729C69.562 95.459 60.7719 98.5884 55.2505 97.7106C49.0116 96.6946 37.3916 92.4285 23.9184 86.1708C22.6424 85.5728 22.165 85.2535 22.1848 84.9946C22.1848 84.7949 22.7432 80.8294 23.4203 76.1847L24.6558 67.7139L25.7915 67.3749C28.3624 66.6178 32.9269 65.9002 35.7172 65.8201C36.2164 65.8211 37.193 65.9002 37.9106 66Z" fill="#0E5E6F"/>
</svg>
