<svg width="62" height="62" viewBox="0 0 62 62" fill="none" xmlns="http://www.w3.org/2000/svg">
<path d="M2.86741 3.02066C0.723447 8.10714 0.544267 8.53618 0.639747 8.57152C0.687487 8.5833 1.10413 8.4407 1.54495 8.23796C1.99755 8.03522 2.43837 7.9044 2.52145 7.92796C2.65227 7.9757 2.67645 12.4788 2.67645 33.5271C2.67645 53.2177 2.71241 59.091 2.81967 59.1976C2.92693 59.3049 8.78778 59.3408 28.4784 59.3408C44.762 59.3408 54.0298 59.3768 54.0775 59.4599C54.1135 59.5194 53.9821 59.9602 53.7799 60.4246C53.5772 60.9014 53.4346 61.3298 53.4464 61.3775C53.4699 61.4371 54.3398 61.1159 55.3882 60.6627C56.4366 60.2219 58.2235 59.4717 59.355 58.9949C60.4865 58.5063 61.3923 58.0655 61.3799 58.006C61.3322 57.8869 53.5177 54.5637 53.4464 54.635C53.4228 54.6586 53.5654 55.0876 53.7682 55.588C53.9827 56.0765 54.1135 56.5409 54.0775 56.6004C53.9585 56.7908 5.61897 56.7554 5.44041 56.5769C5.21411 56.3506 5.23767 8.01104 5.45219 7.92735C5.53589 7.90379 5.97609 8.0346 6.42869 8.23734C6.86951 8.44008 7.28615 8.58268 7.33389 8.5709C7.39341 8.54734 7.13115 7.83248 6.77403 6.9868C4.58233 1.7695 4.07021 0.613819 3.98651 0.613819C3.93939 0.614441 3.42665 1.6982 2.86741 3.02066Z" fill="#0E5E6F"/>
<path d="M45.3219 5.55829C43.4514 6.36801 41.3433 7.28561 40.6403 7.58321C39.9372 7.89321 39.3773 8.20259 39.3897 8.26211C39.4133 8.33341 40.0451 8.84553 40.7953 9.41779C41.6527 10.0607 42.1772 10.5375 42.2008 10.6925C42.2244 10.8711 41.796 11.3714 40.533 12.5984C34.6604 18.3043 27.1199 23.0931 18.5788 26.5236C16.3276 27.4288 12.7663 28.6322 10.9553 29.0848C9.76427 29.3948 9.54975 29.5015 9.63283 29.7879C9.66879 29.8952 9.77605 30.3955 9.88331 30.8958C9.99057 31.3962 10.1573 31.837 10.2404 31.873C10.4667 31.956 13.0515 31.2654 15.3034 30.5152C18.2812 29.538 21.7836 28.0854 24.8092 26.5844C31.9925 23.033 37.4361 19.2572 42.5344 14.278C43.5946 13.2537 44.5357 12.4074 44.6312 12.4074C44.7385 12.4074 45.4651 12.8842 46.2631 13.4794C47.7163 14.5514 47.9426 14.6828 47.9426 14.3964C47.9426 14.3251 48.2167 11.9784 48.5384 9.20265C48.872 6.42691 49.1343 4.12795 49.1343 4.10439C49.1343 3.95001 48.3004 4.27179 45.3219 5.55829Z" fill="#0E5E6F"/>
<path d="M38.5919 23.7479C38.5559 23.831 38.5441 30.4427 38.5559 38.4357L38.5919 52.9685H42.9399H47.288V38.3167V23.6648L42.9641 23.6289C39.5684 23.6053 38.6278 23.6289 38.5919 23.7479Z" fill="#0E5E6F"/>
<path d="M23.3441 32.6821C23.3081 32.7658 23.2963 37.3637 23.3081 42.9028L23.3441 52.9685H27.6921H32.0402V42.7838V32.599L27.7163 32.5631C24.3212 32.5389 23.38 32.5631 23.3441 32.6821Z" fill="#0E5E6F"/>
<path d="M9.88339 42.5692C9.84743 42.6522 9.83565 45.0231 9.84743 47.846L9.88339 52.9684L14.2197 53.0044C17.6148 53.0279 18.5795 52.9926 18.6632 52.8853C18.7705 52.7068 18.794 42.9027 18.6868 42.6169C18.6272 42.4501 18.1269 42.4266 14.2792 42.4266C10.9076 42.4259 9.91935 42.4619 9.88339 42.5692Z" fill="#0E5E6F"/>
</svg>
