<svg width="38" height="38" viewBox="0 0 38 38" fill="none" xmlns="http://www.w3.org/2000/svg">
<path d="M18.309 0.467415C17.8435 0.620174 17.5962 0.780155 17.2618 1.10733C16.9274 1.44933 16.767 1.71115 16.6363 2.15462L16.5489 2.44569L8.46096 2.46735L0.379883 2.48217V3.64611V4.81005H1.47086H2.56184V16.3016V27.7936H1.47086H0.379883V28.9572V30.1211H5.98032C9.8206 30.1211 11.5808 30.1428 11.5808 30.1937C11.5808 30.259 10.2789 33.8523 9.11494 37.0162L8.8896 37.6128L10.068 37.5984L11.2391 37.5767L11.7993 36.0491L12.3594 34.5215H18.9999H25.6404L26.2005 36.0491L26.7606 37.5767L27.9318 37.5984L29.1102 37.6128L28.8848 37.0162C27.9466 34.485 26.419 30.2518 26.419 30.1937C26.419 30.1428 28.281 30.1211 32.0194 30.1211H37.6199V28.9572V27.7936H36.5289H35.4379V16.3016V4.80967H36.5289H37.6199V3.64573V2.4818L29.5392 2.46735L21.4513 2.44569L21.3639 2.15462C21.1602 1.47821 20.7019 0.939754 20.0399 0.619793C19.5672 0.387615 18.7669 0.314655 18.309 0.467415ZM33.1104 16.3016V27.7936H18.9999H4.88934V16.3016V4.80967H18.9999H33.1104V16.3016ZM24.3966 31.103C24.5859 31.6194 24.7459 32.0705 24.7459 32.0994C24.7459 32.1359 22.1638 32.1575 18.9999 32.1575C15.8432 32.1575 13.2539 32.1359 13.2539 32.0994C13.2539 32.0557 13.6613 30.9354 13.9014 30.3176L13.9816 30.1211L19.0075 30.1355L24.0406 30.1572L24.3966 31.103Z" fill="#3A5358"/>
<path d="M11.2392 8.85357C10.8319 8.99911 10.3447 9.44295 10.1266 9.87197C9.97384 10.1703 9.94458 10.3303 9.94458 10.8467C9.94458 11.5884 10.1266 12.0106 10.621 12.4541C11.0139 12.7961 11.4722 12.9561 12.0828 12.9561C12.6574 12.9561 13.0431 12.7961 13.4938 12.3815C14.592 11.3631 14.2648 9.51591 12.8683 8.87561C12.4974 8.70803 11.6831 8.70081 11.2392 8.85357Z" fill="#3A5358"/>
<path d="M17.1816 10.8467V12.0106H22.6365H28.0914V10.8467V9.68274H22.6365H17.1816V10.8467Z" fill="#3A5358"/>
<path d="M11.2392 14.3378C10.803 14.5123 10.3447 14.9268 10.1117 15.3707C9.89363 15.7853 9.87159 16.8546 10.0753 17.2327C10.7228 18.4255 12.1045 18.8112 13.2027 18.1055C13.8935 17.6621 14.2792 16.7672 14.1337 15.9673C13.9444 14.9417 13.1662 14.2725 12.1261 14.2143C11.7412 14.1999 11.5303 14.2288 11.2392 14.3378Z" fill="#3A5358"/>
<path d="M17.2326 15.189C17.2033 15.2107 17.1816 15.7347 17.1816 16.3529V17.4656H22.6365H28.0914V16.3016V15.1377H22.6875C19.7128 15.1381 17.2542 15.1597 17.2326 15.189Z" fill="#3A5358"/>
<path d="M11.341 19.7711C10.9192 19.9166 10.3226 20.4258 10.1045 20.84C9.87914 21.269 9.87154 22.3167 10.1045 22.7385C10.5992 23.6623 11.6393 24.1205 12.6064 23.8367C13.3919 23.6113 13.8866 23.0877 14.0975 22.273C14.2066 21.844 14.2066 21.7638 14.0975 21.342C13.7848 20.0621 12.5631 19.3637 11.341 19.7711Z" fill="#3A5358"/>
<path d="M17.196 21.8078L17.2176 22.9569L22.6581 22.9786L28.0913 22.993V21.8291V20.6652H22.6364H17.1743L17.196 21.8078Z" fill="#3A5358"/>
</svg>
