<svg width="50" height="50" viewBox="0 0 50 50" fill="none" xmlns="http://www.w3.org/2000/svg">
<path d="M20.106 0.59901C18.2375 0.867508 16.8865 2.48651 16.8865 4.44151C16.8865 5.07401 17.145 5.55301 18.295 7.05751C19.943 9.21351 20.777 10.603 20.959 11.4845L21.0165 11.791L20.106 12.222C15.468 14.3875 13.2735 18.805 12.8615 26.8355L12.7465 28.886L12.411 29.4225C12.229 29.7195 12.0565 29.9785 12.0375 29.9975C12.0185 30.0165 11.7885 29.8345 11.52 29.5855C11.2515 29.3365 10.878 29.068 10.6865 28.9915C10.303 28.829 1.947 27.1325 1.535 27.1325C1.1325 27.1325 0.807 27.324 0.644 27.6595C0.519 27.9375 0.5 28.982 0.5 36.284C0.5 43.4615 0.519 44.621 0.6435 44.8605C0.95 45.445 0.8735 45.4355 4.7735 45.4355C8.664 45.4355 8.846 45.4165 9.632 44.8795C9.996 44.6205 10.571 43.921 10.6765 43.605C10.6955 43.5475 11.328 43.787 12.0755 44.1415C17.873 46.8055 22.76 48.607 25.9895 49.2775C27.3215 49.5555 28.7685 49.5555 30.0715 49.2875C32.6875 48.7315 36.6165 47.189 42.0595 44.5825C46.937 42.2445 49.141 41.1425 49.323 40.9315C49.4765 40.759 49.5145 40.596 49.4955 40.1455C49.467 39.0725 48.681 37.913 47.5505 37.2805C47.2245 37.0985 47.177 37.012 46.9755 36.2935C46.525 34.6455 45.2795 31.9045 44.0625 29.883L43.4395 28.8385L43.334 26.8935C43.286 25.82 43.19 24.584 43.133 24.1435C42.3565 17.8 40.153 14.101 36.013 12.1845C35.2175 11.8205 35.189 11.7915 35.2465 11.533C35.3805 10.9965 35.6395 10.6705 37.1055 9.16601C38.955 7.27801 39.252 6.78951 39.2615 5.65901C39.2615 5.02651 39.2325 4.88301 38.993 4.52851C38.3125 3.50301 36.5975 3.32101 33.9815 3.99201C33.483 4.12601 33.0615 4.23151 33.0425 4.23151C33.014 4.23151 32.9085 3.95351 32.7935 3.61801C32.343 2.25751 31.433 1.16501 30.4265 0.772007C30.0145 0.618507 29.66 0.561012 29.0565 0.561012C27.6095 0.55151 26.6515 0.973007 25.674 2.02701C25.3865 2.34301 25.099 2.60201 25.032 2.60201C24.9745 2.60201 24.5815 2.27601 24.16 1.87351C23.3165 1.06851 22.713 0.743008 21.774 0.59901C21.0735 0.483509 20.901 0.483509 20.106 0.59901ZM21.7445 2.61101C22.08 2.69701 22.358 2.89851 23.0095 3.50201C23.91 4.3455 24.265 4.51751 25.089 4.51751C25.7595 4.51751 26.4305 4.17251 26.996 3.53051C27.638 2.82151 28.0595 2.59151 28.807 2.53401C29.3245 2.48601 29.478 2.51501 29.813 2.70651C30.5125 3.09951 30.963 3.99051 31.164 5.361C31.2695 6.09901 31.442 6.38651 31.8635 6.52051C32.1415 6.61651 32.3045 6.58751 33.071 6.3385C34.269 5.936 35.725 5.60051 36.53 5.51451C37.0955 5.45701 37.2105 5.47601 37.258 5.61051C37.3825 5.93651 37.028 6.42501 35.6865 7.76651C34.2395 9.21351 33.6835 9.95151 33.406 10.766C33.2525 11.226 33.243 11.245 32.946 11.1875C31.1925 10.8615 30.5215 10.804 28.145 10.804C26.142 10.804 25.4235 10.8325 24.5035 10.986C22.817 11.245 22.9225 11.264 22.769 10.66C22.472 9.52901 21.504 7.93851 19.741 5.68651C18.7925 4.47901 18.7255 4.25851 19.099 3.49201C19.5115 2.64951 20.5275 2.31401 21.7445 2.61101ZM31.835 12.9985C38.073 14.129 40.7565 17.828 41.3215 26.0785C41.3695 26.845 41.4175 27.899 41.4175 28.436V29.404L41.82 30.0175C42.3855 30.8895 43.478 32.8635 43.8805 33.726C44.302 34.6555 44.8675 36.093 44.8675 36.256C44.8675 36.352 44.609 36.371 43.727 36.352C42.2895 36.304 40.91 36.534 37.872 37.3105C36.636 37.6265 35.534 37.9045 35.419 37.9335C35.2465 37.972 35.1985 37.9145 35.1025 37.5215C34.796 36.314 33.7225 35.279 32.017 34.57L31.375 34.3015L31.969 33.7075C33.7035 32.0015 33.531 29.635 31.576 28.3125C30.6945 27.728 30.263 27.575 27.5705 26.952C26.478 26.703 25.539 26.2335 25.2515 25.802C24.993 25.4185 24.9545 24.7765 25.175 24.3645C25.2515 24.211 25.491 23.9335 25.7115 23.7415C27.0625 22.5915 29.6405 22.726 30.7615 24.0195C30.934 24.2015 31.0875 24.47 31.116 24.5945C31.145 24.7285 31.183 24.949 31.212 25.083C31.298 25.4565 31.7105 25.792 32.0935 25.792C33.1765 25.792 33.4445 24.786 32.745 23.406C32.2465 22.419 30.9625 21.4895 29.6305 21.1635L29.1035 21.0295L29.0555 20.2535C29.017 19.6115 28.969 19.439 28.7775 19.238C28.471 18.912 28.0875 18.845 27.6755 19.037C27.254 19.238 27.206 19.3435 27.1485 20.273L27.091 21.03L26.564 21.164C25.1555 21.5185 23.9385 22.4385 23.3825 23.569C23.095 24.144 23.0665 24.2875 23.0665 25.0735C23.0665 25.821 23.105 26.003 23.335 26.482C23.958 27.747 25.3665 28.5425 27.858 29.05C30.34 29.5485 31.2505 30.171 31.145 31.2635C31.03 32.3845 29.7365 33.2085 28.0975 33.2085C26.478 33.2085 25.175 32.3845 24.983 31.2535C24.868 30.573 24.082 30.1705 23.488 30.487C23.258 30.6115 23.0185 31.0715 23.0185 31.407C23.0185 31.57 22.98 31.637 22.9035 31.608C22.8365 31.5795 22.2805 31.3495 21.677 31.0905C19.818 30.2855 19.5975 30.247 17.4605 30.257C16.2625 30.2665 15.3235 30.3145 14.854 30.4105C14.442 30.487 14.1065 30.5255 14.1065 30.5065C14.1065 30.4875 14.2505 30.2285 14.4325 29.9315L14.7585 29.3855L14.816 27.517C15.0845 18.5285 17.71 14.341 23.833 13.105C25.2225 12.827 26.008 12.7695 28.4805 12.808C30.2535 12.826 31.1735 12.8835 31.835 12.9985ZM6.2305 30.0555C8.1855 30.4485 9.872 30.8125 9.9775 30.87C10.2745 31.0235 10.466 31.359 10.466 31.7325C10.466 32.269 8.952 42.733 8.8465 42.9345C8.588 43.404 8.463 43.423 5.387 43.423H2.512V36.38C2.512 32.509 2.5505 29.337 2.5885 29.337C2.6275 29.3365 4.266 29.6625 6.2305 30.0555ZM18.707 32.2115C19.6365 32.365 20.106 32.5375 22.2045 33.505C24.4565 34.54 25.3955 34.8655 27.475 35.3255C30.417 35.9675 32.199 36.6575 32.822 37.386C34.0295 38.7945 32.5825 39.5995 29.3435 39.3215C27.197 39.1395 24.8875 38.67 21.6105 37.7595L19.8665 37.2705L19.5025 37.443C19.2245 37.587 19.1095 37.721 19.004 38.018C18.8795 38.382 18.8795 38.4395 19.052 38.7365C19.301 39.1675 19.4355 39.2255 21.4955 39.781C23.69 40.3845 26.0185 40.883 27.753 41.132C29.7175 41.4195 32.065 41.362 33.0615 41.0075C33.445 40.8635 33.895 40.653 34.0675 40.5285C34.6425 40.0975 40.478 38.6025 42.596 38.3435C44.2635 38.1425 46.113 38.564 47.0615 39.3495C47.2245 39.493 47.3585 39.6465 47.3585 39.704C47.3585 39.752 45.988 40.461 44.321 41.285C33.924 46.3745 29.698 47.879 27.0435 47.457C24.044 46.9685 18.4575 44.9175 11.98 41.909C11.3665 41.6215 11.137 41.468 11.1465 41.3435C11.1465 41.2475 11.415 39.341 11.7405 37.108L12.3345 33.0355L12.8805 32.8725C14.1165 32.5085 16.311 32.1635 17.6525 32.125C17.8925 32.1255 18.362 32.1635 18.707 32.2115Z" fill="#0E5E6F"/>
</svg>
