<svg width="47" height="47" viewBox="0 0 47 47" fill="none" xmlns="http://www.w3.org/2000/svg">
<path d="M22.6458 0.57809C22.07 0.76703 21.764 0.964897 21.3504 1.36957C20.9368 1.79257 20.7385 2.1164 20.5768 2.66489L20.4687 3.02491L10.4652 3.05169L0.470215 3.07003V4.50964V5.94925H1.81958H3.16895V20.1625V34.3763H1.81958H0.470215V35.8154V37.255H7.39707C12.1469 37.255 14.3239 37.2818 14.3239 37.3448C14.3239 37.4256 12.7137 41.8699 11.2741 45.7832L10.9954 46.5211L12.4529 46.5032L13.9014 46.4764L14.5942 44.587L15.287 42.6976H23.5002H31.7135L32.4062 44.587L33.099 46.4764L34.5476 46.5032L36.005 46.5211L35.7263 45.7832C34.5659 42.6525 32.6765 37.4167 32.6765 37.3448C32.6765 37.2818 34.9795 37.255 39.6034 37.255H46.5302V35.8154V34.3763H45.1808H43.8315V20.1625V5.94878H45.1808H46.5302V4.50917V3.06956L36.5357 3.05169L26.5322 3.02491L26.4241 2.66489C26.1722 1.82829 25.6053 1.1623 24.7866 0.766558C24.2019 0.479388 23.2121 0.38915 22.6458 0.57809ZM40.9527 20.1625V34.3763H23.5002H6.0477V20.1625V5.94878H23.5002H40.9527V20.1625ZM30.1752 38.4695C30.4092 39.1082 30.6071 39.6661 30.6071 39.7018C30.6071 39.7469 27.4134 39.7737 23.5002 39.7737C19.5959 39.7737 16.3933 39.7469 16.3933 39.7018C16.3933 39.6478 16.8972 38.2622 17.1942 37.498L17.2934 37.255L23.5096 37.2729L29.7348 37.2997L30.1752 38.4695Z" fill="#0E5E6F"/>
<path d="M13.9016 10.9505C13.3977 11.1305 12.7952 11.6795 12.5254 12.2101C12.3365 12.5791 12.3003 12.777 12.3003 13.4157C12.3003 14.3331 12.5254 14.8553 13.1369 15.4038C13.6229 15.8268 14.1897 16.0247 14.945 16.0247C15.6556 16.0247 16.1327 15.8268 16.6901 15.314C18.0484 14.0544 17.6437 11.7697 15.9165 10.9778C15.4578 10.7705 14.4505 10.7616 13.9016 10.9505Z" fill="#0E5E6F"/>
<path d="M21.2515 13.4157V14.8553H27.9983H34.7452V13.4157V11.9761H27.9983H21.2515V13.4157Z" fill="#0E5E6F"/>
<path d="M13.9012 17.7335C13.3617 17.9493 12.7948 18.462 12.5067 19.011C12.237 19.5238 12.2097 20.8463 12.4616 21.314C13.2625 22.7893 14.9714 23.2664 16.3297 22.3936C17.1842 21.8451 17.6612 20.7382 17.4812 19.7489C17.2472 18.4804 16.2846 17.6527 14.9982 17.5808C14.5221 17.5629 14.2612 17.5986 13.9012 17.7335Z" fill="#0E5E6F"/>
<path d="M21.3144 18.7863C21.2783 18.8131 21.2515 19.4613 21.2515 20.226V21.6021H27.9983H34.7452V20.1625V18.7229H28.0613C24.3821 18.7234 21.3412 18.7502 21.3144 18.7863Z" fill="#0E5E6F"/>
<path d="M14.0276 24.4536C13.5059 24.6336 12.768 25.2634 12.4982 25.7757C12.2195 26.3064 12.2101 27.6021 12.4982 28.1238C13.1102 29.2664 14.3965 29.8332 15.5927 29.4821C16.5642 29.2034 17.1761 28.5558 17.437 27.5481C17.5719 27.0175 17.5719 26.9183 17.437 26.3966C17.0502 24.8136 15.5391 23.9498 14.0276 24.4536Z" fill="#0E5E6F"/>
<path d="M21.269 26.9728L21.2958 28.3941L28.0248 28.4209L34.7448 28.4387V26.9991V25.5595H27.998H21.2422L21.269 26.9728Z" fill="#0E5E6F"/>
</svg>
