<svg width="80" height="80" viewBox="0 0 80 80" fill="none" xmlns="http://www.w3.org/2000/svg">
<path d="M35.4016 0.984024C26.7096 2.06882 18.544 6.06083 12.3176 12.3208C2.32883 22.3264 -1.54877 36.8664 2.21363 50.2568C5.77923 62.9072 15.4888 73.0776 27.9256 77.1688C31.064 78.204 33.3968 78.6472 38.112 79.124C39.804 79.288 40.4776 79.288 42.7944 79.0416C50.2536 78.2696 56.0528 76.2488 61.5896 72.5192C67.5536 68.5264 71.9728 63.4664 75.1608 57.0096C79.9584 47.316 80.5008 36.44 76.6888 26.2208C75.884 24.036 74.0768 20.52 72.7128 18.4824C66.2064 8.67282 56.004 2.36402 44.4376 0.984024C41.9896 0.688019 37.7832 0.688019 35.4016 0.984024ZM38.6872 6.40562V9.28082H40.0016H41.316V6.40562V3.53042H42.3184C44.6352 3.53042 48.7096 4.33522 51.9952 5.43602C56.4312 6.93122 60.1768 9.11603 64.3992 12.6488L64.892 13.0592L63.3312 14.62L61.7864 16.1808L62.756 17.1664L63.7416 18.152L65.3024 16.608L66.8632 15.064L67.5368 15.82C72.4328 21.4392 75.5712 28.7664 76.2936 36.2912C76.392 37.2768 76.4744 38.1808 76.4744 38.312C76.4744 38.476 75.768 38.5256 72.9424 38.5256H69.4104V39.9224V41.3184H72.9424C75.8504 41.3184 76.4744 41.3512 76.4744 41.5488C76.4744 42.4528 76.064 45.5416 75.7184 47.3152C74.8968 51.5048 72.9584 56.3184 70.724 59.7192C69.5736 61.4768 67.8648 63.7112 67.208 64.3192L66.7648 64.7136L64.892 62.8408L63.0024 60.968L62.0992 61.856C61.6064 62.3488 61.1952 62.8256 61.1952 62.924C61.1952 63.0064 62.0168 63.9096 63.0192 64.912L64.8592 66.752L64.3008 67.2616C61.6064 69.7584 56.8256 72.6176 52.9808 74.0632C49.7768 75.2624 44.7656 76.3144 42.2688 76.3144H41.316V73.5216V70.7288H40.0016H38.6872V73.5216V76.3144H37.7504C36.3376 76.3144 32.7064 75.7392 30.5872 75.1808C25.0336 73.7352 19.8912 70.9752 15.472 67.048L14.3544 66.0624L16.2936 64.124L18.232 62.184L17.2792 61.248L16.3424 60.2952L14.4856 62.152C13.4672 63.1544 12.596 63.992 12.5304 63.992C12.4808 63.992 12.0208 63.4824 11.512 62.8584C8.04563 58.5536 5.36803 52.836 4.28323 47.3648C3.95523 45.7056 3.52803 42.436 3.52803 41.532C3.52803 41.368 4.23443 41.3184 7.06003 41.3184H10.592V39.9216V38.5248H7.06003H3.52803V38.1472C3.52803 37.1776 4.07043 33.3336 4.44803 31.6576C5.77923 25.7264 8.88403 19.7624 12.9584 15.2776L13.8456 14.292L15.4224 15.8528L17 17.4136L17.9368 16.4608L18.8896 15.524L17.3448 13.98L15.8168 12.436L17.0984 11.4008C19.0208 9.87283 21.5512 8.27922 23.8016 7.16162C27.8928 5.14082 33.7088 3.61282 37.504 3.54723L38.6872 3.53042V6.40562Z" fill="#3A5358" stroke="#3A5358"/>
<path d="M38.6872 23.8049V34.4017L37.6848 34.9281C36.5512 35.5361 35.4504 36.6697 34.892 37.8201C34.596 38.4441 34.5144 38.8881 34.5144 39.9233C34.5144 41.1065 34.564 41.3361 35.0568 42.2729C36.4864 44.9185 39.2792 46.0681 41.908 45.0825L42.8448 44.7377L50.5336 52.4265L58.2392 60.1321L59.2248 59.1465L60.2104 58.1609L52.488 50.4369L44.7496 42.6985L45.1272 41.8937C46.228 39.4625 44.9792 36.3569 42.3016 34.9273L41.316 34.4017V23.8049V13.2241H40.0016H38.6872V23.8049ZM41.6448 37.5233C41.8744 37.6873 42.236 38.0657 42.4336 38.3777C42.7624 38.8545 42.8112 39.1009 42.7624 40.0369C42.664 41.7945 41.7272 42.7145 40.0024 42.7145C38.3104 42.7145 37.3408 41.8105 37.2424 40.1025C37.144 38.6073 37.8176 37.5065 39.0496 37.1945C39.8208 37.0145 41.168 37.1785 41.6448 37.5233Z" fill="#3A5358" stroke="#3A5358"/>
</svg>
