<svg width="69" height="69" viewBox="0 0 69 69" fill="none" xmlns="http://www.w3.org/2000/svg">
<path d="M68.3099 34.4999C68.3099 15.8216 53.1782 0.689941 34.4999 0.689941C15.8285 0.689941 0.689941 15.8216 0.689941 34.4999C0.689941 53.1782 15.8285 68.3099 34.4999 68.3099C42.1658 68.3099 49.1831 65.7018 54.8618 61.403C55.0964 61.1339 55.2482 60.8027 55.2482 60.4232C55.2482 59.5952 54.5789 58.9259 53.7509 58.9259C53.3231 58.9259 52.9367 59.0915 52.6607 59.3813H52.6469C47.5685 63.1211 41.324 65.3568 34.5344 65.3568C17.6294 65.3568 3.91914 51.6464 3.91914 34.7414C3.91914 17.8295 17.6294 4.11924 34.5344 4.11924C51.4463 4.11924 65.1497 17.8295 65.1497 34.7414C65.1497 39.9095 63.9422 44.7671 61.679 49.0313V49.0589C61.6376 49.2038 61.5893 49.3349 61.5893 49.4867C61.5893 50.3147 62.2655 50.9909 63.0866 50.9909C63.7352 50.9909 64.2734 50.5769 64.4873 50.0042V50.018C66.8885 45.3605 68.3099 40.0958 68.3099 34.4999Z" fill="#0E5E6F"/>
<path d="M45.3536 35.7696C43.1663 35.7696 41.2136 34.7967 39.9095 33.2511C38.6054 34.8174 36.6665 35.7696 34.5068 35.7696C32.3333 35.7696 30.3875 34.7898 29.0765 33.2511C27.7724 34.7898 25.8197 35.7696 23.6462 35.7696C19.7201 35.7696 16.5254 32.5749 16.5254 28.6488V19.8789C16.5254 18.9405 17.2844 18.1884 18.2159 18.1884H50.7356C51.6671 18.1884 52.4192 18.9405 52.4261 19.872L52.4744 28.6419C52.4744 32.5749 49.2797 35.7696 45.3536 35.7696ZM39.9233 26.9514C40.8617 26.9514 41.6276 27.7104 41.6276 28.6419C41.7035 30.8016 43.3388 32.3817 45.3536 32.3817C47.4167 32.3817 49.0865 30.705 49.0865 28.6419L49.0451 21.5694H19.9133V28.6419C19.9133 30.705 21.59 32.3817 23.6462 32.3817C25.7093 32.3817 27.386 30.705 27.386 28.6419C27.386 27.7035 28.145 26.9514 29.0765 26.9514C30.0149 26.9514 30.767 27.7104 30.767 28.6419C30.767 30.705 32.4437 32.3817 34.5068 32.3817C36.5216 32.3817 38.1638 30.8085 38.2397 28.7937C38.2742 27.8829 39.0125 26.9514 39.9233 26.9514Z" fill="#0E5E6F"/>
<path d="M50.2733 50.8115H18.6782V38.1431C18.6782 37.2047 19.4372 36.4526 20.3687 36.4526C21.3071 36.4526 22.0592 37.2116 22.0592 38.1431V47.4236H46.8923L46.9268 38.1362C46.9268 37.2047 47.6858 36.4526 48.6173 36.4526C48.6173 36.4526 48.6173 36.4526 48.6242 36.4526C49.5557 36.4526 50.3147 37.2185 50.3078 38.15L50.2733 50.8115Z" fill="#0E5E6F"/>
</svg>
