<svg width="48" height="48" viewBox="0 0 48 48" fill="none" xmlns="http://www.w3.org/2000/svg">
<path d="M18.8933 0.554423C14.9966 0.977303 11.1187 2.59442 8.0491 5.07602C7.01086 5.9213 5.40238 7.5941 4.58446 8.68754C0.80734 13.7789 -0.43346 20.1202 1.1563 26.2407C3.00334 33.3351 8.51758 38.9045 15.6211 40.8528C18.6907 41.689 22.2105 41.7903 25.3627 41.1101C28.331 40.476 31.5566 38.9319 33.9096 37.0296L34.4976 36.5515L39.9749 42.0288L45.4521 47.5061L46.4904 46.4765L47.5195 45.4383L42.0427 39.9615L36.5654 34.4842L37.0435 33.8957C39.3869 31.0008 41.0136 27.1411 41.4547 23.3823C41.6294 21.9485 41.5925 19.5499 41.3721 18.0427C40.0579 9.0917 33.0461 2.0429 24.0859 0.683058C22.9089 0.499218 20.0237 0.434903 18.8933 0.554423ZM23.0745 3.53186C27.0907 4.00994 30.647 5.74658 33.5419 8.64146C38.7893 13.8984 40.1313 22.0042 36.8688 28.7127C35.1043 32.3333 32.1633 35.2378 28.5149 36.9562C22.5504 39.7776 15.4008 38.9597 10.1625 34.8701C3.67438 29.797 1.5883 20.8277 5.15422 13.4203C8.45326 6.60146 15.6125 2.6405 23.0745 3.53186Z" fill="#F2DEBA"/>
<path d="M29.5257 16.6094L25.1788 17.7672L26.3092 18.8976L27.4396 20.028L24.7747 22.693L22.1097 25.3584L18.2313 21.48L14.3438 17.5925L11.1091 20.8368L7.86523 24.0715L8.90347 25.1006L9.93259 26.1389L12.1108 23.952L14.2982 21.7738L18.1766 25.6522L22.0641 29.5397L25.7856 25.8178L29.5075 22.0958L30.5918 23.1802L31.6761 24.2645L32.8435 19.9546C33.4867 17.5834 34.0108 15.5986 34.0108 15.5434C34.0108 15.479 33.9835 15.433 33.9465 15.4421C33.9004 15.4421 31.9152 15.9662 29.5257 16.6094Z" fill="#F2DEBA"/>
</svg>
