<svg width="80" height="72" viewBox="0 0 80 72" fill="none" xmlns="http://www.w3.org/2000/svg">
<path d="M79.0401 35.792C78.9601 35.016 78.4001 34.368 77.6401 34.192C76.5041 33.928 75.3441 33.72 74.2001 33.576C56.3041 31.352 39.9361 44.096 37.7041 61.992C37.4001 64.408 37.3681 66.856 37.6081 69.272C37.6881 70.048 38.2481 70.696 39.0081 70.872C40.1441 71.136 41.3041 71.344 42.4481 71.488C43.8161 71.656 45.1681 71.744 46.5121 71.744C62.7601 71.744 76.8881 59.608 78.9441 43.08C79.2481 40.648 79.2801 38.2 79.0401 35.792ZM75.3201 42.616C73.3681 58.304 59.1761 69.536 43.528 67.92L60.2561 53.264C61.0161 52.6 61.0881 51.44 60.4241 50.68C59.7601 49.92 58.6001 49.84 57.8401 50.512L41.1201 65.168C41.1441 64.256 41.216 63.344 41.328 62.44C43.312 46.544 57.8481 35.224 73.7441 37.2C74.3281 37.272 74.9201 37.368 75.5041 37.472C75.5921 39.184 75.5281 40.912 75.3201 42.616ZM31.5761 63.72H9.08805C6.53605 63.72 4.45605 61.64 4.45605 59.088V24.464L29.9201 34.216C29.8321 34.424 29.7921 34.656 29.7921 34.896C29.7921 35.904 30.608 36.728 31.6241 36.728H40.4161C41.4241 36.728 42.2481 35.912 42.2481 34.896C42.2481 34.656 42.2001 34.424 42.1201 34.216L67.5841 24.464V27.864C67.5841 28.872 68.4001 29.696 69.4161 29.696C70.4241 29.696 71.2481 28.88 71.2481 27.864V18.424C71.2481 13.856 67.5281 10.136 62.9601 10.136H57.8161V7.03197C57.8161 3.30397 54.7841 0.271973 51.0561 0.271973H21C17.2721 0.271973 14.24 3.30397 14.24 7.03197V10.136H9.09605C4.52005 10.136 0.800049 13.856 0.800049 18.424V59.08C0.800049 63.648 4.52005 67.368 9.08805 67.368H31.5761C32.5841 67.368 33.4081 66.552 33.4081 65.536C33.4081 64.536 32.5841 63.72 31.5761 63.72ZM17.8881 7.03197C17.8881 5.31997 19.2801 3.92797 20.9921 3.92797H51.0401C52.7521 3.92797 54.1441 5.31997 54.1441 7.03197V10.136H17.8881V7.03197ZM4.45605 18.424C4.45605 15.872 6.53605 13.792 9.08805 13.792H62.9441C65.4961 13.792 67.5761 15.872 67.5761 18.424V20.544L39.8321 31.168C37.8001 31.944 33.8641 31.8 31.4001 30.856L4.45605 20.536V18.424Z" fill="#3A5358"/>
</svg>
