<svg width="71" height="86" viewBox="0 0 71 86" fill="none" xmlns="http://www.w3.org/2000/svg">
<path d="M70.5862 36.3609C70.5862 16.7529 54.8782 0.860107 35.4982 0.860107C16.1182 0.860107 0.410156 16.7529 0.410156 36.3609C0.410156 47.4119 5.39966 57.2847 13.2282 63.7949L31.3587 83.0417C32.2937 84.3145 33.7897 85.1401 35.4727 85.1401C37.0282 85.1401 38.4222 84.4349 39.3572 83.3341L58.4057 63.2445C60.0802 61.7825 61.6102 60.1657 62.9872 58.4113L63.7607 57.5943H63.6077C67.9937 51.6775 70.5862 44.3245 70.5862 36.3609ZM35.4897 53.9823C24.7542 53.9823 16.0587 45.1845 16.0587 34.3227C16.0587 23.4609 24.7542 14.6631 35.4897 14.6631C46.2167 14.6631 54.9207 23.4609 54.9207 34.3227C54.9207 45.1845 46.2252 53.9823 35.4897 53.9823Z" fill="#0E5E6F"/>
</svg>
