<svg width="98" height="74" viewBox="0 0 98 74" fill="none" xmlns="http://www.w3.org/2000/svg">
<path d="M97.0205 57.0017V16.9981L65.5233 36.9999L97.0205 57.0017ZM1.74487 68.4383C3.13647 71.5547 6.30187 73.7205 9.98667 73.7205H88.0143C91.6795 73.7205 94.8449 71.5645 96.2463 68.4775C96.7461 67.3799 97.0205 66.1549 97.0205 64.8711L59.3199 40.9297L49.0005 47.4957L38.6713 40.9395L0.980469 64.8711C0.980469 66.1353 1.25487 67.3407 1.74487 68.4383ZM0.980469 16.9981V56.9919L32.4777 36.9999L0.980469 16.9981ZM9.98667 0.279297C6.30187 0.279297 3.13647 2.4549 1.74487 5.5615C1.25487 6.6493 0.980469 7.8547 0.980469 9.1287L49.0005 39.6165L97.0205 9.1287C97.0205 7.8449 96.7461 6.6199 96.2463 5.5223C94.8449 2.4353 91.6795 0.279297 88.0143 0.279297H9.98667Z" fill="#0E5E6F"/>
</svg>
