<svg width="82" height="83" viewBox="0 0 82 83" fill="none" xmlns="http://www.w3.org/2000/svg">
<path d="M1.08065 16.5669C1.08065 16.5669 8.68205 6.01759 11.9703 3.42799C15.2585 0.838392 17.0215 -0.489608 21.4987 2.73909C25.9759 5.96779 29.3789 9.53679 31.9373 13.5706C34.4874 17.6044 35.3403 21.2315 31.2567 23.9456C27.1731 26.6597 19.8587 29.822 22.8598 36.628C25.8693 43.434 35.1107 52.0743 35.1107 52.0743C35.1107 52.0743 42.0314 58.9301 46.6809 60.3743C51.3302 61.8185 53.6017 58.9882 55.0777 56.4567C56.5536 53.9252 59.563 47.1773 64.3847 48.8456C69.2063 50.5139 73.2325 53.8588 76.8651 58.0669C80.4977 62.275 83.4988 65.9021 78.6772 71.2058C73.8557 76.5095 65.9672 82.0373 65.9672 82.0373C65.9672 82.0373 62.4494 82.7262 56.8898 80.8836C51.3302 79.041 31.7077 72.1852 17.6365 55.0623C14.8485 51.6676 3.28645 33.7977 1.53165 22.3271C1.53985 22.3271 0.285253 17.7206 1.08065 16.5669Z" fill="#0E5E6F"/>
</svg>
