<svg width="57" height="58" viewBox="0 0 57 58" fill="none" xmlns="http://www.w3.org/2000/svg">
<path d="M30.4282 11.1194C32.0758 11.606 33.493 12.6699 34.4202 14.1163C35.3473 15.5626 35.7223 17.2946 35.4765 18.995C35.2306 20.6953 34.3805 22.2501 33.0816 23.3747C31.7828 24.4992 30.1223 25.1182 28.4043 25.1182C26.6863 25.1182 25.0258 24.4992 23.727 23.3747C22.4281 22.2501 21.5779 20.6953 21.3321 18.995C21.0863 17.2946 21.4613 15.5626 22.3884 14.1163C23.3155 12.6699 24.7327 11.606 26.3804 11.1194V2.8321C26.3804 2.29533 26.5936 1.78055 26.9732 1.40099C27.3527 1.02144 27.8675 0.808209 28.4043 0.808209C28.9411 0.808209 29.4558 1.02144 29.8354 1.40099C30.215 1.78055 30.4282 2.29533 30.4282 2.8321V11.1237V11.1194ZM47.1901 47.1355C45.5425 46.6489 44.1253 45.585 43.1981 44.1386C42.271 42.6923 41.896 40.9603 42.1418 39.26C42.3876 37.5596 43.2378 36.0048 44.5367 34.8802C45.8355 33.7557 47.496 33.1367 49.214 33.1367C50.932 33.1367 52.5925 33.7557 53.8913 34.8802C55.1902 36.0048 56.0404 37.5596 56.2862 39.26C56.532 40.9603 56.157 42.6923 55.2299 44.1386C54.3028 45.585 52.8856 46.6489 51.2379 47.1355V55.4272C51.2379 55.9639 51.0247 56.4787 50.6451 56.8583C50.2656 57.2378 49.7508 57.4511 49.214 57.4511C48.6772 57.4511 48.1625 57.2378 47.7829 56.8583C47.4033 56.4787 47.1901 55.9639 47.1901 55.4272V47.1355ZM5.58375 47.1355C3.93609 46.6489 2.5189 45.585 1.59176 44.1386C0.664632 42.6923 0.289634 40.9603 0.535461 39.26C0.781288 37.5596 1.63148 36.0048 2.93031 34.8802C4.22913 33.7557 5.88963 33.1367 7.60765 33.1367C9.32566 33.1367 10.9862 33.7557 12.285 34.8802C13.5838 36.0048 14.434 37.5596 14.6798 39.26C14.9257 40.9603 14.5507 42.6923 13.6235 44.1386C12.6964 45.585 11.2792 46.6489 9.63154 47.1355V55.4272C9.63154 55.9639 9.41831 56.4787 9.03875 56.8583C8.6592 57.2378 8.14442 57.4511 7.60765 57.4511C7.07088 57.4511 6.55609 57.2378 6.17654 56.8583C5.79698 56.4787 5.58375 55.9639 5.58375 55.4272V47.1355ZM7.60547 0.80603C8.72525 0.80603 9.63154 1.71232 9.63154 2.82774V27.2539C9.63154 27.7907 9.41831 28.3054 9.03875 28.685C8.6592 29.0645 8.14442 29.2778 7.60765 29.2778C7.07088 29.2778 6.55609 29.0645 6.17654 28.685C5.79698 28.3054 5.58375 27.7907 5.58375 27.2539V2.8321C5.58375 1.71667 6.49004 0.810387 7.60547 0.810387V0.80603ZM7.60547 43.8241C8.08718 43.8409 8.56735 43.7605 9.01734 43.5877C9.46732 43.415 9.87791 43.1534 10.2246 42.8185C10.5713 42.4837 10.8471 42.0825 11.0354 41.6388C11.2237 41.1951 11.3208 40.718 11.3208 40.236C11.3208 39.754 11.2237 39.2769 11.0354 38.8332C10.8471 38.3895 10.5713 37.9883 10.2246 37.6534C9.87791 37.3186 9.46732 37.057 9.01734 36.8842C8.56735 36.7115 8.08718 36.6311 7.60547 36.6479C6.67548 36.6803 5.79441 37.0725 5.14797 37.7419C4.50153 38.4112 4.14023 39.3054 4.14023 40.236C4.14023 41.1665 4.50153 42.0607 5.14797 42.7301C5.79441 43.3995 6.67548 43.7917 7.60547 43.8241ZM49.2162 0.80603C50.3316 0.80603 51.2379 1.71232 51.2379 2.82774V27.2539C51.2379 27.7907 51.0247 28.3054 50.6451 28.685C50.2656 29.0645 49.7508 29.2778 49.214 29.2778C48.6772 29.2778 48.1625 29.0645 47.7829 28.685C47.4033 28.3054 47.1901 27.7907 47.1901 27.2539V2.8321C47.1901 1.71667 48.0964 0.810387 49.2162 0.810387V0.80603ZM49.2162 43.8241C49.6979 43.8409 50.1781 43.7605 50.6281 43.5877C51.078 43.415 51.4886 43.1534 51.8353 42.8185C52.1821 42.4837 52.4578 42.0825 52.6461 41.6388C52.8345 41.1951 52.9315 40.718 52.9315 40.236C52.9315 39.754 52.8345 39.2769 52.6461 38.8332C52.4578 38.3895 52.1821 37.9883 51.8353 37.6534C51.4886 37.3186 51.078 37.057 50.6281 36.8842C50.1781 36.7115 49.6979 36.6311 49.2162 36.6479C48.2862 36.6803 47.4051 37.0725 46.7587 37.7419C46.1123 38.4112 45.751 39.3054 45.751 40.236C45.751 41.1665 46.1123 42.0607 46.7587 42.7301C47.4051 43.3995 48.2862 43.7917 49.2162 43.8241ZM28.4021 57.4489C27.8659 57.4489 27.3517 57.2359 26.9725 56.8567C26.5934 56.4776 26.3804 55.9634 26.3804 55.4272V31.001C26.3804 30.4643 26.5936 29.9495 26.9732 29.5699C27.3527 29.1904 27.8675 28.9771 28.4043 28.9771C28.9411 28.9771 29.4558 29.1904 29.8354 29.5699C30.215 29.9495 30.4282 30.4643 30.4282 31.001V55.4272C30.4282 55.693 30.3757 55.9563 30.2739 56.2019C30.172 56.4474 30.0227 56.6705 29.8345 56.8583C29.6463 57.0461 29.4229 57.1949 29.1771 57.2962C28.9313 57.3976 28.668 57.4495 28.4021 57.4489ZM28.4021 14.4308C27.4499 14.4308 26.5367 14.8091 25.8634 15.4824C25.1901 16.1557 24.8118 17.0689 24.8118 18.0211C24.8118 18.9733 25.1901 19.8865 25.8634 20.5598C26.5367 21.2331 27.4499 21.6114 28.4021 21.6114C29.3543 21.6114 30.2675 21.2331 30.9408 20.5598C31.6141 19.8865 31.9924 18.9733 31.9924 18.0211C31.9924 17.0689 31.6141 16.1557 30.9408 15.4824C30.2675 14.8091 29.3543 14.4308 28.4021 14.4308Z" fill="#323232"/>
</svg>
