<svg width="19" height="15" viewBox="0 0 19 15" fill="none" xmlns="http://www.w3.org/2000/svg">
<path d="M0.19006 11.3778V3.62201L6.29666 7.49992L0.19006 11.3778ZM18.6619 13.5951C18.3921 14.1993 17.7784 14.6192 17.064 14.6192H1.93616C1.22556 14.6192 0.61186 14.2012 0.34016 13.6027C0.243259 13.3899 0.19006 13.1524 0.19006 12.9035L7.49936 8.26181L9.50006 9.53481L11.5027 8.26372L18.8101 12.9035C18.8101 13.1486 18.7569 13.3823 18.6619 13.5951ZM18.8101 3.62201V11.3759L12.7035 7.49992L18.8101 3.62201ZM17.064 0.380615C17.7784 0.380615 18.3921 0.802415 18.6619 1.40472C18.7569 1.61562 18.8101 1.84932 18.8101 2.09632L9.50006 8.00722L0.19006 2.09632C0.19006 1.84742 0.243259 1.60992 0.34016 1.39712C0.61186 0.798615 1.22556 0.380615 1.93616 0.380615H17.064Z" fill="#263538"/>
</svg>
