<svg width="57" height="57" viewBox="0 0 57 57" fill="none" xmlns="http://www.w3.org/2000/svg">
<path d="M37.3981 30.4836C36.9763 29.9307 36.4519 29.4633 35.8249 29.0814C35.1922 28.7052 34.4683 28.4145 33.6532 28.215C32.8381 28.0155 31.6753 27.8217 30.1705 27.6336V19.1349L31.3789 19.3173C31.8976 19.3857 32.4733 19.6593 33.1003 20.1438C33.733 20.6283 34.2232 21.1926 34.5766 21.8367L35.3404 23.5695C35.5627 24.0369 35.8705 24.3846 36.2581 24.6183C36.6514 24.852 37.0333 24.852 37.4095 24.624C37.7857 24.396 38.008 24.054 38.0821 23.5923C38.1562 23.1306 37.9852 22.515 37.5862 21.7455C37.1815 20.9703 36.7711 20.2863 36.3436 19.6764C35.9161 19.0722 35.329 18.5193 34.5766 18.0177C33.8242 17.5161 33.1231 17.1741 32.4733 16.986C31.8235 16.7979 31.054 16.6212 30.1705 16.4502V16.017C30.2047 15.4071 29.9197 15.0423 29.3098 14.9169C28.7056 14.7915 28.2667 14.8428 27.9931 15.0651C27.7195 15.2874 27.5656 15.5154 27.5257 15.7548C27.4858 15.9942 27.4858 16.2564 27.5143 16.5471L25.9582 16.7295C23.4388 16.9746 21.7231 17.7213 20.8111 18.981C19.8991 20.235 19.369 21.5004 19.2265 22.7658C19.1068 23.7234 19.1695 24.5955 19.4146 25.3821C19.6654 26.1744 20.0758 26.8242 20.6572 27.3486C21.2386 27.873 21.9454 28.3062 22.7776 28.6482C23.6098 28.9902 24.3622 29.2467 25.0348 29.4063C25.7017 29.5659 26.5282 29.7255 27.5143 29.8794V38.8968L25.7245 38.3781C25.3369 38.2869 24.8011 38.0418 24.1171 37.6371C23.4331 37.2324 22.8118 36.765 22.2589 36.2349C21.706 35.7048 21.3184 35.1348 21.0961 34.5192C20.8738 33.9036 20.6116 33.4476 20.3095 33.1455C20.0074 32.8434 19.6369 32.8263 19.2037 33.0942C18.7762 33.3621 18.5596 33.8181 18.5596 34.4622C18.5596 35.1063 18.7648 35.7789 19.1809 36.4743C19.597 37.1697 20.0758 37.7967 20.623 38.3553C21.1702 38.9196 21.8656 39.4326 22.7035 39.9057C23.5414 40.3788 24.3223 40.7208 25.0405 40.9374C25.7587 41.154 26.5795 41.3592 27.5086 41.5587V42.5277C27.5086 42.7842 27.6283 43.0464 27.862 43.32C28.1014 43.5936 28.4662 43.7076 28.9564 43.6563C29.4466 43.6107 29.7715 43.4625 29.9254 43.2231C30.0793 42.9837 30.1534 42.7215 30.1534 42.4308V41.6499L32.5759 41.2338C33.448 41.1255 34.3885 40.7436 35.3917 40.0938C36.3949 39.444 37.1587 38.6973 37.6831 37.8537C38.2018 37.0101 38.5039 36.1038 38.5837 35.1348C38.6635 34.1658 38.5894 33.2937 38.3614 32.5014C38.1448 31.7148 37.8199 31.0422 37.3981 30.4836ZM27.52 27.3714L26.2261 27.1206C25.2742 26.9439 24.4591 26.6931 23.7751 26.3625C23.0911 26.0376 22.5838 25.593 22.2646 25.0401C21.8884 24.4188 21.763 23.7234 21.8827 22.9653C22.0024 22.2072 22.2532 21.5574 22.6351 21.0216C23.017 20.4858 23.4958 20.0811 24.0772 19.8075C24.6586 19.5282 25.1773 19.3458 25.639 19.2603C26.095 19.1691 26.722 19.1064 27.52 19.0608V27.3714ZM35.2663 36.651C34.93 37.2267 34.4455 37.7112 33.8071 38.1045C33.1687 38.4921 32.5645 38.7429 31.9945 38.8455C31.4188 38.9481 30.8146 39.0279 30.1705 39.0678V30.153L31.9774 30.3183C33.2257 30.4266 34.1092 30.7059 34.6279 31.1448C35.1466 31.5837 35.4943 32.1252 35.671 32.7693C35.8477 33.4134 35.9104 34.0803 35.8534 34.7586C35.8021 35.4426 35.6083 36.0753 35.2663 36.651Z" fill="#0E5E6F"/>
<path d="M28.5003 0.570068C13.0989 0.570068 0.570312 13.0987 0.570312 28.5001C0.570312 43.9015 13.0989 56.4301 28.5003 56.4301C43.9017 56.4301 56.4303 43.9015 56.4303 28.5001C56.4303 13.0987 43.9017 0.570068 28.5003 0.570068ZM28.5003 54.0988C14.3814 54.0988 2.89591 42.619 2.89591 28.5001C2.89591 14.3812 14.3814 2.90137 28.5003 2.90137C42.6192 2.90137 54.1047 14.3869 54.1047 28.5001C54.1047 42.619 42.6192 54.0988 28.5003 54.0988Z" fill="#0E5E6F"/>
</svg>
