<svg width="55" height="60" viewBox="0 0 55 60" fill="none" xmlns="http://www.w3.org/2000/svg">
<path d="M35.1699 18.1199C36.5628 16.9535 37.4486 15.2015 37.4486 13.2426C37.4486 11.2838 36.5628 9.53181 35.1699 8.36538C35.3296 8.28807 35.4832 8.20418 35.6295 8.11326C36.5534 7.5388 37.6439 7.20703 38.8119 7.20703C42.1453 7.20703 44.8475 9.90931 44.8475 13.2426C44.8475 16.576 42.1453 19.2782 38.8119 19.2782C37.6439 19.2782 36.5534 18.9464 35.6295 18.372C35.4832 18.2811 35.3296 18.1972 35.1699 18.1199Z" fill="url(#paint0_linear_262_5893)"/>
<path d="M33.4945 14.1908C34.1175 12.4842 34.0087 10.5241 33.0292 8.82763C32.0498 7.1312 30.4067 6.05682 28.6172 5.74312C28.7168 5.59639 28.8078 5.44692 28.889 5.295C29.402 4.33557 30.1805 3.50299 31.192 2.919C34.0788 1.25231 37.7702 2.2414 39.4369 5.12818C41.1035 8.01497 40.1144 11.7063 37.2276 13.373C36.2161 13.957 35.1058 14.2149 34.0185 14.1794C33.8464 14.1737 33.6713 14.1779 33.4945 14.1908Z" fill="url(#paint1_linear_262_5893)"/>
<path d="M30.0766 11.6293C29.7629 9.83979 28.6885 8.19669 26.9921 7.21725C25.2956 6.23782 23.3355 6.12894 21.6289 6.75199C21.6418 6.57513 21.646 6.40013 21.6403 6.22798C21.6048 5.14061 21.8627 4.03032 22.4467 3.0188C24.1135 0.132025 27.8047 -0.85706 30.6916 0.809625C33.5783 2.47631 34.5675 6.16763 32.9007 9.05444C32.3167 10.0659 31.4842 10.8445 30.5247 11.3574C30.3729 11.4386 30.2234 11.5296 30.0766 11.6293Z" fill="url(#paint2_linear_262_5893)"/>
<path d="M25.8387 11.117C24.6723 9.72416 22.9203 8.83841 20.9614 8.83841C19.0025 8.83841 17.2505 9.72416 16.0841 11.117C16.0069 10.9574 15.9229 10.8038 15.832 10.6574C15.2575 9.73353 14.9258 8.64308 14.9258 7.47507C14.9258 4.14169 17.628 1.43945 20.9614 1.43945C24.2948 1.43945 26.997 4.14169 26.997 7.47507C26.997 8.64308 26.6652 9.73353 26.0908 10.6574C25.9998 10.8038 25.9159 10.9574 25.8387 11.117Z" fill="url(#paint3_linear_262_5893)"/>
<path d="M21.9096 12.795C20.203 12.172 18.2428 12.2809 16.5464 13.2602C14.85 14.2397 13.7756 15.8828 13.4619 17.6722C13.3152 17.5726 13.1657 17.4816 13.0138 17.4004C12.0543 16.8874 11.2218 16.1089 10.6378 15.0974C8.97106 12.2106 9.96015 8.51931 12.8469 6.8526C15.7337 5.1859 19.425 6.17499 21.0918 9.0618C21.6758 10.0733 21.9337 11.1836 21.8981 12.2709C21.8925 12.4431 21.8966 12.6181 21.9096 12.795Z" fill="url(#paint4_linear_262_5893)"/>
<path d="M19.3442 16.21C17.5547 16.5237 15.9116 17.5981 14.9321 19.2945C13.9527 20.9909 13.8438 22.951 14.4669 24.6576C14.29 24.6447 14.115 24.6406 13.9428 24.6461C12.8555 24.6817 11.7452 24.4238 10.7337 23.8398C7.84687 22.1731 6.85778 18.4818 8.52447 15.595C10.1912 12.7082 13.8825 11.7191 16.7693 13.3858C17.7808 13.9698 18.5593 14.8024 19.0722 15.7617C19.1534 15.9137 19.2446 16.0632 19.3442 16.21Z" fill="url(#paint5_linear_262_5893)"/>
<path d="M18.8319 20.4494C17.439 21.6158 16.5532 23.3678 16.5532 25.3266C16.5532 27.2855 17.439 29.0375 18.8319 30.2039C18.6722 30.2811 18.5186 30.3651 18.3723 30.4561C17.4484 31.0305 16.3579 31.3622 15.1899 31.3622C11.8565 31.3622 9.1543 28.66 9.1543 25.3266C9.1543 21.9932 11.8565 19.291 15.1899 19.291C16.3579 19.291 17.4484 19.6228 18.3723 20.1973C18.5186 20.2882 18.6722 20.3721 18.8319 20.4494Z" fill="url(#paint6_linear_262_5893)"/>
<path d="M20.5079 24.377C19.8848 26.0835 19.9937 28.0437 20.9731 29.7401C21.9526 31.4366 23.5957 32.5109 25.3851 32.8246C25.2855 32.9714 25.1945 33.1209 25.1133 33.2728C24.6003 34.2322 23.8218 35.0648 22.8103 35.6488C19.9235 37.3155 16.2322 36.3263 14.5655 33.4396C12.8988 30.5528 13.8879 26.8615 16.7747 25.1948C17.7862 24.6108 18.8965 24.3529 19.9838 24.3884C20.156 24.394 20.331 24.3899 20.5079 24.377Z" fill="url(#paint7_linear_262_5893)"/>
<path d="M23.9247 26.9414C24.2384 28.7309 25.3128 30.374 27.0092 31.3533C28.7057 32.3328 30.6659 32.4417 32.3725 31.8186C32.3596 31.9955 32.3554 32.1705 32.361 32.3427C32.3966 33.43 32.1387 34.5403 31.5547 35.5518C29.8879 38.4387 26.1967 39.4277 23.3098 37.761C20.423 36.0943 19.4339 32.4031 21.1007 29.5162C21.6847 28.5047 22.5172 27.7262 23.4766 27.2133C23.6285 27.1321 23.778 27.0409 23.9247 26.9414Z" fill="url(#paint8_linear_262_5893)"/>
<path d="M28.1641 27.4551C29.3306 28.848 31.0825 29.7337 33.0415 29.7337C35.0004 29.7337 36.7524 28.848 37.9188 27.4551C37.996 27.6147 38.0799 27.7683 38.1709 27.9146C38.7453 28.8385 39.0771 29.929 39.0771 31.097C39.0771 34.4304 36.3749 37.1326 33.0415 37.1326C29.7081 37.1326 27.0059 34.4304 27.0059 31.097C27.0059 29.929 27.3376 28.8385 27.912 27.9146C28.0031 27.7683 28.0869 27.6147 28.1641 27.4551Z" fill="url(#paint9_linear_262_5893)"/>
<path d="M32.0938 25.7815C33.8003 26.4045 35.7605 26.2957 37.4569 25.3163C39.1533 24.3369 40.2277 22.6938 40.5414 20.9043C40.6881 21.0038 40.8376 21.0949 40.9895 21.1762C41.949 21.6891 42.7816 22.4676 43.3655 23.4791C45.0323 26.3659 44.0431 30.0572 41.1564 31.724C38.2696 33.3906 34.5783 32.4016 32.9116 29.5147C32.3276 28.5032 32.0697 27.3929 32.1051 26.3056C32.1108 26.1335 32.1067 25.9584 32.0938 25.7815Z" fill="url(#paint10_linear_262_5893)"/>
<path d="M39.0718 19.2746C39.0706 19.2767 39.0694 19.2788 39.0682 19.2809C38.0888 20.9774 36.4457 22.0517 34.6562 22.3654C34.7558 22.5122 34.8469 22.6617 34.9281 22.8136C35.441 23.773 36.2196 24.6056 37.2311 25.1896C40.1179 26.8563 43.8092 25.8672 45.4759 22.9804C46.9047 20.5055 46.3816 17.4393 44.3842 15.5645C43.5067 17.6703 41.4705 19.1724 39.0718 19.2746Z" fill="url(#paint11_linear_262_5893)"/>
<path d="M0.758116 52.2852L3.09452 46.0902H4.36007L6.69647 52.2852H5.76722L5.19197 50.8072H2.25377L1.69622 52.2852H0.758116ZM2.52812 50.0373C2.89982 50.0373 3.21842 50.0373 3.48392 50.0373C3.74942 50.0373 3.97657 50.0491 4.16537 50.0727C4.35417 50.0904 4.53412 50.1464 4.70522 50.2408C4.88222 50.3352 5.03562 50.4945 5.16542 50.7187L3.72287 46.869L2.52812 50.0373ZM7.59799 49.5948V46.0902H8.46529V49.6036C8.46529 49.9045 8.50954 50.1759 8.59804 50.4178C8.68654 50.6538 8.81044 50.8574 8.96974 51.0285C9.13494 51.1937 9.33259 51.3205 9.56269 51.409C9.79869 51.4975 10.0583 51.5418 10.3415 51.5418C10.9138 51.5418 11.3651 51.3736 11.6955 51.0373C12.0259 50.6951 12.1911 50.2172 12.1911 49.6036V46.0902H13.0584V49.5948C13.0584 50.0668 12.9847 50.4768 12.8372 50.8249C12.6897 51.1671 12.4891 51.4533 12.2354 51.6834C11.9876 51.9076 11.6985 52.0757 11.3681 52.1878C11.0436 52.2999 10.7014 52.356 10.3415 52.356C9.96389 52.356 9.60694 52.3029 9.27064 52.1967C8.94024 52.0846 8.65114 51.9164 8.40334 51.6922C8.15554 51.468 7.95789 51.1819 7.81039 50.8338C7.66879 50.4857 7.59799 50.0727 7.59799 49.5948ZM14.0125 52.2852V46.0902H16.8445C17.5525 46.0902 18.1071 46.2347 18.5083 46.5238C18.9095 46.8129 19.1101 47.2672 19.1101 47.8867C19.1101 48.1699 19.0629 48.3912 18.9685 48.5505C18.8741 48.7098 18.7679 48.8425 18.6499 48.9487C18.5909 49.0136 18.5201 49.0726 18.4375 49.1257C18.3549 49.1729 18.2664 49.2142 18.172 49.2496C18.0776 49.285 17.9803 49.3145 17.88 49.3381C17.7856 49.3617 17.6941 49.3824 17.6056 49.4001V49.4178C17.7 49.4001 17.8003 49.3824 17.9065 49.3647C18.0186 49.347 18.1307 49.3381 18.2428 49.3381C18.3431 49.3381 18.4346 49.3499 18.5172 49.3735C18.6057 49.3912 18.6824 49.4266 18.7473 49.4797C18.8653 49.5564 18.9656 49.6685 19.0482 49.816C19.1308 49.9635 19.1721 50.1907 19.1721 50.4975L19.1809 52.2852H18.3048V50.5506C18.3048 50.3795 18.2576 50.2556 18.1632 50.1789C18.0747 50.0963 17.9124 50.055 17.6764 50.055L14.8887 50.0638V52.2852H14.0125ZM16.6764 49.2939C16.9183 49.2939 17.1366 49.2644 17.3313 49.2054C17.5319 49.1405 17.7059 49.052 17.8534 48.9399C18.0009 48.8278 18.113 48.698 18.1897 48.5505C18.2723 48.403 18.3136 48.2407 18.3136 48.0637C18.3136 47.6035 18.175 47.2849 17.8977 47.1079C17.6263 46.9309 17.2516 46.8424 16.7737 46.8424H14.8887V49.2939H16.6764ZM20.1073 46.0902H24.7624V46.9044H20.9746V48.9133H24.6385V49.639H20.9746V51.471H24.7624V52.2852H20.1073V46.0902ZM27.9838 49.1434L25.7005 46.099H26.8068L28.4706 48.3027C28.5001 48.3381 28.5207 48.3794 28.5325 48.4266C28.5443 48.4738 28.5502 48.521 28.5502 48.5682H28.5679C28.5679 48.521 28.5738 48.4738 28.5856 48.4266C28.6033 48.3794 28.6269 48.3381 28.6564 48.3027L30.3645 46.099H31.4973L29.1166 49.1346L31.5858 52.294H30.4707L28.6564 49.9842C28.6033 49.9134 28.5768 49.8219 28.5768 49.7098H28.5591C28.5591 49.8219 28.5325 49.9134 28.4794 49.9842L26.736 52.294H25.6297L27.9838 49.1434ZM32.3208 52.2852L34.6572 46.0902H35.9228L38.2592 52.2852H37.3299L36.7547 50.8072H33.8165L33.2589 52.2852H32.3208ZM34.0908 50.0373C34.4625 50.0373 34.7811 50.0373 35.0466 50.0373C35.3121 50.0373 35.5393 50.0491 35.7281 50.0727C35.9169 50.0904 36.0968 50.1464 36.2679 50.2408C36.4449 50.3352 36.5983 50.4945 36.7281 50.7187L35.2856 46.869L34.0908 50.0373Z" fill="black"/>
<defs>
<linearGradient id="paint0_linear_262_5893" x1="35.9256" y1="7.20703" x2="35.9256" y2="19.2782" gradientUnits="userSpaceOnUse">
<stop stop-color="#25136D"/>
<stop offset="1" stop-color="#3D9BA2"/>
</linearGradient>
<linearGradient id="paint1_linear_262_5893" x1="28.6925" y1="4.36212" x2="34.7281" y2="14.8162" gradientUnits="userSpaceOnUse">
<stop stop-color="#25136D"/>
<stop offset="1" stop-color="#3D9BA2"/>
</linearGradient>
<linearGradient id="paint2_linear_262_5893" x1="21.0036" y1="5.51838" x2="31.4576" y2="11.554" gradientUnits="userSpaceOnUse">
<stop stop-color="#25136D"/>
<stop offset="1" stop-color="#3D9BA2"/>
</linearGradient>
<linearGradient id="paint3_linear_262_5893" x1="14.9258" y1="10.3613" x2="26.997" y2="10.3613" gradientUnits="userSpaceOnUse">
<stop stop-color="#25136D"/>
<stop offset="1" stop-color="#3D9BA2"/>
</linearGradient>
<linearGradient id="paint4_linear_262_5893" x1="12.0809" y1="17.5969" x2="22.5349" y2="11.5613" gradientUnits="userSpaceOnUse">
<stop stop-color="#25136D"/>
<stop offset="1" stop-color="#3D9BA2"/>
</linearGradient>
<linearGradient id="paint5_linear_262_5893" x1="13.2332" y1="25.2829" x2="19.2689" y2="14.8289" gradientUnits="userSpaceOnUse">
<stop stop-color="#25136D"/>
<stop offset="1" stop-color="#3D9BA2"/>
</linearGradient>
<linearGradient id="paint6_linear_262_5893" x1="18.0762" y1="31.3622" x2="18.0762" y2="19.291" gradientUnits="userSpaceOnUse">
<stop stop-color="#25136D"/>
<stop offset="1" stop-color="#3D9BA2"/>
</linearGradient>
<linearGradient id="paint7_linear_262_5893" x1="25.3098" y1="34.2057" x2="19.2742" y2="23.7517" gradientUnits="userSpaceOnUse">
<stop stop-color="#25136D"/>
<stop offset="1" stop-color="#3D9BA2"/>
</linearGradient>
<linearGradient id="paint8_linear_262_5893" x1="32.9978" y1="33.0523" x2="22.5438" y2="27.0166" gradientUnits="userSpaceOnUse">
<stop stop-color="#25136D"/>
<stop offset="1" stop-color="#3D9BA2"/>
</linearGradient>
<linearGradient id="paint9_linear_262_5893" x1="39.0771" y1="28.2108" x2="27.0059" y2="28.2108" gradientUnits="userSpaceOnUse">
<stop stop-color="#25136D"/>
<stop offset="1" stop-color="#3D9BA2"/>
</linearGradient>
<linearGradient id="paint10_linear_262_5893" x1="41.9225" y1="20.9796" x2="31.4685" y2="27.0152" gradientUnits="userSpaceOnUse">
<stop stop-color="#25136D"/>
<stop offset="1" stop-color="#3D9BA2"/>
</linearGradient>
<linearGradient id="paint11_linear_262_5893" x1="40.7672" y1="13.2925" x2="34.7315" y2="23.7465" gradientUnits="userSpaceOnUse">
<stop stop-color="#25136D"/>
<stop offset="1" stop-color="#3D9BA2"/>
</linearGradient>
</defs>
</svg>
