<svg width="59" height="60" viewBox="0 0 59 60" fill="none" xmlns="http://www.w3.org/2000/svg">
<path d="M32.7139 0H25.8568V10.3398C25.8279 12.2086 24.3041 13.7142 22.4287 13.7142H12.1426V20.5714H19.5879C21.4065 20.5714 23.1507 19.8489 24.4366 18.563L30.7056 12.294C31.9915 11.0082 32.7139 9.26397 32.7139 7.44537V0Z" fill="#88C3F8"/>
<path d="M25.8555 34.2862H32.7126V23.9464C32.7415 22.0776 34.2653 20.572 36.1407 20.572H46.4268V13.7148H38.9815C37.1629 13.7148 35.4187 14.4373 34.1328 15.7232L27.8638 21.9922C26.578 23.278 25.8555 25.0222 25.8555 26.8408V34.2862Z" fill="#4A5CFF"/>
<path d="M0.6018 52.8574V52.5477L3.2745 47.751H0.39825V45.9898H6.1065V46.2996L3.4338 51.0963H6.16845V52.8574H0.6018ZM7.30367 52.8574V45.9898H12.7818V47.6271H9.09137V48.6094H12.5694V50.2467H9.09137V51.229H12.7818V52.8574H7.30367ZM18.1118 52.8486L15.7312 49.1847V52.8486H13.8992V45.9898H15.7223L18.1118 49.6891V45.9898H19.9526V52.8486H18.1118ZM24.2523 53.0698C23.7449 53.0698 23.2699 52.9754 22.8274 52.7866C22.3849 52.5978 21.9985 52.3412 21.6681 52.0167C21.3377 51.6863 21.0751 51.2998 20.8804 50.8573C20.6916 50.4148 20.5972 49.9428 20.5972 49.4413C20.5972 48.9398 20.6916 48.4678 20.8804 48.0253C21.0751 47.5828 21.3377 47.1993 21.6681 46.8748C21.9985 46.5444 22.3849 46.2848 22.8274 46.096C23.2699 45.9013 23.7449 45.804 24.2523 45.804C24.7538 45.804 25.2258 45.9013 25.6683 46.096C26.1167 46.2848 26.5061 46.5444 26.8365 46.8748C27.1669 47.1993 27.4265 47.5828 27.6153 48.0253C27.81 48.4678 27.9073 48.9398 27.9073 49.4413C27.9073 49.9428 27.81 50.4148 27.6153 50.8573C27.4265 51.2998 27.1669 51.6863 26.8365 52.0167C26.5061 52.3412 26.1167 52.5978 25.6683 52.7866C25.2258 52.9754 24.7538 53.0698 24.2523 53.0698ZM24.2523 47.5563C23.9927 47.5563 23.7508 47.6094 23.5266 47.7156C23.3083 47.8159 23.1195 47.9516 22.9602 48.1227C22.8009 48.2938 22.674 48.4944 22.5796 48.7245C22.4911 48.9487 22.4469 49.1876 22.4469 49.4413C22.4469 49.6891 22.4911 49.9281 22.5796 50.1582C22.674 50.3883 22.8009 50.5889 22.9602 50.76C23.1195 50.9311 23.3083 51.0697 23.5266 51.1759C23.7508 51.2762 23.9927 51.3264 24.2523 51.3264C24.5119 51.3264 24.7508 51.2762 24.9691 51.1759C25.1933 51.0697 25.3851 50.9311 25.5444 50.76C25.7037 50.5889 25.8276 50.3883 25.9161 50.1582C26.0105 49.9281 26.0577 49.6891 26.0577 49.4413C26.0577 49.1876 26.0105 48.9487 25.9161 48.7245C25.8276 48.4944 25.7037 48.2938 25.5444 48.1227C25.3851 47.9516 25.1933 47.8159 24.9691 47.7156C24.7508 47.6094 24.5119 47.5563 24.2523 47.5563ZM32.1337 52.8574H30.4788L27.9211 46.0075H29.9743L31.3018 49.5564L32.6293 46.0075H34.6825L32.1337 52.8574ZM38.2851 52.8574L37.9311 51.9105H35.816L35.462 52.8574H33.5238L36.0638 45.9898H37.6833L40.2233 52.8574H38.2851ZM36.878 48.5032L36.3293 50.3175H37.4178L36.878 48.5032Z" fill="#2251FF"/>
</svg>
