<svg width="52" height="52" viewBox="0 0 52 52" fill="none" xmlns="http://www.w3.org/2000/svg">
<path d="M2.40533 2.53345C0.607171 6.79953 0.456891 7.15937 0.536971 7.18901C0.577011 7.19889 0.926451 7.07929 1.29617 6.90925C1.67577 6.73921 2.04549 6.62949 2.11517 6.64925C2.22489 6.68929 2.24517 10.466 2.24517 28.1195C2.24517 44.6342 2.27533 49.5602 2.36529 49.6496C2.45525 49.7396 7.37081 49.7697 23.8855 49.7697C37.5428 49.7697 45.3157 49.7999 45.3558 49.8696C45.3859 49.9195 45.2757 50.2892 45.1062 50.6787C44.9361 51.0786 44.8165 51.4379 44.8264 51.4779C44.8462 51.5278 45.5757 51.2585 46.455 50.8784C47.3344 50.5086 48.833 49.8794 49.782 49.4796C50.731 49.0698 51.4907 48.7001 51.4803 48.6502C51.4403 48.5503 44.8862 45.7631 44.8264 45.8229C44.8067 45.8427 44.9263 46.2025 45.0963 46.6222C45.2762 47.0319 45.3859 47.4214 45.3558 47.4713C45.2559 47.631 4.71309 47.6013 4.56333 47.4516C4.37353 47.2618 4.39329 6.71893 4.57321 6.64873C4.64341 6.62897 5.01261 6.73869 5.39221 6.90873C5.76193 7.07877 6.11137 7.19837 6.15141 7.18849C6.20133 7.16873 5.98137 6.56917 5.68185 5.85989C3.84365 1.48409 3.41413 0.514809 3.34393 0.514809C3.30441 0.515327 2.87437 1.42429 2.40533 2.53345Z" fill="#0E5E6F"/>
<path d="M38.0125 4.66173C36.4437 5.34085 34.6756 6.11045 34.086 6.36005C33.4963 6.62005 33.0267 6.87953 33.0371 6.92945C33.0569 6.98925 33.5868 7.41877 34.216 7.89873C34.9351 8.43797 35.3751 8.83785 35.3948 8.96785C35.4146 9.11761 35.0553 9.53725 33.996 10.5663C29.0706 15.3519 22.7463 19.3684 15.5828 22.2455C13.6947 23.0047 10.7078 24.014 9.18889 24.3936C8.18997 24.6536 8.01005 24.7431 8.07973 24.9833C8.10989 25.0733 8.19985 25.4929 8.28981 25.9126C8.37977 26.3322 8.51965 26.7019 8.58933 26.7321C8.77913 26.8018 10.947 26.2225 12.8357 25.5933C15.3332 24.7738 18.2707 23.5554 20.8083 22.2965C26.833 19.3179 31.3986 16.1511 35.6746 11.975C36.5638 11.116 37.3531 10.4062 37.4332 10.4062C37.5232 10.4062 38.1326 10.806 38.8018 11.3052C40.0207 12.2043 40.2105 12.3146 40.2105 12.0743C40.2105 12.0145 40.4404 10.0463 40.7103 7.71829C40.99 5.39025 41.21 3.46209 41.21 3.44233C41.21 3.31285 40.5106 3.58273 38.0125 4.66173Z" fill="#0E5E6F"/>
<path d="M32.3678 19.9177C32.3377 19.9874 32.3278 25.5327 32.3377 32.2365L32.3678 44.4253H36.0146H39.6614V32.1367V19.848L36.0349 19.8179C33.1868 19.7981 32.398 19.8179 32.3678 19.9177Z" fill="#0E5E6F"/>
<path d="M19.5798 27.4109C19.5496 27.4811 19.5397 31.3374 19.5496 35.9831L19.5798 44.4253H23.2265H26.8733V35.8833V27.3412L23.2468 27.3111C20.3993 27.2908 19.6099 27.3111 19.5798 27.4109Z" fill="#0E5E6F"/>
<path d="M8.28972 35.7032C8.25956 35.7729 8.24968 37.7614 8.25956 40.1289L8.28972 44.4252L11.9266 44.4553C14.7741 44.4751 15.5832 44.4455 15.6534 44.3555C15.7434 44.2057 15.7632 35.983 15.6732 35.7433C15.6233 35.6034 15.2036 35.5836 11.9765 35.5836C9.14876 35.5831 8.31988 35.6133 8.28972 35.7032Z" fill="#0E5E6F"/>
</svg>
