<svg width="563" height="333" viewBox="0 0 563 333" fill="none" xmlns="http://www.w3.org/2000/svg">
<path d="M-16 73.9515C-9.45307 49.6343 26.0874 1 115.874 1C228.107 1 270.941 71.189 354.369 73.9515C460.289 77.4587 531.136 24.1481 562 1" stroke="#F2DEBA" stroke-width="1.5"/>
<path d="M-16 101.308C-9.45307 76.991 26.0874 28.3567 115.874 28.3567C228.107 28.3567 270.941 98.5456 354.369 101.308C460.289 104.815 531.136 51.5047 562 28.3567" stroke="#F2DEBA" stroke-width="1.5"/>
<path d="M-16 130.068C-9.45307 105.751 26.0874 57.1165 115.874 57.1165C228.107 57.1165 270.941 127.305 354.369 130.068C460.289 133.575 531.136 80.2645 562 57.1165" stroke="#F2DEBA" stroke-width="1.5"/>
<path d="M-16 158.828C-9.45307 134.511 26.0874 85.8762 115.874 85.8762C228.107 85.8762 270.941 156.065 354.369 158.828C460.289 162.335 531.136 109.024 562 85.8762" stroke="#F2DEBA" stroke-width="1.5"/>
<path d="M-16 187.587C-9.45307 163.27 26.0874 114.636 115.874 114.636C228.107 114.636 270.941 184.825 354.369 187.587C460.289 191.095 531.136 137.784 562 114.636" stroke="#F2DEBA" stroke-width="1.5"/>
<path d="M-16 216.347C-9.45307 192.03 26.0874 143.396 115.874 143.396C228.107 143.396 270.941 213.584 354.369 216.347C460.289 219.854 531.136 166.544 562 143.396" stroke="#F2DEBA" stroke-width="1.5"/>
<path d="M-16 245.107C-9.45307 220.79 26.0874 172.155 115.874 172.155C228.107 172.155 270.941 242.344 354.369 245.107C460.289 248.614 531.136 195.303 562 172.155" stroke="#F2DEBA" stroke-width="1.5"/>
<path d="M-16 273.866C-9.45307 249.549 26.0874 200.915 115.874 200.915C228.107 200.915 270.941 271.104 354.369 273.866C460.289 277.374 531.136 224.063 562 200.915" stroke="#F2DEBA" stroke-width="1.5"/>
<path d="M-16 302.626C-9.45307 278.309 26.0874 229.675 115.874 229.675C228.107 229.675 270.941 299.864 354.369 302.626C460.289 306.134 531.136 252.823 562 229.675" stroke="#F2DEBA" stroke-width="1.5"/>
<path d="M-16 331.386C-9.45307 307.069 26.0874 258.435 115.874 258.435C228.107 258.435 270.941 328.624 354.369 331.386C460.289 334.893 531.136 281.583 562 258.435" stroke="#F2DEBA" stroke-width="1.5"/>
</svg>
