<svg width="840" height="800" viewBox="60 0 680 770" fill="none" xmlns="http://www.w3.org/2000/svg">
<mask id="mask0_75_1080" style="mask-type:alpha" maskUnits="userSpaceOnUse" x="-236" y="0" width="1077" height="825">
<path d="M-4 1C88 1 300.4 50.6 414 249C556 497 720 719 840 761" stroke="#FFEFD6" stroke-opacity="0.17"/>
<path d="M-47.3223 54.5581C44.57 50.1069 259.121 89.3723 382.187 282.044C536.02 522.883 710.569 736.688 832.46 772.833" stroke="#FFEFD6" stroke-opacity="0.17"/>
<path d="M-154.168 185.721C-63.2005 171.979 154.225 189.299 296.184 368.506C473.633 592.514 668.952 787.529 793.879 811.134" stroke="#FFEFD6" stroke-opacity="0.17"/>
<path d="M-99.7129 116.263C-8.23309 106.493 208.233 133.257 342.259 318.472C509.792 549.991 696.439 753.32 820.221 782.34" stroke="#FFEFD6" stroke-opacity="0.17"/>
<path d="M-200.036 252.417C-110.017 233.426 108.047 238.114 260.154 408.793C450.288 622.14 656.581 805.506 782.666 821.832" stroke="#FFEFD6" stroke-opacity="0.17"/>
<path d="M-235.743 300.571C-146.704 277.415 71.3418 271.959 231.22 435.38C431.068 639.656 645.664 813.232 772.372 823.677" stroke="#FFEFD6" stroke-opacity="0.17"/>
</mask>
<g mask="url(#mask0_75_1080)">
<rect y="-11" width="840" height="776" fill="#D9D9D9"/>
</g>
</svg>
