<svg width="74" height="74" viewBox="0 0 74 74" fill="none" xmlns="http://www.w3.org/2000/svg">
<path d="M35.6549 0.91024C34.7484 1.20772 34.2667 1.51926 33.6155 2.15639C32.9643 2.8224 32.652 3.33226 32.3974 4.19584L32.2272 4.76267L16.4771 4.80485L0.740234 4.83371V7.10034V9.36696H2.86477H4.98931V31.7453V54.1244H2.86477H0.740234V56.3903V58.6569H11.6464C19.1248 58.6569 22.5525 58.6991 22.5525 58.7982C22.5525 58.9255 20.0172 65.9229 17.7506 72.0842L17.3118 73.246L19.6065 73.2178L21.8872 73.1757L22.978 70.2009L24.0687 67.2261H37.0002H49.9317L51.0225 70.2009L52.1133 73.1757L54.3939 73.2178L56.6887 73.246L56.2499 72.0842C54.4228 67.155 51.448 58.9114 51.448 58.7982C51.448 58.6991 55.074 58.6569 62.3541 58.6569H73.2602V56.3903V54.1244H71.1357H69.0112V31.7453V9.36621H71.1357H73.2602V7.09959V4.83298L57.5241 4.80485L41.774 4.76267L41.6038 4.19584C41.2071 2.87864 40.3147 1.83006 39.0256 1.20698C38.1051 0.754837 36.5466 0.612762 35.6549 0.91024ZM64.4787 31.7453V54.1244H37.0002H9.52181V31.7453V9.36621H37.0002H64.4787V31.7453ZM47.5097 60.569C47.8782 61.5747 48.1898 62.4531 48.1898 62.5093C48.1898 62.5804 43.1615 62.6225 37.0002 62.6225C30.8531 62.6225 25.8107 62.5804 25.8107 62.5093C25.8107 62.4242 26.604 60.2427 27.0717 59.0395L27.2278 58.6569L37.015 58.685L46.8163 58.7272L47.5097 60.569Z" fill="#F2DEBA"/>
<path d="M21.8874 17.2413C21.0941 17.5247 20.1454 18.389 19.7207 19.2245C19.4232 19.8054 19.3662 20.1169 19.3662 21.1226C19.3662 22.5671 19.7207 23.3892 20.6834 24.2528C21.4486 24.9188 22.341 25.2303 23.5302 25.2303C24.6491 25.2303 25.4002 24.9188 26.2778 24.1115C28.4164 22.1283 27.7793 18.5311 25.0598 17.2842C24.3375 16.9579 22.7517 16.9438 21.8874 17.2413Z" fill="#F2DEBA"/>
<path d="M33.4595 21.1225V23.3892H44.0822H54.7049V21.1225V18.8559H44.0822H33.4595V21.1225Z" fill="#F2DEBA"/>
<path d="M21.8873 27.921C21.0378 28.2606 20.1453 29.068 19.6917 29.9323C19.2669 30.7396 19.224 32.822 19.6207 33.5583C20.8816 35.8811 23.5723 36.6322 25.7109 35.2581C27.0562 34.3945 27.8073 32.6518 27.5239 31.0941C27.1553 29.0968 25.6398 27.7937 23.6144 27.6805C22.8648 27.6523 22.4541 27.7086 21.8873 27.921Z" fill="#F2DEBA"/>
<path d="M33.5586 29.5786C33.5017 29.6208 33.4595 30.6413 33.4595 31.8452V34.012H44.0822H54.7049V31.7453V29.4787H44.1813C38.3886 29.4795 33.6008 29.5216 33.5586 29.5786Z" fill="#F2DEBA"/>
<path d="M22.0854 38.5015C21.264 38.7849 20.1022 39.7765 19.6775 40.5831C19.2386 41.4186 19.2238 43.4587 19.6775 44.2801C20.6409 46.0791 22.6663 46.9715 24.5496 46.4187C26.0792 45.9799 27.0427 44.9602 27.4534 43.3736C27.6658 42.5382 27.6658 42.382 27.4534 41.5606C26.8444 39.0683 24.4653 37.7082 22.0854 38.5015Z" fill="#F2DEBA"/>
<path d="M33.4875 42.4679L33.5297 44.7057L44.1243 44.7479L54.7048 44.776V42.5094V40.2428H44.0821H33.4453L33.4875 42.4679Z" fill="#F2DEBA"/>
</svg>
