<svg width="70" height="70" viewBox="0 0 70 70" fill="none" xmlns="http://www.w3.org/2000/svg">
<path d="M27.5529 0.808464C21.8703 1.42516 16.215 3.78346 11.7385 7.40246C10.2244 8.63516 7.8787 11.0747 6.68589 12.6693C1.17759 20.0942 -0.631905 29.3419 1.68649 38.2676C4.38009 48.6136 12.4217 56.7357 22.781 59.577C27.2575 60.7964 32.3906 60.9441 36.9875 59.9522C41.3163 59.0275 46.0203 56.7756 49.4517 54.0015L50.3092 53.3043L58.2969 61.292L66.2846 69.2797L67.7987 67.7782L69.2995 66.2641L61.3125 58.2771L53.3248 50.2894L54.022 49.4312C57.4394 45.2095 59.8117 39.5808 60.455 34.0991C60.7098 32.0082 60.6559 28.5103 60.3346 26.3123C58.418 13.2587 48.1924 2.97916 35.1255 0.996056C33.4091 0.727959 29.2014 0.634163 27.5529 0.808464ZM33.6506 5.15056C39.5075 5.84776 44.6938 8.38036 48.9155 12.6021C56.5679 20.2685 58.5251 32.0894 53.7672 41.8726C51.194 47.1527 46.9051 51.3884 41.5844 53.8944C32.8862 58.009 22.4597 56.8162 14.8206 50.8522C5.35869 43.4539 2.3165 30.3737 7.5168 19.5713C12.3279 9.62706 22.7684 3.85065 33.6506 5.15056Z" fill="#F2DEBA"/>
<path d="M43.0584 24.222L36.7192 25.9104L38.3677 27.5589L40.0162 29.2074L36.1298 33.0938L32.2434 36.9809L26.5874 31.3249L20.9181 25.6556L16.2008 30.3869L11.4702 35.1042L12.9843 36.605L14.4851 38.1191L17.6617 34.9299L20.8516 31.7533L26.5076 37.4093L32.1769 43.0786L37.604 37.6508L43.0318 32.223L44.6131 33.8043L46.1944 35.3856L47.8968 29.1003C48.8348 25.6423 49.5992 22.7478 49.5992 22.6673C49.5992 22.5735 49.5593 22.5063 49.5054 22.5196C49.4382 22.5196 46.543 23.284 43.0584 24.222Z" fill="#F2DEBA"/>
</svg>
