<svg width="64" height="64" viewBox="0 0 64 64" fill="none" xmlns="http://www.w3.org/2000/svg">
<path d="M43.4536 0.947117C42.1582 1.83352 42.2126 3.51032 43.5765 4.4236L44.0398 4.7372H50.0801C53.4069 4.7372 56.1339 4.77816 56.1339 4.83256C56.1339 4.9004 47.844 13.2313 37.7134 23.3618L19.2936 41.7823L17.835 41.0463C15.8305 40.023 14.6581 39.7503 12.4353 39.7503C11.0581 39.7503 10.4174 39.8047 9.57197 40.0364C7.33581 40.6361 5.48173 41.7407 3.81837 43.4994C2.60493 44.7814 1.71853 46.2674 1.15981 47.9577C0.627972 49.621 0.478212 52.1574 0.832772 53.8617C1.78701 58.5247 5.48237 62.2194 10.1454 63.1737C10.9224 63.3375 11.6725 63.3785 12.9813 63.3375C14.5083 63.2831 14.9307 63.2146 16.0488 62.8332C18.0667 62.1516 19.1848 61.4559 20.7528 59.8879C22.7982 57.8425 23.7793 55.934 24.1889 53.166C24.5569 50.6572 24.1345 48.3801 22.8661 45.9673L22.2254 44.7129L40.7413 26.197L59.2705 7.66776V13.8713C59.2705 19.8156 59.284 20.0889 59.5432 20.5247C60.3477 21.8335 62.2837 21.8335 63.0881 20.5247C63.3473 20.0882 63.3608 19.8156 63.3608 11.0764C63.3608 2.33656 63.3473 2.06392 63.0881 1.62808C62.9384 1.38232 62.6248 1.06936 62.379 0.918961C61.9425 0.65976 61.6699 0.646317 52.9166 0.646317H43.9035L43.4536 0.947117ZM14.9173 44.277C17.8625 45.2998 19.8798 47.9449 20.0981 51.0943C20.3432 54.6668 18.0257 57.8841 14.4667 58.9478C13.3896 59.2748 11.4811 59.2748 10.3899 58.9478C7.81325 58.1842 5.82221 56.1938 5.05869 53.6166C4.73165 52.526 4.73165 50.6169 5.05869 49.5398C5.87661 46.7718 7.94957 44.7679 10.676 44.0722C11.7813 43.7996 13.7992 43.8956 14.9173 44.277Z" fill="#F2DEBA"/>
<path d="M8.57683 7.87325C7.73139 8.39101 7.32243 9.67293 7.74483 10.5049C7.82675 10.6688 9.18995 12.1139 10.7714 13.6953L13.6482 16.5996L10.7029 19.5584C8.22163 22.0672 7.73075 22.6259 7.60787 23.1033C7.13043 24.8486 8.69843 26.2393 10.4168 25.5846C10.6216 25.5168 12.1211 24.126 13.7301 22.5171L16.6613 19.5993L19.5247 22.4761C21.1061 24.0576 22.5512 25.4348 22.756 25.5436C23.6424 26.007 25.0191 25.6256 25.4831 24.7667C25.7832 24.2214 25.7967 23.2672 25.5375 22.7622C25.428 22.5574 24.0514 21.1123 22.4699 19.5308L19.5931 16.6675L22.4424 13.8041C24.0104 12.2361 25.3877 10.75 25.5099 10.5043C25.9599 9.60445 25.6463 8.48637 24.7874 7.91357C24.2146 7.53213 23.0965 7.49117 22.5922 7.81821C22.4015 7.94109 20.9832 9.30429 19.4152 10.8588L16.5928 13.6678L13.6898 10.7776C12.1083 9.19613 10.6632 7.83229 10.4994 7.75101C10.0219 7.50525 9.08179 7.57309 8.57683 7.87325Z" fill="#F2DEBA"/>
<path d="M39.391 38.51C38.559 38.9189 38.15 39.8188 38.3414 40.8281C38.4233 41.278 38.8591 41.7823 41.423 44.3455L44.4092 47.3452L41.5318 50.2079C39.9503 51.7893 38.5731 53.2345 38.4636 53.4393C38.191 53.9711 38.2185 55.0348 38.5455 55.5525C38.8316 56.03 39.2003 56.2617 39.8819 56.4249C40.8636 56.6431 41.1638 56.4383 44.2723 53.3298C45.8812 51.7209 47.2719 50.4121 47.3398 50.4121C47.4217 50.4121 48.7305 51.6799 50.271 53.221C51.8115 54.7615 53.2431 56.1113 53.4614 56.2341C53.8979 56.4658 54.8111 56.4933 55.3155 56.3026C56.1609 55.9756 56.6518 54.8575 56.3926 53.8892C56.2697 53.4393 55.7244 52.8121 53.2975 50.3852L50.3663 47.4265L51.4703 46.2265C52.07 45.5717 53.3385 44.2629 54.2927 43.3221C55.247 42.3813 56.1059 41.454 56.2153 41.2498C56.5155 40.6911 56.4611 39.7637 56.0924 39.2185C55.5606 38.414 54.2927 38.0319 53.5017 38.4274C53.3379 38.5093 51.8793 39.8866 50.2703 41.4949L47.3391 44.4127L44.4758 41.5359C42.8943 39.9545 41.4492 38.5772 41.2444 38.4684C40.7542 38.2098 39.9497 38.2233 39.391 38.51Z" fill="#F2DEBA"/>
</svg>
