<svg width="60" height="60" viewBox="0 0 60 60" fill="none" xmlns="http://www.w3.org/2000/svg">
<path d="M31.8656 6.0541V2.4361C31.8656 1.4221 31.0436 0.600098 30.0296 0.600098C29.0156 0.600098 28.1936 1.4221 28.1936 2.4361V6.0541C11.0336 6.6481 0.599609 15.6541 0.599609 29.8621C0.599609 30.8761 1.42161 31.6981 2.43561 31.6981H28.1936V50.3221C28.1936 55.3261 32.2616 59.4001 37.2656 59.4001C42.2636 59.4001 46.3376 55.3261 46.3376 50.3221C46.3376 49.3081 45.5156 48.4861 44.5016 48.4861C43.4876 48.4861 42.6656 49.3081 42.6656 50.3221C42.6656 53.3041 40.2416 55.7281 37.2656 55.7281C34.2836 55.7281 31.8596 53.3041 31.8596 50.3221V31.6981H57.5636C58.5776 31.6981 59.3996 30.8761 59.3996 29.8621C59.3996 15.6541 49.0196 6.6481 31.8656 6.0541ZM4.33761 28.0261C5.24361 16.5061 14.6036 9.6961 30.0236 9.6961C45.4436 9.6961 54.7496 16.5061 55.6556 28.0261H4.33761Z" fill="#0E5E6F"/>
</svg>
