<svg width="45" height="45" viewBox="0 0 45 45" fill="none" xmlns="http://www.w3.org/2000/svg">
<path d="M5.70514 0.70561C5.54134 0.79156 4.33534 1.94626 3.01729 3.26431C0.46759 5.83156 0.35554 5.97781 0.48469 6.68431C0.55354 7.03756 0.88114 7.45966 1.23394 7.64056C1.54399 7.80436 2.11279 7.80436 2.41429 7.64911C2.54344 7.58026 3.15499 7.02001 3.76699 6.39991L4.88704 5.27131L4.93024 22.1729C4.97344 38.988 4.97344 39.083 5.14579 39.3845C5.24929 39.5483 5.45584 39.7548 5.61964 39.8583C5.92114 40.0307 6.01609 40.0307 22.6674 40.0739L39.4052 40.1171L38.1555 41.1764C36.6048 42.4859 36.4154 42.8306 36.7943 43.6572C37.0872 44.3034 37.8797 44.6306 38.4998 44.3723C38.8184 44.2346 44.1509 39.7292 44.3489 39.4191C44.4263 39.3071 44.5041 39.0573 44.5298 38.8679C44.6247 38.1875 44.4866 38.0322 41.6354 35.5343C40.1886 34.2675 38.8535 33.156 38.6726 33.0615C37.8369 32.648 36.8033 33.3288 36.8033 34.3107C36.8033 34.9484 37.0274 35.2067 39.2324 37.076L39.5082 37.3172H36.6053H33.7023V28.5048V19.7006L37.2344 16.7715C39.5258 14.8676 40.8092 13.748 40.8956 13.5671C41.0594 13.2309 41.0594 12.654 40.8956 12.344C40.5684 11.6978 39.7584 11.3963 39.1554 11.7063C38.9228 11.8184 27.4226 21.2855 25.3121 23.0945C25.1568 23.2236 24.9935 23.0688 21.9524 19.9845C18.4982 16.4786 18.4721 16.461 17.7053 16.5906C17.4123 16.6424 16.9988 17.0298 13.6481 20.4156C11.5979 22.4829 9.84064 24.3266 9.74569 24.4989C9.59044 24.809 9.58189 25.0416 9.58189 31.0716V37.3172H8.63419H7.68604V21.2769V5.23666L8.87494 6.40846C10.0809 7.60591 10.3136 7.76971 10.8392 7.76971C11.4939 7.76971 11.9934 7.37326 12.1658 6.72751C12.3552 6.03856 12.2949 5.96071 9.56434 3.23011C8.17744 1.84321 6.92824 0.67186 6.79909 0.62011C6.43729 0.49006 6.04939 0.51616 5.70514 0.70561ZM16.6451 29.3054V37.3167H14.4914H12.3377V31.4933V25.6698L14.4738 23.4819C15.6461 22.2849 16.6109 21.294 16.628 21.294C16.6365 21.294 16.6451 24.8949 16.6451 29.3054ZM23.7092 31.4937V37.3172H21.5555H19.4018V29.3229L19.4103 21.3372L21.5555 23.508L23.7092 25.6788V31.4937ZM31.0316 29.6501V37.3167H28.7487H26.4659V31.5194V25.713L28.7141 23.8523C29.9547 22.8272 30.9798 21.983 30.9969 21.983C31.014 21.9834 31.0316 25.4291 31.0316 29.6501Z" fill="#0E5E6F"/>
</svg>
