<svg width="234" height="66" viewBox="0 0 234 66" fill="none" xmlns="http://www.w3.org/2000/svg">
<path d="M80.9757 34.264C79.5157 34.264 78.1957 34.014 77.0157 33.514C75.8557 33.014 74.9357 32.294 74.2557 31.354C73.5757 30.414 73.2257 29.304 73.2057 28.024H77.7057C77.7657 28.884 78.0657 29.564 78.6057 30.064C79.1657 30.564 79.9257 30.814 80.8857 30.814C81.8657 30.814 82.6357 30.584 83.1957 30.124C83.7557 29.644 84.0357 29.024 84.0357 28.264C84.0357 27.644 83.8457 27.134 83.4657 26.734C83.0857 26.334 82.6057 26.024 82.0257 25.804C81.4657 25.564 80.6857 25.304 79.6857 25.024C78.3257 24.624 77.2157 24.234 76.3557 23.854C75.5157 23.454 74.7857 22.864 74.1657 22.084C73.5657 21.284 73.2657 20.224 73.2657 18.904C73.2657 17.664 73.5757 16.584 74.1957 15.664C74.8157 14.744 75.6857 14.044 76.8057 13.564C77.9257 13.064 79.2057 12.814 80.6457 12.814C82.8057 12.814 84.5557 13.344 85.8957 14.404C87.2557 15.444 88.0057 16.904 88.1457 18.784H83.5257C83.4857 18.064 83.1757 17.474 82.5957 17.014C82.0357 16.534 81.2857 16.294 80.3457 16.294C79.5257 16.294 78.8657 16.504 78.3657 16.924C77.8857 17.344 77.6457 17.954 77.6457 18.754C77.6457 19.314 77.8257 19.784 78.1857 20.164C78.5657 20.524 79.0257 20.824 79.5657 21.064C80.1257 21.284 80.9057 21.544 81.9057 21.844C83.2657 22.244 84.3757 22.644 85.2357 23.044C86.0957 23.444 86.8357 24.044 87.4557 24.844C88.0757 25.644 88.3857 26.694 88.3857 27.994C88.3857 29.114 88.0957 30.154 87.5157 31.114C86.9357 32.074 86.0857 32.844 84.9657 33.424C83.8457 33.984 82.5157 34.264 80.9757 34.264ZM107.927 17.434L97.6369 41.914H93.1669L96.7669 33.634L90.1069 17.434H94.8169L99.1069 29.044L103.457 17.434H107.927ZM119.401 17.194C121.381 17.194 122.981 17.824 124.201 19.084C125.421 20.324 126.031 22.064 126.031 24.304V34.054H121.831V24.874C121.831 23.554 121.501 22.544 120.841 21.844C120.181 21.124 119.281 20.764 118.141 20.764C116.981 20.764 116.061 21.124 115.381 21.844C114.721 22.544 114.391 23.554 114.391 24.874V34.054H110.191V17.434H114.391V19.504C114.951 18.784 115.661 18.224 116.521 17.824C117.401 17.404 118.361 17.194 119.401 17.194ZM128.945 25.684C128.945 24.004 129.275 22.514 129.935 21.214C130.615 19.914 131.535 18.914 132.695 18.214C133.855 17.514 135.145 17.164 136.565 17.164C137.645 17.164 138.675 17.404 139.655 17.884C140.635 18.344 141.415 18.964 141.995 19.744V11.854H146.255V34.054H141.995V31.594C141.475 32.414 140.745 33.074 139.805 33.574C138.865 34.074 137.775 34.324 136.535 34.324C135.135 34.324 133.855 33.964 132.695 33.244C131.535 32.524 130.615 31.514 129.935 30.214C129.275 28.894 128.945 27.384 128.945 25.684ZM142.025 25.744C142.025 24.724 141.825 23.854 141.425 23.134C141.025 22.394 140.485 21.834 139.805 21.454C139.125 21.054 138.395 20.854 137.615 20.854C136.835 20.854 136.115 21.044 135.455 21.424C134.795 21.804 134.255 22.364 133.835 23.104C133.435 23.824 133.235 24.684 133.235 25.684C133.235 26.684 133.435 27.564 133.835 28.324C134.255 29.064 134.795 29.634 135.455 30.034C136.135 30.434 136.855 30.634 137.615 30.634C138.395 30.634 139.125 30.444 139.805 30.064C140.485 29.664 141.025 29.104 141.425 28.384C141.825 27.644 142.025 26.764 142.025 25.744ZM152.487 15.454C151.747 15.454 151.127 15.224 150.627 14.764C150.147 14.284 149.907 13.694 149.907 12.994C149.907 12.294 150.147 11.714 150.627 11.254C151.127 10.774 151.747 10.534 152.487 10.534C153.227 10.534 153.837 10.774 154.317 11.254C154.817 11.714 155.067 12.294 155.067 12.994C155.067 13.694 154.817 14.284 154.317 14.764C153.837 15.224 153.227 15.454 152.487 15.454ZM154.557 17.434V34.054H150.357V17.434H154.557ZM157.627 25.744C157.627 24.024 157.977 22.524 158.677 21.244C159.377 19.944 160.347 18.944 161.587 18.244C162.827 17.524 164.247 17.164 165.847 17.164C167.907 17.164 169.607 17.684 170.947 18.724C172.307 19.744 173.217 21.184 173.677 23.044H169.147C168.907 22.324 168.497 21.764 167.917 21.364C167.357 20.944 166.657 20.734 165.817 20.734C164.617 20.734 163.667 21.174 162.967 22.054C162.267 22.914 161.917 24.144 161.917 25.744C161.917 27.324 162.267 28.554 162.967 29.434C163.667 30.294 164.617 30.724 165.817 30.724C167.517 30.724 168.627 29.964 169.147 28.444H173.677C173.217 30.244 172.307 31.674 170.947 32.734C169.587 33.794 167.887 34.324 165.847 34.324C164.247 34.324 162.827 33.974 161.587 33.274C160.347 32.554 159.377 31.554 158.677 30.274C157.977 28.974 157.627 27.464 157.627 25.744ZM175.673 25.684C175.673 24.004 176.003 22.514 176.663 21.214C177.343 19.914 178.253 18.914 179.393 18.214C180.553 17.514 181.843 17.164 183.263 17.164C184.503 17.164 185.583 17.414 186.503 17.914C187.443 18.414 188.193 19.044 188.753 19.804V17.434H192.983V34.054H188.753V31.624C188.213 32.404 187.463 33.054 186.503 33.574C185.563 34.074 184.473 34.324 183.233 34.324C181.833 34.324 180.553 33.964 179.393 33.244C178.253 32.524 177.343 31.514 176.663 30.214C176.003 28.894 175.673 27.384 175.673 25.684ZM188.753 25.744C188.753 24.724 188.553 23.854 188.153 23.134C187.753 22.394 187.213 21.834 186.533 21.454C185.853 21.054 185.123 20.854 184.343 20.854C183.563 20.854 182.843 21.044 182.183 21.424C181.523 21.804 180.983 22.364 180.563 23.104C180.163 23.824 179.963 24.684 179.963 25.684C179.963 26.684 180.163 27.564 180.563 28.324C180.983 29.064 181.523 29.634 182.183 30.034C182.863 30.434 183.583 30.634 184.343 30.634C185.123 30.634 185.853 30.444 186.533 30.064C187.213 29.664 187.753 29.104 188.153 28.384C188.553 27.644 188.753 26.764 188.753 25.744ZM201.976 20.884V28.924C201.976 29.484 202.106 29.894 202.366 30.154C202.646 30.394 203.106 30.514 203.746 30.514H205.696V34.054H203.056C199.516 34.054 197.746 32.334 197.746 28.894V20.884H195.766V17.434H197.746V13.324H201.976V17.434H205.696V20.884H201.976ZM224.166 25.384C224.166 25.984 224.126 26.524 224.046 27.004H211.896C211.996 28.204 212.416 29.144 213.156 29.824C213.896 30.504 214.806 30.844 215.886 30.844C217.446 30.844 218.556 30.174 219.216 28.834H223.746C223.266 30.434 222.346 31.754 220.986 32.794C219.626 33.814 217.956 34.324 215.976 34.324C214.376 34.324 212.936 33.974 211.656 33.274C210.396 32.554 209.406 31.544 208.686 30.244C207.986 28.944 207.636 27.444 207.636 25.744C207.636 24.024 207.986 22.514 208.686 21.214C209.386 19.914 210.366 18.914 211.626 18.214C212.886 17.514 214.336 17.164 215.976 17.164C217.556 17.164 218.966 17.504 220.206 18.184C221.466 18.864 222.436 19.834 223.116 21.094C223.816 22.334 224.166 23.764 224.166 25.384ZM219.816 24.184C219.796 23.104 219.406 22.244 218.646 21.604C217.886 20.944 216.956 20.614 215.856 20.614C214.816 20.614 213.936 20.934 213.216 21.574C212.516 22.194 212.086 23.064 211.926 24.184H219.816Z" fill="white"/>
<path fill-rule="evenodd" clip-rule="evenodd" d="M33.5314 52.1673C47.494 52.1673 58.8129 40.8483 58.8129 26.8858C58.8129 12.9232 47.494 1.60425 33.5314 1.60425C19.5688 1.60425 8.24988 12.9232 8.24988 26.8858C8.24988 40.8483 19.5688 52.1673 33.5314 52.1673ZM33.5817 45.5041C45.2321 45.5041 54.6766 35.8744 54.6766 23.9956C54.6766 12.1168 45.2321 2.48706 33.5817 2.48706C21.9313 2.48706 12.4868 12.1168 12.4868 23.9956C12.4868 35.8744 21.9313 45.5041 33.5817 45.5041Z" fill="#F2DEBA"/>
<path fill-rule="evenodd" clip-rule="evenodd" d="M22.9472 0C9.61489 4.43158 0 17.0063 0 31.8267C0 50.3456 15.0125 65.3582 33.5314 65.3582C36.9083 65.3582 40.1686 64.859 43.2425 63.9304L40.604 55.619C38.365 56.2076 36.0175 56.5207 33.5982 56.5207C18.146 56.5207 5.61957 43.7486 5.61957 27.9935C5.61957 15.908 12.9903 5.57778 23.3984 1.42123L22.9472 0Z" fill="white"/>
<path d="M33.858 36.7433C32.4484 36.7433 31.2022 36.4981 30.1194 36.0078C29.0571 35.5175 28.2195 34.8331 27.6066 33.9546C26.9937 33.0762 26.6668 32.0956 26.626 31.0128H28.8937C28.9958 32.0547 29.4555 32.974 30.2726 33.7708C31.0898 34.5471 32.2849 34.9353 33.858 34.9353C35.3085 34.9353 36.4526 34.5675 37.2902 33.8321C38.1482 33.0762 38.5772 32.1262 38.5772 30.9822C38.5772 30.0628 38.3423 29.3274 37.8724 28.7758C37.4025 28.2037 36.8203 27.7849 36.1257 27.5194C35.4311 27.2333 34.4709 26.9269 33.2451 26.6C31.8151 26.2119 30.6812 25.8339 29.8436 25.4662C29.006 25.0985 28.291 24.5264 27.6985 23.7501C27.1061 22.9738 26.8098 21.9217 26.8098 20.5938C26.8098 19.4906 27.0959 18.5099 27.6679 17.6519C28.2399 16.7734 29.0469 16.0891 30.0888 15.5987C31.1307 15.1084 32.3258 14.8633 33.6742 14.8633C35.6558 14.8633 37.2493 15.3536 38.4547 16.3342C39.6804 17.2944 40.3852 18.5406 40.5691 20.0728H38.2401C38.0971 19.1943 37.617 18.418 36.7999 17.7438C35.9827 17.0492 34.8795 16.7019 33.4903 16.7019C32.2032 16.7019 31.1307 17.0492 30.2726 17.7438C29.4146 18.418 28.9856 19.3476 28.9856 20.5325C28.9856 21.4314 29.2205 22.1566 29.6904 22.7082C30.1603 23.2598 30.7425 23.6786 31.4371 23.9646C32.1522 24.2506 33.1123 24.5571 34.3177 24.8839C35.7069 25.2721 36.8305 25.6603 37.6886 26.0484C38.5466 26.4162 39.2718 26.9882 39.8643 27.7645C40.4567 28.5408 40.753 29.5827 40.753 30.8902C40.753 31.8913 40.4874 32.8412 39.9562 33.7401C39.4251 34.639 38.6385 35.3643 37.5966 35.9159C36.5547 36.4675 35.3085 36.7433 33.858 36.7433Z" fill="white"/>
</svg>
