<svg width="104" height="60" viewBox="0 0 104 60" fill="none" xmlns="http://www.w3.org/2000/svg">
<g clip-path="url(#clip0_262_5881)">
<path d="M47.3372 23.7211C47.3372 24.663 46.5557 25.4265 45.5915 25.4265C44.6274 25.4265 43.8457 24.663 43.8457 23.7211C43.8457 22.7791 44.6274 22.0156 45.5915 22.0156C46.5557 22.0156 47.3372 22.7791 47.3372 23.7211Z" fill="black"/>
<path d="M66.5404 23.7211C66.5404 24.663 65.7588 25.4265 64.7946 25.4265C63.8305 25.4265 63.0488 24.663 63.0488 23.7211C63.0488 22.7791 63.8305 22.0156 64.7946 22.0156C65.7588 22.0156 66.5404 22.7791 66.5404 23.7211Z" fill="black"/>
<path fill-rule="evenodd" clip-rule="evenodd" d="M61.9329 8.37305C62.5229 8.37305 63.1054 8.40483 63.6786 8.46673V10.184C63.1067 10.1144 62.5241 10.0785 61.9329 10.0785C58.8445 10.0785 55.9917 11.0569 53.6794 12.7145C54.0999 13.1137 54.4975 13.5357 54.8703 13.9785C56.8646 12.5966 59.3025 11.7839 61.9329 11.7839C62.5256 11.7839 63.1085 11.8251 63.6786 11.9048V13.6308C63.1108 13.5378 62.5277 13.4893 61.9329 13.4893C59.6871 13.4893 57.608 14.1789 55.903 15.3537C56.2217 15.8315 56.5139 16.3277 56.7775 16.8403C58.2218 15.8061 60.0049 15.1948 61.9329 15.1948C62.5307 15.1948 63.1145 15.2535 63.6786 15.3653V17.1151C63.1206 16.9748 62.5357 16.9002 61.9329 16.9002C60.2459 16.9002 58.6998 17.4837 57.4925 18.4566C57.715 19.0518 57.9009 19.6642 58.0474 20.2912C59.0058 19.2561 60.3915 18.6056 61.9329 18.6056C62.5449 18.6056 63.1326 18.7082 63.6786 18.8967V20.7673C63.165 20.4771 62.5689 20.311 61.9329 20.311C60.0046 20.311 58.4414 21.8382 58.4414 23.7219C58.4414 25.6056 60.0046 27.1327 61.9329 27.1327C63.8612 27.1327 65.4244 25.6056 65.4244 23.7219L65.4243 23.7041V8.75339C72.4213 10.3044 77.6447 16.4172 77.6447 23.7219C77.6447 32.1988 70.6103 39.0707 61.9329 39.0707C58.317 39.0707 54.9863 37.8774 52.3311 35.872C49.6761 37.8771 46.3444 39.0707 42.7294 39.0707C42.1393 39.0707 41.5569 39.0389 40.9836 38.977V37.2597C41.5556 37.3294 42.1382 37.3653 42.7294 37.3653C45.8179 37.3653 48.6706 36.3868 50.9828 34.7292C50.5625 34.3301 50.1649 33.9081 49.7921 33.4653C47.7978 34.8471 45.3598 35.6599 42.7295 35.6599C42.1367 35.6599 41.5539 35.6187 40.9836 35.539V33.813C41.5515 33.906 42.1347 33.9544 42.7295 33.9544C44.9753 33.9544 47.0544 33.2649 48.7594 32.0901C48.4407 31.6123 48.1485 31.1161 47.8848 30.6035C46.4405 31.6376 44.6575 32.249 42.7295 32.249C42.1317 32.249 41.5478 32.1903 40.9836 32.0784V30.3286C41.5417 30.469 42.1267 30.5436 42.7295 30.5436C44.4165 30.5436 45.9626 29.9601 47.1698 28.9871C46.9473 28.3919 46.7615 27.7795 46.6149 27.1525C45.6566 28.1877 44.2708 28.8382 42.7295 28.8382C42.1173 28.8382 41.5297 28.7356 40.9836 28.547V26.6764C41.4972 26.9666 42.0935 27.1327 42.7295 27.1327C44.6578 27.1327 46.221 25.6056 46.221 23.7219C46.221 21.8382 44.6578 20.311 42.7295 20.311C40.8012 20.311 39.238 21.8382 39.238 23.7219L39.2379 38.6904C32.2409 37.1394 27.0176 31.0265 27.0176 23.7219C27.0176 15.245 34.0521 8.37305 42.7295 8.37305C46.3454 8.37305 49.676 9.56628 52.3312 11.5717C54.9862 9.56667 58.3178 8.37305 61.9329 8.37305ZM67.1701 11.0702V12.9327C71.2988 14.8487 74.1532 18.9597 74.1532 23.7219C74.1532 30.3151 68.682 35.6599 61.9329 35.6599C55.1838 35.6599 49.7125 30.3151 49.7125 23.7219C49.7125 19.9543 46.5861 16.9002 42.7295 16.9002C38.8728 16.9002 35.7464 19.9543 35.7464 23.7219C35.7464 25.452 36.4057 27.0316 37.4922 28.2341V23.7219C37.4922 20.8962 39.837 18.6056 42.7295 18.6056C45.622 18.6056 47.9668 20.8962 47.9668 23.7219C47.9668 31.257 54.2196 37.3653 61.9329 37.3653C69.6462 37.3653 75.8989 31.257 75.8989 23.7219C75.8989 17.9961 72.2884 13.0942 67.1701 11.0702ZM37.4922 30.5442L37.4921 32.5855C34.3613 30.8162 32.2549 27.5094 32.2549 23.7219C32.2549 18.0706 36.9446 13.4893 42.7295 13.4893C48.5144 13.4893 53.2041 18.0706 53.2041 23.7219C53.2041 28.4312 57.1121 32.249 61.9329 32.249C66.7536 32.249 70.6617 28.4312 70.6617 23.7219C70.6617 20.9321 69.2903 18.4553 67.1702 16.8996V14.8583C70.301 16.6275 72.4075 19.9344 72.4075 23.7219C72.4075 29.3732 67.7178 33.9544 61.9329 33.9544C56.1479 33.9544 51.4583 29.3732 51.4583 23.7219C51.4583 19.0125 47.5502 15.1948 42.7295 15.1948C37.9087 15.1948 34.0007 19.0125 34.0007 23.7219C34.0007 26.5116 35.3721 28.9885 37.4922 30.5442ZM30.5092 23.7219C30.5092 28.4841 33.3635 32.595 37.4921 34.511V36.3736C32.3739 34.3496 28.7634 29.4477 28.7634 23.7219C28.7634 16.1868 35.0162 10.0785 42.7295 10.0785C50.4428 10.0785 56.6956 16.1868 56.6956 23.7219C56.6956 26.5475 59.0404 28.8382 61.9329 28.8382C64.8253 28.8382 67.1702 26.5475 67.1702 23.7219V19.2097C68.2566 20.4122 68.9159 21.9918 68.9159 23.7219C68.9159 27.4894 65.7895 30.5436 61.9329 30.5436C58.0762 30.5436 54.9498 27.4894 54.9498 23.7219C54.9498 17.1287 49.4786 11.7839 42.7295 11.7839C35.9804 11.7839 30.5092 17.1287 30.5092 23.7219Z" fill="black"/>
<path d="M26.2981 54.8345L25.5724 55.1354L23.3422 50.0732C23.1475 49.6218 23.0944 49.5776 22.8732 49.4537L22.59 49.2944V48.9846H25.4928V49.2944L25.2096 49.436C25.006 49.5422 24.9175 49.613 24.9175 49.7546C24.9175 49.8431 24.9441 49.9316 25.006 50.0732L26.2981 53.1884L27.4398 50.1351C27.5106 49.9581 27.546 49.8342 27.546 49.7369C27.546 49.5864 27.4752 49.5156 27.2539 49.4271L26.9265 49.2944V48.9846H29.077V49.2944L28.7142 49.4714C28.5195 49.5599 28.3779 49.7457 28.2186 50.144L26.2981 54.8345ZM30.4957 49.967C30.0001 49.967 29.6727 49.5864 29.6727 49.1351C29.6727 48.6306 30.0355 48.3032 30.4957 48.3032C30.9559 48.3032 31.3188 48.6218 31.3188 49.1351C31.3188 49.6307 30.9913 49.967 30.4957 49.967ZM31.956 55.0469H29.2744V54.746L29.5842 54.5778C29.8408 54.4274 29.9116 54.3212 29.9116 53.9849V52.2857C29.9116 51.8343 29.8408 51.7104 29.593 51.6131L29.3098 51.498V51.1971L31.0444 50.498L31.3188 50.6661V53.9849C31.3188 54.3212 31.3896 54.4274 31.6462 54.5778L31.956 54.746V55.0469ZM35.1931 55.0469H32.308V54.746L32.6177 54.5778C32.8744 54.4274 32.9452 54.3123 32.9452 53.9849V52.2857C32.9452 51.8343 32.8744 51.7104 32.6266 51.6131L32.3434 51.498V51.1971L33.9629 50.498L34.2373 50.6661V51.4715C34.4939 50.9316 35.0161 50.498 35.4409 50.498C35.7418 50.498 36.0427 50.613 36.2728 50.8343L36.1312 52.1175H35.7949C35.4851 51.7016 35.317 51.5777 35.0338 51.5777C34.8302 51.5777 34.6178 51.7281 34.3523 51.9759V53.9849C34.3523 54.2592 34.4674 54.392 34.8391 54.5778L35.1931 54.746V55.0469ZM38.8202 55.1354C37.413 55.1354 36.5634 54.2946 36.5634 52.8521C36.5634 51.4803 37.5369 50.498 38.8379 50.498C40.0946 50.498 40.8822 51.2679 40.8822 52.5335V52.7459H38.0945V52.7901C38.0945 53.7725 38.6078 54.2946 39.5016 54.2946C39.8379 54.2946 40.1211 54.1973 40.5017 53.9672L40.8114 54.3477C40.2716 54.8876 39.6344 55.1354 38.8202 55.1354ZM38.1122 52.1972L39.4751 52.1618C39.4751 51.4538 39.245 51.0555 38.8556 51.0555C38.4131 51.0555 38.183 51.383 38.1122 52.1972ZM44.0383 55.0469H41.3567V54.746L41.6665 54.5778C41.9231 54.4274 41.9939 54.3212 41.9939 53.9849V50.1971C41.9939 49.7546 41.9231 49.6395 41.6753 49.5333L41.3921 49.4094V49.1085L43.1267 48.4094L43.4011 48.5864V53.9849C43.4011 54.3212 43.4719 54.4274 43.7285 54.5778L44.0383 54.746V55.0469ZM47.0718 55.0469H44.3903V54.746L44.7 54.5778C44.9567 54.4274 45.0275 54.3212 45.0275 53.9849V50.1971C45.0275 49.7546 44.9567 49.6395 44.7089 49.5333L44.4257 49.4094V49.1085L46.1603 48.4094L46.4346 48.5864V53.9849C46.4346 54.3212 46.5054 54.4274 46.7621 54.5778L47.0718 54.746V55.0469ZM49.9638 55.1354C48.5389 55.1354 47.5654 54.215 47.5654 52.8078C47.5654 51.5246 48.6451 50.498 49.9638 50.498C51.3886 50.498 52.3533 51.4184 52.3533 52.8255C52.3533 54.1176 51.2736 55.1354 49.9638 55.1354ZM49.9638 54.5778C50.5036 54.5778 50.8222 53.9406 50.8222 52.8255C50.8222 51.7104 50.5036 51.0555 49.9638 51.0555C49.4151 51.0555 49.0965 51.6927 49.0965 52.8078C49.0965 53.9229 49.4151 54.5778 49.9638 54.5778ZM57.5085 55.1354C56.7032 55.1354 55.8713 54.923 55.3668 54.5867V52.8167H55.6943L55.9775 53.3565C56.3669 54.1088 56.8979 54.4893 57.5262 54.4893C58.0572 54.4893 58.4643 54.1619 58.4643 53.7371C58.4643 53.2946 58.1015 53.0025 56.8536 52.4273C55.827 51.9582 55.3757 51.4272 55.3757 50.6573C55.3757 49.613 56.2341 48.8961 57.4643 48.8961C58.0661 48.8961 58.8626 49.0554 59.2962 49.2855L59.4024 50.8608H59.075L58.8095 50.4714C58.367 49.8431 57.9156 49.5422 57.3935 49.5422C56.9421 49.5422 56.6058 49.8077 56.6058 50.144C56.6058 50.5068 56.9333 50.7635 58.0395 51.321C59.3228 51.9759 59.7741 52.4715 59.7741 53.2769C59.7741 54.3743 58.8537 55.1354 57.5085 55.1354ZM62.0618 55.1354C61.1945 55.1354 60.9113 54.7194 60.9113 53.4627V51.2679H60.2298V50.7192L61.0529 50.5599L62.0087 49.3032L62.3184 49.4802V50.5865H63.4424V51.2679H62.3184V53.1972C62.3184 54.0645 62.4777 54.3566 62.8937 54.3566C63.0353 54.3566 63.2211 54.3212 63.3893 54.2592L63.5132 54.7194C63.1857 54.9584 62.6105 55.1354 62.0618 55.1354ZM65.8726 55.1354C64.8726 55.1354 64.3416 54.5159 64.3416 53.3388V52.2857C64.3416 51.852 64.2796 51.7281 64.0318 51.6219L63.7486 51.498V51.1971L65.4744 50.498L65.7576 50.675V53.0645C65.7576 53.8256 65.9788 54.1176 66.5364 54.1176C66.7488 54.1176 67.0231 53.9849 67.2001 53.799V52.2857C67.2001 51.852 67.1382 51.7281 66.8904 51.6219L66.6072 51.498V51.1971L68.3418 50.498L68.6161 50.675V53.7194C68.6161 54.0026 68.6781 54.0645 69.0232 54.1442L69.3064 54.2061L69.3684 54.5336L67.7665 55.1354H67.5276L67.2444 54.4008C66.8904 54.861 66.3771 55.1354 65.8726 55.1354ZM71.574 55.1354C70.4412 55.1354 69.7509 54.1619 69.7509 53.0202C69.7509 51.4361 70.751 50.498 72.3351 50.498C72.5121 50.498 72.7157 50.5334 72.9104 50.5865V50.1263C72.9104 49.7192 72.8307 49.6307 72.5918 49.5245L72.3086 49.4006V49.0997L74.0432 48.4094L74.3175 48.5775V53.7194C74.3175 54.0026 74.3883 54.0734 74.7246 54.1442L75.0167 54.2061L75.0698 54.5336L73.4768 55.1354H73.2378L72.9546 54.4008C72.4944 54.8787 72.0077 55.1354 71.574 55.1354ZM72.2378 54.1265C72.5387 54.1265 72.7688 53.9583 72.9104 53.8167V51.8874C72.8838 51.3387 72.6183 51.0555 72.2112 51.0555C71.6537 51.0555 71.2643 51.6927 71.2643 52.6308C71.2643 53.5512 71.5917 54.1265 72.2378 54.1265ZM76.5261 49.967C76.0305 49.967 75.703 49.5864 75.703 49.1351C75.703 48.6306 76.0659 48.3032 76.5261 48.3032C76.9863 48.3032 77.3491 48.6218 77.3491 49.1351C77.3491 49.6307 77.0217 49.967 76.5261 49.967ZM77.9863 55.0469H75.3048V54.746L75.6145 54.5778C75.8712 54.4274 75.942 54.3212 75.942 53.9849V52.2857C75.942 51.8343 75.8712 51.7104 75.6234 51.6131L75.3402 51.498V51.1971L77.0748 50.498L77.3491 50.6661V53.9849C77.3491 54.3212 77.4199 54.4274 77.6766 54.5778L77.9863 54.746V55.0469ZM80.8783 55.1354C79.4534 55.1354 78.4799 54.215 78.4799 52.8078C78.4799 51.5246 79.5596 50.498 80.8783 50.498C82.3031 50.498 83.2678 51.4184 83.2678 52.8255C83.2678 54.1176 82.1881 55.1354 80.8783 55.1354ZM80.8783 54.5778C81.4181 54.5778 81.7367 53.9406 81.7367 52.8255C81.7367 51.7104 81.4181 51.0555 80.8783 51.0555C80.3296 51.0555 80.011 51.6927 80.011 52.8078C80.011 53.9229 80.3296 54.5778 80.8783 54.5778Z" fill="#FF8368"/>
</g>
<defs>
<clipPath id="clip0_262_5881">
<rect width="103" height="60" fill="white" transform="translate(0.572266)"/>
</clipPath>
</defs>
</svg>
