<svg width="234" height="66" viewBox="0 0 234 66" fill="none" xmlns="http://www.w3.org/2000/svg">
<path d="M80.9757 34.2642C79.5157 34.2642 78.1957 34.0142 77.0157 33.5142C75.8557 33.0142 74.9357 32.2942 74.2557 31.3542C73.5757 30.4142 73.2257 29.3042 73.2057 28.0242H77.7057C77.7657 28.8842 78.0657 29.5642 78.6057 30.0642C79.1657 30.5642 79.9257 30.8142 80.8857 30.8142C81.8657 30.8142 82.6357 30.5842 83.1957 30.1242C83.7557 29.6442 84.0357 29.0242 84.0357 28.2642C84.0357 27.6442 83.8457 27.1342 83.4657 26.7342C83.0857 26.3342 82.6057 26.0242 82.0257 25.8042C81.4657 25.5642 80.6857 25.3042 79.6857 25.0242C78.3257 24.6242 77.2157 24.2342 76.3557 23.8542C75.5157 23.4542 74.7857 22.8642 74.1657 22.0842C73.5657 21.2842 73.2657 20.2242 73.2657 18.9042C73.2657 17.6642 73.5757 16.5842 74.1957 15.6642C74.8157 14.7442 75.6857 14.0442 76.8057 13.5642C77.9257 13.0642 79.2057 12.8142 80.6457 12.8142C82.8057 12.8142 84.5557 13.3442 85.8957 14.4042C87.2557 15.4442 88.0057 16.9042 88.1457 18.7842H83.5257C83.4857 18.0642 83.1757 17.4742 82.5957 17.0142C82.0357 16.5342 81.2857 16.2942 80.3457 16.2942C79.5257 16.2942 78.8657 16.5042 78.3657 16.9242C77.8857 17.3442 77.6457 17.9542 77.6457 18.7542C77.6457 19.3142 77.8257 19.7842 78.1857 20.1642C78.5657 20.5242 79.0257 20.8242 79.5657 21.0642C80.1257 21.2842 80.9057 21.5442 81.9057 21.8442C83.2657 22.2442 84.3757 22.6442 85.2357 23.0442C86.0957 23.4442 86.8357 24.0442 87.4557 24.8442C88.0757 25.6442 88.3857 26.6942 88.3857 27.9942C88.3857 29.1142 88.0957 30.1542 87.5157 31.1142C86.9357 32.0742 86.0857 32.8442 84.9657 33.4242C83.8457 33.9842 82.5157 34.2642 80.9757 34.2642ZM107.927 17.4342L97.6369 41.9142H93.1669L96.7669 33.6342L90.1069 17.4342H94.8169L99.1069 29.0442L103.457 17.4342H107.927ZM119.401 17.1942C121.381 17.1942 122.981 17.8242 124.201 19.0842C125.421 20.3242 126.031 22.0642 126.031 24.3042V34.0542H121.831V24.8742C121.831 23.5542 121.501 22.5442 120.841 21.8442C120.181 21.1242 119.281 20.7642 118.141 20.7642C116.981 20.7642 116.061 21.1242 115.381 21.8442C114.721 22.5442 114.391 23.5542 114.391 24.8742V34.0542H110.191V17.4342H114.391V19.5042C114.951 18.7842 115.661 18.2242 116.521 17.8242C117.401 17.4042 118.361 17.1942 119.401 17.1942ZM128.945 25.6842C128.945 24.0042 129.275 22.5142 129.935 21.2142C130.615 19.9142 131.535 18.9142 132.695 18.2142C133.855 17.5142 135.145 17.1642 136.565 17.1642C137.645 17.1642 138.675 17.4042 139.655 17.8842C140.635 18.3442 141.415 18.9642 141.995 19.7442V11.8542H146.255V34.0542H141.995V31.5942C141.475 32.4142 140.745 33.0742 139.805 33.5742C138.865 34.0742 137.775 34.3242 136.535 34.3242C135.135 34.3242 133.855 33.9642 132.695 33.2442C131.535 32.5242 130.615 31.5142 129.935 30.2142C129.275 28.8942 128.945 27.3842 128.945 25.6842ZM142.025 25.7442C142.025 24.7242 141.825 23.8542 141.425 23.1342C141.025 22.3942 140.485 21.8342 139.805 21.4542C139.125 21.0542 138.395 20.8542 137.615 20.8542C136.835 20.8542 136.115 21.0442 135.455 21.4242C134.795 21.8042 134.255 22.3642 133.835 23.1042C133.435 23.8242 133.235 24.6842 133.235 25.6842C133.235 26.6842 133.435 27.5642 133.835 28.3242C134.255 29.0642 134.795 29.6342 135.455 30.0342C136.135 30.4342 136.855 30.6342 137.615 30.6342C138.395 30.6342 139.125 30.4442 139.805 30.0642C140.485 29.6642 141.025 29.1042 141.425 28.3842C141.825 27.6442 142.025 26.7642 142.025 25.7442ZM152.487 15.4542C151.747 15.4542 151.127 15.2242 150.627 14.7642C150.147 14.2842 149.907 13.6942 149.907 12.9942C149.907 12.2942 150.147 11.7142 150.627 11.2542C151.127 10.7742 151.747 10.5342 152.487 10.5342C153.227 10.5342 153.837 10.7742 154.317 11.2542C154.817 11.7142 155.067 12.2942 155.067 12.9942C155.067 13.6942 154.817 14.2842 154.317 14.7642C153.837 15.2242 153.227 15.4542 152.487 15.4542ZM154.557 17.4342V34.0542H150.357V17.4342H154.557ZM157.627 25.7442C157.627 24.0242 157.977 22.5242 158.677 21.2442C159.377 19.9442 160.347 18.9442 161.587 18.2442C162.827 17.5242 164.247 17.1642 165.847 17.1642C167.907 17.1642 169.607 17.6842 170.947 18.7242C172.307 19.7442 173.217 21.1842 173.677 23.0442H169.147C168.907 22.3242 168.497 21.7642 167.917 21.3642C167.357 20.9442 166.657 20.7342 165.817 20.7342C164.617 20.7342 163.667 21.1742 162.967 22.0542C162.267 22.9142 161.917 24.1442 161.917 25.7442C161.917 27.3242 162.267 28.5542 162.967 29.4342C163.667 30.2942 164.617 30.7242 165.817 30.7242C167.517 30.7242 168.627 29.9642 169.147 28.4442H173.677C173.217 30.2442 172.307 31.6742 170.947 32.7342C169.587 33.7942 167.887 34.3242 165.847 34.3242C164.247 34.3242 162.827 33.9742 161.587 33.2742C160.347 32.5542 159.377 31.5542 158.677 30.2742C157.977 28.9742 157.627 27.4642 157.627 25.7442ZM175.673 25.6842C175.673 24.0042 176.003 22.5142 176.663 21.2142C177.343 19.9142 178.253 18.9142 179.393 18.2142C180.553 17.5142 181.843 17.1642 183.263 17.1642C184.503 17.1642 185.583 17.4142 186.503 17.9142C187.443 18.4142 188.193 19.0442 188.753 19.8042V17.4342H192.983V34.0542H188.753V31.6242C188.213 32.4042 187.463 33.0542 186.503 33.5742C185.563 34.0742 184.473 34.3242 183.233 34.3242C181.833 34.3242 180.553 33.9642 179.393 33.2442C178.253 32.5242 177.343 31.5142 176.663 30.2142C176.003 28.8942 175.673 27.3842 175.673 25.6842ZM188.753 25.7442C188.753 24.7242 188.553 23.8542 188.153 23.1342C187.753 22.3942 187.213 21.8342 186.533 21.4542C185.853 21.0542 185.123 20.8542 184.343 20.8542C183.563 20.8542 182.843 21.0442 182.183 21.4242C181.523 21.8042 180.983 22.3642 180.563 23.1042C180.163 23.8242 179.963 24.6842 179.963 25.6842C179.963 26.6842 180.163 27.5642 180.563 28.3242C180.983 29.0642 181.523 29.6342 182.183 30.0342C182.863 30.4342 183.583 30.6342 184.343 30.6342C185.123 30.6342 185.853 30.4442 186.533 30.0642C187.213 29.6642 187.753 29.1042 188.153 28.3842C188.553 27.6442 188.753 26.7642 188.753 25.7442ZM201.976 20.8842V28.9242C201.976 29.4842 202.106 29.8942 202.366 30.1542C202.646 30.3942 203.106 30.5142 203.746 30.5142H205.696V34.0542H203.056C199.516 34.0542 197.746 32.3342 197.746 28.8942V20.8842H195.766V17.4342H197.746V13.3242H201.976V17.4342H205.696V20.8842H201.976ZM224.166 25.3842C224.166 25.9842 224.126 26.5242 224.046 27.0042H211.896C211.996 28.2042 212.416 29.1442 213.156 29.8242C213.896 30.5042 214.806 30.8442 215.886 30.8442C217.446 30.8442 218.556 30.1742 219.216 28.8342H223.746C223.266 30.4342 222.346 31.7542 220.986 32.7942C219.626 33.8142 217.956 34.3242 215.976 34.3242C214.376 34.3242 212.936 33.9742 211.656 33.2742C210.396 32.5542 209.406 31.5442 208.686 30.2442C207.986 28.9442 207.636 27.4442 207.636 25.7442C207.636 24.0242 207.986 22.5142 208.686 21.2142C209.386 19.9142 210.366 18.9142 211.626 18.2142C212.886 17.5142 214.336 17.1642 215.976 17.1642C217.556 17.1642 218.966 17.5042 220.206 18.1842C221.466 18.8642 222.436 19.8342 223.116 21.0942C223.816 22.3342 224.166 23.7642 224.166 25.3842ZM219.816 24.1842C219.796 23.1042 219.406 22.2442 218.646 21.6042C217.886 20.9442 216.956 20.6142 215.856 20.6142C214.816 20.6142 213.936 20.9342 213.216 21.5742C212.516 22.1942 212.086 23.0642 211.926 24.1842H219.816Z" fill="#263538"/>
<path fill-rule="evenodd" clip-rule="evenodd" d="M33.5314 52.1675C47.494 52.1675 58.8129 40.8486 58.8129 26.886C58.8129 12.9234 47.494 1.60449 33.5314 1.60449C19.5688 1.60449 8.24988 12.9234 8.24988 26.886C8.24988 40.8486 19.5688 52.1675 33.5314 52.1675ZM33.5817 45.5043C45.2321 45.5043 54.6766 35.8747 54.6766 23.9958C54.6766 12.117 45.2321 2.4873 33.5817 2.4873C21.9313 2.4873 12.4868 12.117 12.4868 23.9958C12.4868 35.8747 21.9313 45.5043 33.5817 45.5043Z" fill="#F2DEBA"/>
<path fill-rule="evenodd" clip-rule="evenodd" d="M22.9472 0C9.61489 4.43158 0 17.0063 0 31.8267C0 50.3456 15.0125 65.3582 33.5314 65.3582C36.9083 65.3582 40.1686 64.859 43.2425 63.9304L40.604 55.619C38.365 56.2076 36.0175 56.5207 33.5982 56.5207C18.146 56.5207 5.61957 43.7486 5.61957 27.9935C5.61957 15.908 12.9903 5.57778 23.3984 1.42123L22.9472 0Z" fill="#0E5E6F"/>
<path d="M33.858 36.7433C32.4484 36.7433 31.2022 36.4981 30.1194 36.0078C29.0571 35.5175 28.2195 34.8331 27.6066 33.9546C26.9937 33.0762 26.6668 32.0956 26.626 31.0128H28.8937C28.9958 32.0547 29.4555 32.974 30.2726 33.7708C31.0898 34.5471 32.2849 34.9353 33.858 34.9353C35.3085 34.9353 36.4526 34.5675 37.2902 33.8321C38.1482 33.0762 38.5772 32.1262 38.5772 30.9822C38.5772 30.0628 38.3423 29.3274 37.8724 28.7758C37.4025 28.2037 36.8203 27.7849 36.1257 27.5194C35.4311 27.2333 34.4709 26.9269 33.2451 26.6C31.8151 26.2119 30.6812 25.8339 29.8436 25.4662C29.006 25.0985 28.291 24.5264 27.6985 23.7501C27.1061 22.9738 26.8098 21.9217 26.8098 20.5938C26.8098 19.4906 27.0959 18.5099 27.6679 17.6519C28.2399 16.7734 29.0469 16.0891 30.0888 15.5987C31.1307 15.1084 32.3258 14.8633 33.6742 14.8633C35.6558 14.8633 37.2493 15.3536 38.4547 16.3342C39.6804 17.2944 40.3852 18.5406 40.5691 20.0728H38.2401C38.0971 19.1943 37.617 18.418 36.7999 17.7438C35.9827 17.0492 34.8795 16.7019 33.4903 16.7019C32.2032 16.7019 31.1307 17.0492 30.2726 17.7438C29.4146 18.418 28.9856 19.3476 28.9856 20.5325C28.9856 21.4314 29.2205 22.1566 29.6904 22.7082C30.1603 23.2598 30.7425 23.6786 31.4371 23.9646C32.1522 24.2506 33.1123 24.5571 34.3177 24.8839C35.7069 25.2721 36.8305 25.6603 37.6886 26.0484C38.5466 26.4162 39.2718 26.9882 39.8643 27.7645C40.4567 28.5408 40.753 29.5827 40.753 30.8902C40.753 31.8913 40.4874 32.8412 39.9562 33.7401C39.4251 34.639 38.6385 35.3643 37.5966 35.9159C36.5547 36.4675 35.3085 36.7433 33.858 36.7433Z" fill="#263538"/>
</svg>
