<svg width="89" height="60" viewBox="0 0 89 60" fill="none" xmlns="http://www.w3.org/2000/svg">
<path d="M40.975 30.8319C38.4702 35.3719 33.3703 37.5319 28.2135 37.5319H7.52344C29.0619 34.8202 44.0619 23.9733 45.985 8.86523C47.9081 23.9733 62.908 34.8202 84.4465 37.5319H63.7564C58.5997 37.5319 53.4997 35.3719 50.995 30.8319C48.2839 25.918 46.5567 20.3578 45.985 14.2887C45.4133 20.3578 43.6861 25.918 40.975 30.8319Z" fill="#FAE100"/>
<path d="M29.1415 29.2263C27.9333 29.9114 26.6624 30.555 25.3316 31.1544C24.5757 28.5244 24.2975 25.765 24.5194 23.0163C24.8128 19.3798 25.9723 15.8741 27.8951 12.8096C29.8179 9.74513 32.4446 7.21641 35.5426 5.44752C38.6406 3.67863 42.1143 2.72413 45.6559 2.66859C49.1975 2.61304 52.6978 3.45815 55.8466 5.12907C58.9955 6.79998 61.6957 9.24509 63.7081 12.2479C65.7205 15.2507 66.9831 18.7184 67.3839 22.3439C67.7117 25.3094 67.4548 28.3056 66.6359 31.1544C65.3052 30.555 64.0342 29.9114 62.826 29.2262C63.3354 27.1435 63.4781 24.9767 63.2408 22.83C62.9176 19.9064 61.8995 17.11 60.2767 14.6886C58.6538 12.2672 56.4764 10.2954 53.9372 8.94797C51.3979 7.60053 48.5753 6.91904 45.7194 6.96383C42.8634 7.00862 40.0622 7.77833 37.5641 9.20473C35.0658 10.6312 32.9476 12.6703 31.3971 15.1415C29.8465 17.6127 28.9115 20.4397 28.6749 23.3722C28.5158 25.3432 28.6755 27.3211 29.1415 29.2263Z" fill="#82E1F6"/>
<path d="M6.76341 52V46.424H7.77941V51.12H9.44341V52H6.76341ZM11.9222 52.104C11.5568 52.104 11.2235 52.0413 10.9222 51.916C10.6235 51.788 10.3848 51.572 10.2062 51.268C10.0275 50.9613 9.93816 50.5413 9.93816 50.008V46.424H10.9782V50.12C10.9782 50.4347 11.0288 50.672 11.1302 50.832C11.2342 50.9893 11.3582 51.096 11.5022 51.152C11.6462 51.2053 11.7808 51.232 11.9062 51.232C12.0368 51.232 12.1715 51.2053 12.3102 51.152C12.4515 51.0987 12.5702 50.9933 12.6662 50.836C12.7622 50.676 12.8102 50.4373 12.8102 50.12V46.424H13.8502V50.008C13.8502 50.5413 13.7635 50.9613 13.5902 51.268C13.4168 51.572 13.1835 51.788 12.8902 51.916C12.5995 52.0413 12.2768 52.104 11.9222 52.104ZM18.8149 52.112L16.1429 49.064L15.8949 48.744L15.9349 49.52V52H14.9509V46.328H15.0389L17.6709 49.4L17.9509 49.764L17.9109 49V46.424H18.8949V52.112H18.8149ZM20.066 52V46.424H22.978V47.296H21.066V48.6H22.586V49.448H21.066V51.096H23.138V52H20.066ZM23.7948 52L25.2628 49.128L23.8188 46.424H25.0188L26.0028 48.552L26.9548 46.424H28.1308L26.6748 49.228L28.1708 52H26.9388L25.9428 49.844L24.9868 52H23.7948ZM29.0113 52V46.424H30.0353V52H29.0113ZM30.5163 52L32.8763 46.328H32.9563L35.3243 52H34.2363L33.9243 51.192H31.9323L31.6363 52H30.5163ZM32.7803 48.896L32.2203 50.416H33.6283L33.0443 48.896L32.9083 48.448L32.7803 48.896ZM37.3628 52V46.424H38.8028C39.6108 46.424 40.2335 46.6507 40.6708 47.104C41.1108 47.5547 41.3308 48.2347 41.3308 49.144C41.3308 49.7253 41.2335 50.2307 41.0388 50.66C40.8442 51.0867 40.5575 51.4173 40.1788 51.652C39.8028 51.884 39.3415 52 38.7948 52H37.3628ZM38.7708 47.224H38.3948V51.12H38.7708C39.0642 51.12 39.3082 51.0653 39.5028 50.956C39.6975 50.844 39.8522 50.696 39.9668 50.512C40.0842 50.3253 40.1668 50.116 40.2148 49.884C40.2655 49.6493 40.2908 49.4107 40.2908 49.168C40.2908 48.832 40.2442 48.516 40.1508 48.22C40.0575 47.924 39.9002 47.684 39.6788 47.5C39.4575 47.316 39.1548 47.224 38.7708 47.224ZM42.191 52V46.424H45.103V47.296H43.191V48.6H44.711V49.448H43.191V51.096H45.263V52H42.191ZM47.5028 52.088C47.1108 52.088 46.7681 52.0227 46.4748 51.892C46.1814 51.7613 45.9668 51.624 45.8308 51.48L46.2388 50.64C46.2948 50.712 46.3828 50.7933 46.5028 50.884C46.6254 50.9747 46.7668 51.0547 46.9268 51.124C47.0894 51.1907 47.2574 51.224 47.4308 51.224C47.6308 51.224 47.8041 51.168 47.9508 51.056C48.1001 50.944 48.1748 50.7787 48.1748 50.56C48.1748 50.344 48.0974 50.1733 47.9428 50.048C47.7908 49.92 47.5828 49.776 47.3188 49.616C47.1028 49.4853 46.8908 49.3467 46.6828 49.2C46.4748 49.0507 46.3014 48.8693 46.1628 48.656C46.0268 48.44 45.9588 48.168 45.9588 47.84C45.9588 47.4 46.0988 47.0387 46.3788 46.756C46.6614 46.4707 47.0708 46.328 47.6068 46.328C47.8788 46.328 48.1094 46.36 48.2988 46.424C48.4908 46.488 48.6454 46.5613 48.7628 46.644C48.8828 46.7267 48.9721 46.7947 49.0308 46.848L48.5828 47.664C48.5454 47.6107 48.4828 47.5453 48.3948 47.468C48.3068 47.3907 48.1988 47.3227 48.0708 47.264C47.9428 47.2053 47.8014 47.176 47.6468 47.176C47.4308 47.176 47.2681 47.2387 47.1588 47.364C47.0521 47.4867 46.9988 47.632 46.9988 47.8C46.9988 48.016 47.0774 48.192 47.2348 48.328C47.3948 48.464 47.5881 48.6 47.8148 48.736C48.0654 48.8853 48.2974 49.036 48.5108 49.188C48.7241 49.3373 48.8961 49.5173 49.0268 49.728C49.1574 49.936 49.2228 50.2027 49.2228 50.528C49.2228 51.016 49.0694 51.3987 48.7628 51.676C48.4561 51.9507 48.0361 52.088 47.5028 52.088ZM50.1285 52V46.424H51.1525V52H50.1285ZM54.4015 52.144C53.9295 52.144 53.5189 52.0267 53.1695 51.792C52.8202 51.5573 52.5482 51.2173 52.3535 50.772C52.1615 50.3267 52.0655 49.7893 52.0655 49.16C52.0655 48.608 52.1709 48.12 52.3815 47.696C52.5922 47.2693 52.8829 46.9347 53.2535 46.692C53.6269 46.4493 54.0549 46.328 54.5375 46.328C54.8895 46.328 55.1709 46.356 55.3815 46.412C55.5949 46.4653 55.7602 46.5307 55.8775 46.608C55.9975 46.6853 56.0922 46.7573 56.1615 46.824L55.7215 47.712C55.6815 47.6587 55.6189 47.5973 55.5335 47.528C55.4482 47.4587 55.3269 47.3987 55.1695 47.348C55.0122 47.2973 54.8069 47.272 54.5535 47.272C54.2842 47.272 54.0429 47.3507 53.8295 47.508C53.6162 47.6653 53.4469 47.884 53.3215 48.164C53.1989 48.444 53.1375 48.768 53.1375 49.136C53.1375 49.8027 53.2549 50.3213 53.4895 50.692C53.7242 51.0627 54.0335 51.248 54.4175 51.248C54.8309 51.248 55.1229 51.1507 55.2935 50.956C55.4669 50.7587 55.5535 50.4747 55.5535 50.104C55.5535 50.04 55.5509 49.968 55.5455 49.888H54.4015V49.008H56.4895C56.5029 49.1307 56.5135 49.2627 56.5215 49.404C56.5322 49.5453 56.5375 49.672 56.5375 49.784C56.5375 50.0853 56.5082 50.3773 56.4495 50.66C56.3909 50.9427 56.2842 51.196 56.1295 51.42C55.9749 51.6413 55.7575 51.8173 55.4775 51.948C55.2002 52.0787 54.8415 52.144 54.4015 52.144ZM61.2368 52.112L58.5648 49.064L58.3168 48.744L58.3568 49.52V52H57.3728V46.328H57.4608L60.0928 49.4L60.3728 49.764L60.3328 49V46.424H61.3168V52.112H61.2368ZM63.8387 52.088C63.4467 52.088 63.1041 52.0227 62.8107 51.892C62.5174 51.7613 62.3027 51.624 62.1667 51.48L62.5747 50.64C62.6307 50.712 62.7187 50.7933 62.8387 50.884C62.9614 50.9747 63.1027 51.0547 63.2627 51.124C63.4254 51.1907 63.5934 51.224 63.7667 51.224C63.9667 51.224 64.1401 51.168 64.2867 51.056C64.4361 50.944 64.5107 50.7787 64.5107 50.56C64.5107 50.344 64.4334 50.1733 64.2787 50.048C64.1267 49.92 63.9187 49.776 63.6547 49.616C63.4387 49.4853 63.2267 49.3467 63.0187 49.2C62.8107 49.0507 62.6374 48.8693 62.4987 48.656C62.3627 48.44 62.2947 48.168 62.2947 47.84C62.2947 47.4 62.4347 47.0387 62.7147 46.756C62.9974 46.4707 63.4067 46.328 63.9427 46.328C64.2147 46.328 64.4454 46.36 64.6347 46.424C64.8267 46.488 64.9814 46.5613 65.0987 46.644C65.2187 46.7267 65.3081 46.7947 65.3667 46.848L64.9187 47.664C64.8814 47.6107 64.8187 47.5453 64.7307 47.468C64.6427 47.3907 64.5347 47.3227 64.4067 47.264C64.2787 47.2053 64.1374 47.176 63.9827 47.176C63.7667 47.176 63.6041 47.2387 63.4947 47.364C63.3881 47.4867 63.3347 47.632 63.3347 47.8C63.3347 48.016 63.4134 48.192 63.5707 48.328C63.7307 48.464 63.9241 48.6 64.1507 48.736C64.4014 48.8853 64.6334 49.036 64.8467 49.188C65.0601 49.3373 65.2321 49.5173 65.3627 49.728C65.4934 49.936 65.5587 50.2027 65.5587 50.528C65.5587 51.016 65.4054 51.3987 65.0987 51.676C64.7921 51.9507 64.3721 52.088 63.8387 52.088Z" fill="#2B1E18"/>
</svg>
