<svg width="90" height="60" viewBox="0 0 90 60" fill="none" xmlns="http://www.w3.org/2000/svg">
<g clip-path="url(#clip0_262_5908)">
<path d="M57.9374 34.2866C65.287 34.1695 71.1968 29.4716 71.1968 23.6963C71.1968 20.8875 69.77 18.1939 67.2301 16.2078L44.6781 -1.42773V9.53396C44.6781 11.3672 45.6094 13.1254 47.2672 14.4217L52.5501 18.553L52.5645 18.564L61.4227 25.491C61.7104 25.7159 61.7104 26.0807 61.4227 26.3056C61.1351 26.5306 60.6686 26.5306 60.381 26.3056L57.3276 23.9179H29.082L26.0287 26.3056C25.741 26.5306 25.2746 26.5306 24.9869 26.3056C24.6993 26.0807 24.6993 25.7159 24.9869 25.491L33.8451 18.564L33.8595 18.553L39.1425 14.4217C40.8003 13.1254 41.7315 11.3672 41.7315 9.53396V-1.42773L19.1795 16.2078C16.6397 18.1939 15.2129 20.8875 15.2129 23.6963C15.2129 29.4716 21.1226 34.1695 28.4723 34.2866H57.9374Z" fill="#FE430A"/>
<path d="M6.24852 51.1577L3.77852 44.2977L4.94852 44.1577L7.05852 50.2777L9.16852 44.1577L10.3385 44.2977L7.78852 51.3577C7.70852 51.3844 7.53518 51.4144 7.26852 51.4477C7.00852 51.4811 6.79185 51.4977 6.61852 51.4977C6.44518 51.4977 6.32185 51.3844 6.24852 51.1577ZM14.4883 50.2877L14.8583 50.9677C14.7449 51.0744 14.5049 51.1977 14.1383 51.3377C13.7716 51.4777 13.3783 51.5477 12.9583 51.5477C12.2116 51.5477 11.6083 51.3211 11.1483 50.8677C10.6949 50.4144 10.4683 49.7344 10.4683 48.8277C10.4683 48.3277 10.5483 47.8877 10.7083 47.5077C10.8683 47.1211 11.0749 46.8211 11.3283 46.6077C11.8483 46.1811 12.3916 45.9677 12.9583 45.9677C13.5316 45.9677 13.9849 46.1144 14.3183 46.4077C14.6583 46.6944 14.8283 47.0477 14.8283 47.4677C14.8283 48.0211 14.5649 48.4744 14.0383 48.8277C13.5116 49.1744 12.6683 49.3477 11.5083 49.3477C11.5083 49.6544 11.6349 49.9577 11.8883 50.2577C12.1483 50.5577 12.5283 50.7077 13.0283 50.7077C13.5349 50.7077 14.0216 50.5677 14.4883 50.2877ZM13.8583 47.5577C13.8583 47.3577 13.7816 47.1844 13.6283 47.0377C13.4816 46.8844 13.2716 46.8077 12.9983 46.8077C12.5583 46.8077 12.1949 46.9744 11.9083 47.3077C11.6283 47.6344 11.4849 48.0644 11.4783 48.5977C13.0649 48.5977 13.8583 48.2511 13.8583 47.5577ZM16.291 43.8877L17.371 43.7477V49.7777C17.371 50.3977 17.5477 50.7077 17.901 50.7077C17.9877 50.7077 18.1477 50.6844 18.381 50.6377L18.511 51.3777C18.5043 51.3777 18.4743 51.3877 18.421 51.4077C18.3743 51.4277 18.3177 51.4477 18.251 51.4677C18.0843 51.5211 17.881 51.5477 17.641 51.5477C17.181 51.5477 16.841 51.3944 16.621 51.0877C16.401 50.7744 16.291 50.3444 16.291 49.7977V43.8877ZM19.8534 45.0177L20.7034 44.9077V46.2777H22.2534L22.1334 46.9977H20.7034V49.6777C20.7034 50.0377 20.7568 50.3011 20.8634 50.4677C20.9768 50.6277 21.1501 50.7077 21.3834 50.7077C21.6168 50.7077 21.8801 50.6811 22.1734 50.6277L22.3034 51.3577C21.8901 51.4844 21.4901 51.5477 21.1034 51.5477C20.5634 51.5477 20.1801 51.4044 19.9534 51.1177C19.7334 50.8311 19.6234 50.4244 19.6234 49.8977V46.9977H18.8734V46.3777L19.6234 46.2777L19.8534 45.0177ZM23.7031 47.7877C23.7031 47.1877 23.6431 46.6477 23.5231 46.1677L24.3631 46.0577L24.6131 46.7077C25.0331 46.2144 25.5065 45.9677 26.0331 45.9677C26.3865 45.9677 26.6598 46.0511 26.8531 46.2177C27.0531 46.3844 27.1531 46.6211 27.1531 46.9277C27.1531 47.2344 27.1031 47.5044 27.0031 47.7377L26.1431 47.6277C26.1431 47.3277 26.1131 47.1177 26.0531 46.9977C25.9998 46.8711 25.8831 46.8077 25.7031 46.8077C25.5298 46.8077 25.3565 46.8777 25.1831 47.0177C25.0165 47.1577 24.8831 47.3144 24.7831 47.4877V51.4277H23.7031V47.7877ZM28.7848 43.8277C28.9515 43.8277 29.0915 43.8811 29.2048 43.9877C29.3182 44.0877 29.3748 44.2411 29.3748 44.4477C29.3748 44.8811 29.1482 45.0977 28.6948 45.0977C28.5348 45.0977 28.4015 45.0477 28.2948 44.9477C28.1882 44.8411 28.1348 44.6877 28.1348 44.4877C28.1348 44.0477 28.3515 43.8277 28.7848 43.8277ZM28.2148 51.4277V46.1577L29.2948 46.0177V51.4277H28.2148ZM35.321 51.4277H34.161L32.851 49.5977L31.601 51.4277H30.441L32.261 48.7777L30.441 46.2277L31.491 46.0377L32.931 48.0677L34.311 46.0377L35.361 46.2277L33.521 48.8977L35.321 51.4277ZM41.956 51.5477C41.1093 51.5477 40.406 51.2411 39.846 50.6277C39.2927 50.0077 39.016 49.1077 39.016 47.9277C39.016 46.7411 39.2993 45.8077 39.866 45.1277C40.4327 44.4477 41.2827 44.1077 42.416 44.1077C43.2693 44.1077 43.9727 44.4144 44.526 45.0277C45.0793 45.6344 45.356 46.5311 45.356 47.7177C45.356 48.8977 45.0727 49.8311 44.506 50.5177C43.9393 51.2044 43.0893 51.5477 41.956 51.5477ZM42.146 50.5877C42.8993 50.5877 43.426 50.3444 43.726 49.8577C44.0327 49.3644 44.186 48.6444 44.186 47.6977C44.186 46.7511 44.0127 46.0777 43.666 45.6777C43.326 45.2711 42.8493 45.0677 42.236 45.0677C41.4693 45.0677 40.936 45.3311 40.636 45.8577C40.3627 46.3444 40.226 47.0511 40.226 47.9777C40.226 48.8977 40.396 49.5644 40.736 49.9777C41.076 50.3844 41.546 50.5877 42.146 50.5877ZM46.9551 47.7877C46.9551 47.1877 46.8951 46.6477 46.7751 46.1677L47.6151 46.0577L47.8051 46.5577C48.3651 46.1644 48.9384 45.9677 49.5251 45.9677C50.7384 45.9677 51.3451 46.6211 51.3451 47.9277V51.4277H50.2651V48.1277C50.2651 47.2477 49.9151 46.8077 49.2151 46.8077C48.8084 46.8077 48.4151 46.9511 48.0351 47.2377V51.4277H46.9551V47.7877ZM56.6465 50.2877L57.0165 50.9677C56.9032 51.0744 56.6632 51.1977 56.2965 51.3377C55.9298 51.4777 55.5365 51.5477 55.1165 51.5477C54.3698 51.5477 53.7665 51.3211 53.3065 50.8677C52.8532 50.4144 52.6265 49.7344 52.6265 48.8277C52.6265 48.3277 52.7065 47.8877 52.8665 47.5077C53.0265 47.1211 53.2332 46.8211 53.4865 46.6077C54.0065 46.1811 54.5498 45.9677 55.1165 45.9677C55.6898 45.9677 56.1432 46.1144 56.4765 46.4077C56.8165 46.6944 56.9865 47.0477 56.9865 47.4677C56.9865 48.0211 56.7232 48.4744 56.1965 48.8277C55.6698 49.1744 54.8265 49.3477 53.6665 49.3477C53.6665 49.6544 53.7932 49.9577 54.0465 50.2577C54.3065 50.5577 54.6865 50.7077 55.1865 50.7077C55.6932 50.7077 56.1798 50.5677 56.6465 50.2877ZM56.0165 47.5577C56.0165 47.3577 55.9398 47.1844 55.7865 47.0377C55.6398 46.8844 55.4298 46.8077 55.1565 46.8077C54.7165 46.8077 54.3532 46.9744 54.0665 47.3077C53.7865 47.6344 53.6432 48.0644 53.6365 48.5977C55.2232 48.5977 56.0165 48.2511 56.0165 47.5577Z" fill="#3A2E2E"/>
</g>
<defs>
<clipPath id="clip0_262_5908">
<rect width="89" height="60" fill="white" transform="translate(0.857422)"/>
</clipPath>
</defs>
</svg>
