<svg width="24" height="18" viewBox="0 0 24 18" fill="none" xmlns="http://www.w3.org/2000/svg">
<path d="M23.7602 13.8983V4.10148L16.0466 8.99988L23.7602 13.8983ZM0.427434 16.6991C0.768234 17.4623 1.54343 17.9927 2.44583 17.9927H21.5546C22.4522 17.9927 23.2274 17.4647 23.5706 16.7087C23.693 16.4399 23.7602 16.1399 23.7602 15.8255L14.5274 9.96228L12.0002 11.5703L9.47063 9.96468L0.240234 15.8255C0.240234 16.1351 0.307434 16.4303 0.427434 16.6991ZM0.240234 4.10148V13.8959L7.95383 8.99988L0.240234 4.10148ZM2.44583 0.00708008C1.54343 0.00708008 0.768234 0.53988 0.427434 1.30068C0.307434 1.56708 0.240234 1.86228 0.240234 2.17428L12.0002 9.64068L23.7602 2.17428C23.7602 1.85988 23.693 1.55988 23.5706 1.29108C23.2274 0.53508 22.4522 0.00708008 21.5546 0.00708008H2.44583Z" fill="#0E5E6F"/>
</svg>
