<svg width="40" height="40" viewBox="0 0 40 40" fill="none" xmlns="http://www.w3.org/2000/svg">
<path d="M15.7443 0.461979C12.4971 0.814377 9.2655 2.16198 6.7075 4.22998C5.8423 4.93438 4.5019 6.32838 3.8203 7.23958C0.672702 11.4824 -0.361298 16.7668 0.963502 21.8672C2.5027 27.7792 7.0979 32.4204 13.0175 34.044C15.5755 34.7408 18.5087 34.8252 21.1355 34.2584C23.6091 33.73 26.2971 32.4432 28.2579 30.858L28.7479 30.4596L33.3123 35.024L37.8767 39.5884L38.7419 38.7304L39.5995 37.8652L35.0355 33.3012L30.4711 28.7368L30.8695 28.2464C32.8223 25.834 34.1779 22.6176 34.5455 19.4852C34.6911 18.2904 34.6603 16.2916 34.4767 15.0356C33.3815 7.57638 27.5383 1.70237 20.0715 0.569176C19.0907 0.415974 16.6863 0.362377 15.7443 0.461979ZM19.2287 2.94317C22.5755 3.34158 25.5391 4.78878 27.9515 7.20118C32.3243 11.582 33.4427 18.3368 30.7239 23.9272C29.2535 26.9444 26.8027 29.3648 23.7623 30.7968C18.7919 33.148 12.8339 32.4664 8.4687 29.0584C3.0619 24.8308 1.3235 17.3564 4.2951 11.1836C7.0443 5.50117 13.0103 2.20037 19.2287 2.94317Z" fill="#3A5358"/>
<path d="M24.6046 13.8411L20.9822 14.8059L21.9242 15.7479L22.8662 16.6899L20.6454 18.9107L18.4246 21.1319L15.1926 17.8999L11.953 14.6603L9.2574 17.3639L6.5542 20.0595L7.4194 20.9171L8.277 21.7823L10.0922 19.9599L11.915 18.1447L15.147 21.3767L18.3866 24.6163L21.4878 21.5147L24.5894 18.4131L25.493 19.3167L26.3966 20.2203L27.3694 16.6287C27.9054 14.6527 28.3422 12.9987 28.3422 12.9527C28.3422 12.8991 28.3194 12.8607 28.2886 12.8683C28.2502 12.8683 26.5958 13.3051 24.6046 13.8411Z" fill="#3A5358"/>
</svg>
