<svg width="47" height="47" viewBox="0 0 47 47" fill="none" xmlns="http://www.w3.org/2000/svg">
<path d="M18.8996 0.562603C17.1432 0.814995 15.8733 2.33685 15.8733 4.17455C15.8733 4.7691 16.1163 5.21936 17.1973 6.63359C18.7464 8.66024 19.5304 9.96636 19.7014 10.795L19.7555 11.0831L18.8996 11.4882C14.5399 13.5238 12.4771 17.6762 12.0898 25.2249L11.9817 27.1524L11.6663 27.6567C11.4952 27.9359 11.3331 28.1793 11.3152 28.1972C11.2974 28.2151 11.0812 28.044 10.8288 27.8099C10.5764 27.5759 10.2253 27.3235 10.0453 27.2516C9.68479 27.0988 1.83015 25.5041 1.44287 25.5041C1.06452 25.5041 0.758551 25.6841 0.605331 25.9995C0.487831 26.2608 0.469971 27.2426 0.469971 34.1065C0.469971 40.8534 0.487831 41.9433 0.604861 42.1684C0.892971 42.7178 0.821061 42.7089 4.48706 42.7089C8.14413 42.7089 8.31521 42.6911 9.05405 42.1863C9.39621 41.9428 9.93671 41.2853 10.0359 40.9882C10.0537 40.9342 10.6483 41.1593 11.3509 41.4926C16.8006 43.9967 21.3944 45.6901 24.4301 46.3204C25.6822 46.5817 27.0424 46.5817 28.2672 46.3298C30.7262 45.8072 34.4195 44.3572 39.5359 41.9071C44.1208 39.7094 46.1925 38.6735 46.3636 38.4752C46.5079 38.313 46.5436 38.1598 46.5257 37.7363C46.499 36.7277 45.7601 35.6378 44.6974 35.0432C44.391 34.8721 44.3464 34.7908 44.1569 34.1154C43.7335 32.5663 42.5627 29.9898 41.4187 28.0896L40.8331 27.1077L40.7339 25.2794C40.6888 24.2703 40.5986 23.1085 40.545 22.6944C39.8151 16.7315 37.7438 13.2545 33.8522 11.453C33.1044 11.1108 33.0776 11.0836 33.1317 10.8406C33.2576 10.3363 33.5011 10.0298 34.8791 8.61559C36.6177 6.84086 36.8969 6.38168 36.9058 5.319C36.9058 4.72445 36.8785 4.58957 36.6534 4.25634C36.0137 3.29237 34.4016 3.12128 31.9426 3.75202C31.474 3.87798 31.0778 3.97715 31.0599 3.97715C31.0331 3.97715 30.934 3.71583 30.8259 3.40046C30.4024 2.12159 29.547 1.09464 28.6009 0.725224C28.2136 0.580933 27.8804 0.526886 27.3131 0.526886C25.9529 0.517956 25.0524 0.914162 24.1335 1.90492C23.8633 2.20196 23.593 2.44542 23.5301 2.44542C23.476 2.44542 23.1066 2.13898 22.7104 1.76064C21.9175 1.00394 21.3502 0.697964 20.4675 0.562603C19.8091 0.454033 19.6469 0.454033 18.8996 0.562603ZM20.4398 2.45388C20.7552 2.53473 21.0165 2.72413 21.6289 3.29142C22.4754 4.08431 22.8091 4.24599 23.5836 4.24599C24.2139 4.24599 24.8446 3.92169 25.3762 3.31821C25.9797 2.65175 26.3759 2.43555 27.0786 2.3815C27.565 2.33638 27.7093 2.36364 28.0242 2.54366C28.6817 2.91307 29.1052 3.75061 29.2941 5.03888C29.3933 5.7326 29.5555 6.00285 29.9517 6.12881C30.213 6.21905 30.3662 6.19179 31.0867 5.95773C32.2128 5.57938 33.5815 5.26401 34.3382 5.18317C34.8697 5.12912 34.9778 5.14698 35.0225 5.27341C35.1395 5.57985 34.8063 6.03904 33.5453 7.30005C32.1851 8.66023 31.6625 9.35395 31.4016 10.1196C31.2573 10.552 31.2484 10.5698 30.9692 10.5158C29.3209 10.2094 28.6902 10.1553 26.4563 10.1553C24.5735 10.1553 23.8981 10.1821 23.0333 10.3264C21.448 10.5698 21.5471 10.5877 21.4028 10.0199C21.1237 8.9568 20.2137 7.46173 18.5565 5.34485C17.6649 4.2098 17.6019 4.00253 17.953 3.28202C18.3408 2.49007 19.2958 2.17471 20.4398 2.45388ZM29.9249 12.2181C35.7886 13.2808 38.3111 16.7579 38.8422 24.5133C38.8873 25.2338 38.9324 26.2246 38.9324 26.7294V27.6393L39.3108 28.216C39.8423 29.0357 40.8693 30.8912 41.2476 31.702C41.6439 32.5757 42.1754 33.927 42.1754 34.0802C42.1754 34.1704 41.9324 34.1883 41.1034 34.1704C39.7521 34.1253 38.4554 34.3415 35.5997 35.0714C34.4378 35.3685 33.4019 35.6298 33.2938 35.657C33.1317 35.6932 33.0866 35.6392 32.9963 35.2698C32.7082 34.1347 31.6991 33.1618 30.096 32.4953L29.4925 32.243L30.0508 31.6846C31.6813 30.081 31.5191 27.8564 29.6814 26.6133C28.8528 26.0639 28.4472 25.92 25.9162 25.3344C24.8893 25.1004 24.0066 24.659 23.7364 24.2534C23.4934 23.8929 23.4572 23.2895 23.6645 22.9022C23.7364 22.7579 23.9615 22.497 24.1688 22.3166C25.4387 21.2356 27.862 21.362 28.9158 22.5779C29.0779 22.749 29.2222 23.0013 29.249 23.1184C29.2763 23.2443 29.312 23.4516 29.3393 23.5776C29.4201 23.9287 29.8078 24.244 30.1679 24.244C31.1859 24.244 31.4378 23.2984 30.7803 22.0012C30.3117 21.0734 29.1047 20.1997 27.8526 19.8932L27.3573 19.7673L27.3121 19.0378C27.276 18.4344 27.2308 18.2722 27.0508 18.0833C26.7627 17.7768 26.4022 17.7138 26.0149 17.8943C25.6187 18.0833 25.5736 18.1824 25.5196 19.0562L25.4655 19.7677L24.9701 19.8937C23.6461 20.2269 22.5022 21.0917 21.9795 22.1544C21.7093 22.6949 21.6825 22.8298 21.6825 23.5686C21.6825 24.2713 21.7187 24.4424 21.9349 24.8926C22.5205 26.0817 23.8445 26.8295 26.1865 27.3065C28.5196 27.7751 29.3754 28.3603 29.2763 29.3872C29.1682 30.441 27.9523 31.2155 26.4116 31.2155C24.8893 31.2155 23.6645 30.441 23.484 29.3778C23.3759 28.7382 22.6371 28.3598 22.0787 28.6573C21.8625 28.7744 21.6374 29.2068 21.6374 29.5221C21.6374 29.6753 21.6012 29.7383 21.5293 29.7111C21.4663 29.6843 20.9436 29.4681 20.3764 29.2246C18.6289 28.4679 18.4216 28.4317 16.4128 28.4411C15.2867 28.4501 14.4041 28.4952 13.9627 28.5854C13.5755 28.6573 13.2601 28.6935 13.2601 28.6757C13.2601 28.6578 13.3954 28.4143 13.5665 28.1352L13.873 27.6219L13.927 25.8655C14.1794 17.4163 16.6474 13.4801 22.403 12.3182C23.7091 12.0569 24.4475 12.0029 26.7716 12.0391C28.4383 12.056 29.3031 12.11 29.9249 12.2181ZM5.85664 28.2517C7.69434 28.6211 9.27965 28.9633 9.37882 29.0173C9.658 29.1616 9.83801 29.477 9.83801 29.8281C9.83801 30.3324 8.41485 40.1686 8.31568 40.358C8.07269 40.7993 7.95519 40.8172 5.06375 40.8172H2.36125V34.1967C2.36125 30.558 2.39744 27.5763 2.43316 27.5763C2.46982 27.5759 4.01001 27.8823 5.85664 28.2517ZM17.5846 30.2784C18.4583 30.4226 18.8996 30.5848 20.8722 31.4942C22.9891 32.4671 23.8717 32.7731 25.8265 33.2055C28.592 33.809 30.267 34.4576 30.8527 35.1424C31.9877 36.4664 30.6275 37.2231 27.5829 36.9618C25.5652 36.7907 23.3942 36.3493 20.3138 35.4935L18.6745 35.0338L18.3323 35.196C18.071 35.3313 17.9629 35.4573 17.8637 35.7365C17.7467 36.0786 17.7467 36.1327 17.9089 36.4119C18.1429 36.817 18.2693 36.8715 20.2057 37.3937C22.2686 37.961 24.4574 38.4296 26.0878 38.6636C27.9344 38.9339 30.1411 38.8798 31.0778 38.5466C31.4383 38.4112 31.8613 38.2134 32.0234 38.0963C32.5639 37.6912 38.0493 36.2859 40.0402 36.0424C41.6077 35.8535 43.3462 36.2497 44.2378 36.9881C44.391 37.123 44.517 37.2673 44.517 37.3213C44.517 37.3664 43.2287 38.0329 41.6617 38.8074C31.8885 43.5916 27.9161 45.0058 25.4209 44.6091C22.6013 44.1499 17.35 42.222 11.2612 39.394C10.6845 39.1238 10.4688 38.9795 10.4777 38.8624C10.4777 38.7722 10.7301 36.9801 11.036 34.8811L11.5944 31.0529L12.1076 30.8997C13.2695 30.5575 15.3323 30.2332 16.5933 30.197C16.8189 30.1975 17.2603 30.2332 17.5846 30.2784Z" fill="#323232"/>
</svg>
