<svg width="55" height="55" viewBox="0 0 55 55" fill="none" xmlns="http://www.w3.org/2000/svg">
<path d="M54.4498 27.5C54.4498 12.6115 42.3883 0.550049 27.4998 0.550049C12.6168 0.550049 0.549805 12.6115 0.549805 27.5C0.549805 42.3885 12.6168 54.4501 27.4998 54.4501C33.6103 54.4501 39.2038 52.371 43.7303 48.9445C43.9173 48.73 44.0383 48.466 44.0383 48.1635C44.0383 47.5035 43.5048 46.97 42.8448 46.97C42.5038 46.97 42.1958 47.102 41.9758 47.333H41.9648C37.9168 50.314 32.9393 52.0961 27.5273 52.0961C14.0523 52.0961 3.1238 41.1675 3.1238 27.6925C3.1238 14.212 14.0523 3.28355 27.5273 3.28355C41.0078 3.28355 51.9308 14.212 51.9308 27.6925C51.9308 31.812 50.9683 35.684 49.1643 39.083V39.105C49.1313 39.2205 49.0928 39.3251 49.0928 39.446C49.0928 40.106 49.6318 40.6451 50.2863 40.6451C50.8033 40.6451 51.2323 40.315 51.4028 39.8586V39.8695C53.3168 36.1571 54.4498 31.9605 54.4498 27.5Z" fill="#0E5E6F"/>
<path d="M36.1514 28.512C34.4079 28.512 32.8514 27.7365 31.8119 26.5045C30.7724 27.753 29.2269 28.512 27.5054 28.512C25.7729 28.512 24.2219 27.731 23.1769 26.5045C22.1374 27.731 20.5809 28.512 18.8484 28.512C15.7189 28.512 13.1724 25.9655 13.1724 22.836V15.8455C13.1724 15.0975 13.7774 14.498 14.5199 14.498H40.4414C41.1839 14.498 41.7834 15.0975 41.7889 15.84L41.8274 22.8305C41.8274 25.9655 39.2809 28.512 36.1514 28.512ZM31.8229 21.483C32.5709 21.483 33.1814 22.088 33.1814 22.8305C33.2419 24.552 34.5454 25.8115 36.1514 25.8115C37.7959 25.8115 39.1269 24.475 39.1269 22.8305L39.0939 17.193H15.8729V22.8305C15.8729 24.475 17.2094 25.8115 18.8484 25.8115C20.4929 25.8115 21.8294 24.475 21.8294 22.8305C21.8294 22.0825 22.4344 21.483 23.1769 21.483C23.9249 21.483 24.5244 22.088 24.5244 22.8305C24.5244 24.475 25.8609 25.8115 27.5054 25.8115C29.1114 25.8115 30.4204 24.5575 30.4809 22.9515C30.5084 22.2255 31.0969 21.483 31.8229 21.483Z" fill="#0E5E6F"/>
<path d="M40.0727 40.5021H14.8882V30.4041C14.8882 29.6561 15.4932 29.0566 16.2357 29.0566C16.9837 29.0566 17.5832 29.6616 17.5832 30.4041V37.8016H37.3777L37.4052 30.3986C37.4052 29.6561 38.0102 29.0566 38.7527 29.0566C38.7527 29.0566 38.7527 29.0566 38.7582 29.0566C39.5007 29.0566 40.1057 29.6671 40.1002 30.4096L40.0727 40.5021Z" fill="#0E5E6F"/>
</svg>
