<svg width="25" height="26" viewBox="0 0 25 26" fill="none" xmlns="http://www.w3.org/2000/svg">
<path d="M0.330563 5.18953C0.330563 5.18953 2.64806 1.88493 3.65056 1.07373C4.65306 0.262532 5.19056 -0.153468 6.55556 0.857932C7.92056 1.86933 8.95806 2.98733 9.73806 4.25093C10.5156 5.51453 10.7756 6.65073 9.53057 7.50093C8.28556 8.35113 6.05556 9.34173 6.97056 11.4737C7.88806 13.6057 10.7056 16.3123 10.7056 16.3123C10.7056 16.3123 12.8156 18.4599 14.2331 18.9123C15.6506 19.3647 16.3431 18.4781 16.7931 17.6851C17.2431 16.8921 18.1606 14.7783 19.6306 15.3009C21.1006 15.8235 22.3281 16.8713 23.4356 18.1895C24.5431 19.5077 25.4581 20.6439 23.9881 22.3053C22.5181 23.9667 20.1131 25.6983 20.1131 25.6983C20.1131 25.6983 19.0406 25.9141 17.3456 25.3369C15.6506 24.7597 9.66807 22.6121 5.37806 17.2483C4.52806 16.1849 1.00306 10.5871 0.468063 6.99393C0.470563 6.99393 0.0880631 5.55093 0.330563 5.18953Z" fill="#0E5E6F"/>
</svg>
