<svg width="34" height="34" viewBox="0 0 34 34" fill="none" xmlns="http://www.w3.org/2000/svg">
<path d="M2.21933 8.73582C2.21933 8.73582 4.93279 5.01455 6.10657 4.10107C7.28035 3.18759 7.90969 2.71914 9.5079 3.85806C11.1061 4.99699 12.3209 6.25595 13.2342 7.67888C14.1445 9.1018 14.4489 10.3813 12.9912 11.3387C11.5335 12.2961 8.92248 13.4116 9.99381 15.8124C11.0681 18.2132 14.367 21.2611 14.367 21.2611C14.367 21.2611 16.8375 23.6794 18.4971 24.1889C20.1568 24.6983 20.9677 23.6999 21.4945 22.807C22.0214 21.914 23.0957 19.5336 24.8168 20.1221C26.538 20.7106 27.9752 21.8905 29.2719 23.375C30.5687 24.8594 31.64 26.1388 29.9188 28.0097C28.1977 29.8806 25.3818 31.8305 25.3818 31.8305C25.3818 31.8305 24.126 32.0735 22.1414 31.4235C20.1568 30.7736 13.1522 28.3552 8.12922 22.3151C7.13399 21.1176 3.00673 14.814 2.38032 10.7677C2.38325 10.7677 1.9354 9.14279 2.21933 8.73582Z" stroke="#263538" stroke-width="2"/>
</svg>
