<svg width="51" height="51" viewBox="0 0 51 51" fill="none" xmlns="http://www.w3.org/2000/svg">
<path d="M0.673138 10.1796C0.673138 10.1796 5.40084 3.69745 7.44594 2.10625C9.49104 0.515051 10.5875 -0.300949 13.3721 1.68295C16.1567 3.66685 18.2732 5.85985 19.8644 8.33845C21.4505 10.8171 21.9809 13.0458 19.4411 14.7135C16.9013 16.3812 12.3521 18.3243 14.2187 22.5063C16.0904 26.6883 21.8381 31.9974 21.8381 31.9974C21.8381 31.9974 26.1425 36.21 29.0342 37.0974C31.9259 37.9848 33.3386 36.2457 34.2566 34.6902C35.1746 33.1347 37.0463 28.9884 40.0451 30.0135C43.0439 31.0386 45.548 33.0938 47.8073 35.6796C50.0666 38.2653 51.9332 40.494 48.9344 43.7529C45.9356 47.0118 41.0294 50.4084 41.0294 50.4084C41.0294 50.4084 38.8415 50.8317 35.3837 49.6995C31.9259 48.5673 19.7216 44.3547 10.97 33.8334C9.23604 31.7475 2.04504 20.7672 0.953638 13.719C0.958738 13.719 0.178438 10.8885 0.673138 10.1796Z" fill="#0E5E6F"/>
</svg>
