<svg width="18" height="18" viewBox="0 0 18 18" fill="none" xmlns="http://www.w3.org/2000/svg">
<path d="M0.237693 3.5927C0.237693 3.5927 1.90629 1.3049 2.62809 0.743297C3.34989 0.181696 3.73689 -0.106304 4.71969 0.593897C5.70249 1.2941 6.44949 2.0681 7.01109 2.9429C7.57089 3.8177 7.75809 4.6043 6.86169 5.1929C5.96529 5.7815 4.35969 6.4673 5.01849 7.9433C5.67909 9.4193 7.70769 11.2931 7.70769 11.2931C7.70769 11.2931 9.22689 12.7799 10.2475 13.0931C11.2681 13.4063 11.7667 12.7925 12.0907 12.2435C12.4147 11.6945 13.0753 10.2311 14.1337 10.5929C15.1921 10.9547 16.0759 11.6801 16.8733 12.5927C17.6707 13.5053 18.3295 14.2919 17.2711 15.4421C16.2127 16.5923 14.4811 17.7911 14.4811 17.7911C14.4811 17.7911 13.7089 17.9405 12.4885 17.5409C11.2681 17.1413 6.96069 15.6545 3.87189 11.9411C3.25989 11.2049 0.721893 7.3295 0.336693 4.8419C0.338493 4.8419 0.063093 3.8429 0.237693 3.5927Z" fill="#263538"/>
</svg>
