<svg width="61" height="61" viewBox="0 0 61 61" fill="none" xmlns="http://www.w3.org/2000/svg">
<path d="M52.9179 37.9726C57.0293 37.9726 60.3904 34.6115 60.3904 30.5001C60.3904 26.3887 57.0293 23.0276 52.9179 23.0276H51.7955C51.4234 22.2773 51.0452 21.5331 51.0452 20.7828L51.7955 20.0325C53.29 18.538 54.0403 16.6714 54.0403 14.7987C54.0403 12.926 53.29 11.0594 51.7955 9.56491C50.301 8.07041 48.4344 7.32011 46.5617 7.32011C44.689 7.32011 42.8224 8.07041 41.3279 9.56491L40.5776 10.3152C39.8273 9.94311 39.0831 9.56491 38.3328 9.56491V8.07041C38.345 3.97121 34.9839 0.610107 30.8725 0.610107C26.389 0.610107 23.0279 3.97121 23.0279 8.08261V9.20501C22.2776 9.57711 21.5334 9.95531 20.7831 10.3274L20.0389 9.20501C18.5444 8.08261 16.6778 7.33841 14.8051 7.33841C12.9324 7.33841 11.0719 8.08261 9.57735 9.57711C8.08285 10.6995 7.33255 12.5661 7.33255 14.8109C7.33255 17.0557 8.08285 18.5502 9.57735 20.0447L10.3277 20.795C9.95555 21.5453 9.57735 22.2895 9.20525 23.0398H8.08285C3.97145 23.0276 0.610352 26.3887 0.610352 30.5001C0.610352 34.6115 3.97145 37.9726 8.08285 37.9726H9.20525C9.57735 38.7229 9.95555 39.4671 9.95555 40.2174L9.20525 40.9677C7.71075 42.4622 6.96045 44.3288 6.96045 46.2015C6.96045 48.0742 7.71075 49.9408 9.20525 51.4353C10.6998 52.9298 12.5664 53.6801 14.4391 53.6801C16.3118 53.6801 18.1784 52.9298 19.6729 51.4353L20.4171 50.685C21.1674 51.0571 21.9116 51.4353 22.6558 51.4353V52.9298C22.6558 57.0412 26.0169 60.4023 30.1283 60.4023C34.2397 60.4023 37.6008 57.0412 37.6008 52.9298V51.8074C38.3511 51.4353 39.0953 51.0571 39.8456 51.0571L40.5959 51.8074C42.0904 53.3019 43.957 54.0522 45.8297 54.0522C47.7024 54.0522 49.569 53.3019 51.0635 51.8074C52.558 50.3129 53.3083 48.4463 53.3083 46.5736C53.3083 44.7009 52.558 42.8343 51.0635 41.3398L50.3132 40.5895C50.6853 39.8392 51.0635 39.095 51.0635 38.3447H52.9301V37.9726H52.9179ZM48.8065 43.5785C49.5568 44.3288 49.9289 45.073 49.9289 46.1954C49.9289 47.3178 49.5568 48.062 48.8065 48.8123C47.312 50.3068 45.0672 50.3068 43.5727 48.8123L40.5837 45.8233L39.4674 46.5675C38.345 47.3178 36.8505 47.6899 35.356 48.062L34.2336 48.8123V52.9237C34.2336 55.1685 32.7391 56.663 30.4943 56.663C28.2495 56.663 26.755 55.1685 26.755 52.9237V48.8123L25.2605 48.4402C23.766 48.0681 22.6436 47.3178 21.1491 46.9457L20.0267 46.1954L17.0377 49.1844C15.5432 50.6789 13.2984 50.6789 11.8039 49.1844C11.0536 48.4341 10.6815 47.6899 10.6815 46.5675C10.6815 45.4451 11.0536 44.7009 11.8039 43.9506L14.7929 40.9616L14.0426 39.8392C13.2923 38.7168 12.9202 37.2223 12.5481 35.7278L12.176 34.2333H8.06455C5.81975 34.2333 4.32525 32.7388 4.32525 30.494C4.32525 28.2492 5.81975 26.7547 8.06455 26.7547H12.176L12.5481 25.2602C12.9202 23.7657 13.6705 22.6433 14.0426 21.1488L14.7929 20.0264L12.176 17.4095C11.4257 16.6592 11.0536 15.5429 11.0536 14.7926C11.0536 13.6702 11.4257 12.926 12.176 12.1757C13.6705 10.6812 15.9153 10.6812 17.4098 12.1757L20.3988 15.1647L21.5212 14.4144C22.6436 13.6641 24.1381 13.292 25.6326 12.9199L26.755 12.1696V8.05821C26.755 5.81341 28.2495 4.31891 30.4943 4.31891C32.7391 4.31891 34.2336 5.81341 34.2336 8.05821V12.1696L35.7281 12.5417C37.2226 12.9138 38.345 13.6641 39.8395 14.0362L40.9619 14.7865L43.9509 11.7975C45.4454 10.303 47.6902 10.303 49.1847 11.7975C49.935 12.5478 50.3071 13.292 50.3071 14.4144C50.3071 15.5368 49.935 16.281 49.1847 17.0313L46.1957 20.0203L46.946 21.1427C47.6963 22.2651 48.0684 23.7596 48.4405 25.2541L48.8126 26.7486H52.924C55.1688 26.7486 56.6633 28.2431 56.6633 30.4879C56.6633 32.7327 55.1688 34.2272 52.924 34.2272H48.8126L48.4405 35.7217C48.0684 37.2162 47.3181 38.3386 46.946 39.8331L46.1957 40.9555L48.8065 43.5785ZM30.5004 19.2944C24.1503 19.2944 19.2886 24.15 19.2886 30.5062C19.2886 36.8624 24.1503 41.7119 30.5004 41.7119C36.8505 41.7119 41.7122 36.8502 41.7122 30.5001C41.7122 24.15 36.8505 19.2944 30.5004 19.2944ZM30.5004 37.9726C26.389 37.9726 23.0279 34.6115 23.0279 30.5001C23.0279 26.3887 26.389 23.0276 30.5004 23.0276C34.6118 23.0276 37.9729 26.3887 37.9729 30.5001C37.9729 34.6115 34.6118 37.9726 30.5004 37.9726Z" fill="#0E5E6F"/>
</svg>
