<svg width="110" height="96" viewBox="0 0 110 96" fill="none" xmlns="http://www.w3.org/2000/svg">
<path d="M61.4132 1.32509C54.738 2.78669 49.1324 7.14909 46.1443 13.2352C44.3993 16.7475 44.0723 18.2516 44.0723 22.5054C44.0723 26.4758 44.3556 27.98 45.7086 30.9469C46.0793 31.732 46.319 32.4297 46.2753 32.4958C46.188 32.5608 31.4432 30.1841 25.6404 29.1582C24.6156 28.9622 20.7976 28.3294 17.134 27.719C10.8307 26.6718 10.46 26.6281 9.78348 26.9552C9.36908 27.1512 8.93228 27.588 8.73628 28.0024C8.45292 28.6553 0.120117 78.1481 0.120117 79.2166C0.120117 79.9581 0.709237 80.8742 1.36332 81.1363C2.06108 81.4197 2.38812 81.4857 50.3969 89.4904C88.0233 95.7501 86.322 95.5328 87.2595 94.4856C87.6526 94.0499 87.7176 93.6568 90.4436 77.6901C91.2724 72.7173 91.9926 68.6382 92.0139 68.6382C92.0363 68.6158 92.8427 68.3985 93.8025 68.1365C103.184 65.4753 109.901 56.8155 109.88 47.3705C109.88 41.3718 107.829 36.595 103.423 32.2113C99.2569 28.0673 94.9819 26.0816 89.6596 25.8419L87.0209 25.7109L86.9985 22.6353C86.9761 18.9931 86.4318 16.528 84.9915 13.5174C82.6137 8.52221 77.8593 4.11613 72.8854 2.28381C69.2868 0.954368 64.7497 0.582533 61.4132 1.32509ZM67.8913 5.73117C71.7956 6.25421 74.9148 7.80317 77.6633 10.5953C79.6043 12.5587 80.8475 14.652 81.7424 17.4878C82.178 18.927 82.2441 19.5598 82.2441 22.6577C82.2441 26.7144 82.3315 26.5408 80.1934 27.3909C75.7649 29.1795 70.7272 34 68.8288 38.275L68.3931 39.2561L66.8004 39.4096C62.8748 39.759 58.2716 38.4721 55.1748 36.1157C53.8006 35.0685 51.6188 32.647 50.8561 31.3389C46.58 24.0533 48.4784 13.8232 54.9777 9.02397C58.7734 6.23293 63.2232 5.07597 67.8913 5.73117ZM93.2593 31.0118C96.1164 31.8406 98.1459 33.0401 100.37 35.2656C102.05 36.9232 102.508 37.556 103.358 39.3009C104.885 42.3989 105.147 43.6196 105.147 47.4803C105.125 50.5995 105.103 50.8392 104.427 52.8249C101.962 59.9347 95.9854 64.1661 88.3515 64.1661C80.7388 64.1661 74.6752 59.891 72.2974 52.8238C71.752 51.1662 71.5772 50.2713 71.4899 48.3304C71.2502 42.8995 72.7544 38.8641 76.354 35.2432C78.0116 33.5632 78.6444 33.1051 80.3894 32.2326C83.3339 30.7934 85.472 30.3353 88.8958 30.444C90.8379 30.5101 92.1035 30.6624 93.2593 31.0118ZM17.2427 32.451C19.2934 32.778 21.0384 33.1275 21.147 33.2149C21.4964 33.5206 20.1222 35.8536 18.8566 37.1629C17.3737 38.6681 15.0609 39.8676 12.9016 40.2171C12.1164 40.3481 11.4187 40.4131 11.3526 40.3694C11.2652 40.2608 12.4648 32.5384 12.6832 31.928C12.7268 31.7757 12.9452 31.6883 13.1412 31.7533C13.3608 31.7969 15.2144 32.124 17.2427 32.451ZM38.684 36.0496L50.6153 38.0342L51.6625 38.9067C55.5456 42.1569 60.7144 44.0979 65.4262 44.0979H66.9964L66.8441 45.6681C66.059 53.7165 70.8571 62.2453 78.4697 66.3243C80.5854 67.4801 83.6609 68.4837 85.5806 68.6584C86.8238 68.767 87.1508 68.8768 87.1296 69.1601C87.1296 69.3561 86.8675 71.0798 86.5404 72.9995L85.93 76.4894L83.9891 76.6205C79.9974 76.9038 76.6822 78.5177 73.5193 81.703C71.8393 83.3819 71.36 84.0371 70.4875 85.8257C69.484 87.8328 69.3753 87.9638 68.8512 87.8541C68.5454 87.7891 57.3342 85.9131 43.9636 83.6877C30.5931 81.4622 19.3808 79.5873 19.0537 79.5213C18.5307 79.4126 18.4646 79.3029 18.3336 78.0597C17.8755 73.9157 16.0868 70.2947 13.1424 67.5025C11.7468 66.172 9.65244 64.7765 8.2782 64.2523C7.47068 63.9477 7.31836 63.7942 7.40572 63.4235C7.4494 63.1614 8.16956 58.9301 8.97596 54.0009L10.4588 45.0365L12.0078 44.9054C17.4824 44.4249 22.7609 40.7614 25.1611 35.7662C25.7065 34.6104 26.0996 34.0649 26.3606 34.0649C26.579 34.0649 32.1185 34.9598 38.684 36.0496ZM8.01612 69.2049C10.8732 70.6453 13.186 73.8731 13.6217 77.036C13.7304 77.8211 13.774 78.4976 13.7304 78.5413C13.643 78.6499 5.31132 77.2981 5.18028 77.1457C5.09292 77.0584 6.51084 68.5296 6.61948 68.5296C6.64188 68.5285 7.27468 68.8342 8.01612 69.2049ZM84.3811 85.5861C83.9667 88.0288 83.5523 90.0795 83.4873 90.1445C83.4 90.2318 81.2843 89.9485 78.7979 89.5117L74.2608 88.7265L74.3918 88.1811C74.6539 87.1339 76.0281 85.1493 77.2713 84.0147C79.2123 82.2261 81.6337 81.2225 84.0115 81.2013L85.1236 81.1789L84.3811 85.5861Z" fill="#0E5E6F"/>
<path d="M64.3578 8.60951C63.7911 9.17623 63.5939 9.54807 63.5939 10.1148C63.5939 10.7689 63.4853 10.8786 62.5031 11.3367C60.0167 12.4713 58.1407 15.1537 58.1407 17.6188C58.1407 20.8254 60.3213 22.9186 65.5349 24.686C68.7191 25.7545 69.2869 26.3223 68.7627 27.8926C68.0863 29.9646 64.3567 30.0082 61.8266 27.9575C60.2339 26.6706 59.1218 26.6046 58.0309 27.7391C57.3768 28.4369 57.2234 29.549 57.6815 30.4215C58.0522 31.1193 60.5823 32.7769 62.2399 33.3884C63.3957 33.8241 63.5917 33.9775 63.5917 34.4356C63.5917 34.7414 63.8751 35.2431 64.2245 35.6138C65.5987 36.9657 68.1725 36.0058 68.1725 34.131C68.1725 33.8689 68.4995 33.6079 69.1973 33.3234C69.764 33.0838 70.7463 32.3636 71.4653 31.6434C74.1264 28.9823 74.3224 25.7982 71.9671 23.1807C70.8325 21.9375 68.9128 20.869 65.9471 19.9092C62.9152 18.9057 62.1951 18.0332 63.0463 16.4193C63.4394 15.6342 64.3992 15.241 65.8608 15.2634C67.2351 15.2634 67.7368 15.5031 68.8266 16.6377C69.5031 17.3578 69.7651 17.4878 70.5066 17.4878C72.1866 17.4878 73.32 15.8951 72.6883 14.3898C72.2739 13.43 70.3767 11.7287 69.176 11.2706C68.3036 10.9436 68.2162 10.8338 68.1075 10.0274C67.9552 8.8716 67.1914 8.10775 66.0355 7.95543C65.2303 7.84679 65.0555 7.91175 64.3578 8.60951Z" fill="#0E5E6F"/>
<path d="M87.6751 33.3671C87.0647 33.8476 86.7153 34.5454 86.7153 35.3081C86.7153 35.8311 86.5619 35.9846 85.7118 36.3329C85.1663 36.5513 84.1852 37.2715 83.5311 37.9031C81.5902 39.7791 80.9137 41.9161 81.5678 44.1191C82.2006 46.3222 84.2726 48.0895 87.5228 49.223C90.7294 50.3351 91.5358 50.7059 91.8415 51.1639C92.518 52.1025 91.995 53.6503 90.8604 54.1308C89.7259 54.6113 87.8723 54.4142 86.3894 53.6951C85.6692 53.3244 84.7531 52.8003 84.3387 52.4956C82.7023 51.2961 80.5867 52.2996 80.6091 54.2843C80.6303 55.1131 81.0235 55.7459 81.9172 56.4436C82.746 57.0764 85.9963 58.7116 86.4107 58.7116C86.5417 58.7116 86.7164 59.1047 86.7814 59.6054C86.9337 60.6963 87.6326 61.5027 88.5913 61.6774C89.4851 61.8521 90.0305 61.6774 90.7294 60.9572C91.1225 60.5641 91.2961 60.1721 91.2961 59.6043C91.2961 58.8628 91.3835 58.7755 92.387 58.2961C96.0292 56.5758 97.7305 52.6927 96.1827 49.5959C95.1791 47.5889 93.0847 46.171 89.2241 44.8841C86.1923 43.903 85.6255 43.2915 86.1486 41.6775C86.498 40.6091 87.5441 40.1286 89.2891 40.2159C90.5759 40.3033 90.6846 40.347 91.7318 41.3718C92.7129 42.3529 92.9313 42.4627 93.8038 42.4627C95.4614 42.4627 96.5299 40.8487 95.8758 39.2998C95.5051 38.3836 93.8687 36.9657 92.4732 36.3116C91.3823 35.8099 91.295 35.7225 91.295 35.0023C91.295 33.8678 90.3127 32.974 89.0695 32.974C88.5039 32.974 87.9372 33.1275 87.6751 33.3671Z" fill="#0E5E6F"/>
<path d="M49.307 42.2006C48.8702 42.5713 48.653 43.0955 48.3696 44.4036L47.9989 46.1273L46.6459 46.4107C43.7664 46.9998 40.9742 49.0942 39.8621 51.4719C39.208 52.8899 39.077 55.1803 39.5563 56.5758C40.1667 58.2983 42.6106 60.9158 44.7262 62.1601C44.9446 62.2687 44.8349 63.2286 44.2032 66.4139L43.4181 70.4929L42.5456 69.9262C42.0662 69.5991 40.9754 68.6606 40.1242 67.8542C38.7723 66.5449 38.4442 66.3489 37.7464 66.3489C37.1136 66.3489 36.7653 66.5236 36.1974 67.0903C35.3686 67.9191 35.2376 68.7703 35.783 69.8164C36.2411 70.7326 38.9235 73.1103 40.4512 73.9828C42.7192 75.2697 42.5456 75.03 42.2398 76.7526C41.9128 78.5849 42.0651 79.2614 42.9163 79.9804C43.7014 80.6345 44.6826 80.6782 45.6424 80.0891C46.3402 79.6747 46.5362 79.2166 46.9517 77.0572L47.1264 76.1198L48.719 75.7054C51.7509 74.9415 54.1499 73.1316 55.2632 70.7763C55.7437 69.7291 55.8523 69.206 55.8523 67.7657C55.8523 66.2828 55.7437 65.846 55.2195 64.8425C54.4781 63.4033 52.7981 61.571 51.3589 60.6548C50.7698 60.2841 50.2904 59.826 50.2904 59.6076C50.2904 59.4116 50.6174 57.5793 51.0106 55.5073C51.8181 51.2535 51.9054 51.1662 53.1486 53.3916C54.2171 55.2452 55.7448 55.747 57.0317 54.6561C57.9254 53.9147 58.1002 52.9335 57.5334 51.7116C56.988 50.446 55.3517 48.6798 53.9562 47.7849C53.3234 47.3918 52.7566 47.0435 52.713 47.0211C52.6906 46.9774 52.7779 46.2796 52.909 45.4508C53.236 43.6622 53.105 42.942 52.3198 42.223C51.5538 41.5252 50.1134 41.5028 49.307 42.2006ZM46.7546 52.9761C46.5362 54.1543 46.2315 55.6372 46.1218 56.2913L45.8821 57.4471L45.032 56.6183C44.5526 56.1603 44.0946 55.4838 43.9848 55.1131C43.7888 54.3055 44.0285 53.1497 44.5739 52.4083C45.097 51.7105 46.2976 50.8593 46.7994 50.8593C47.1477 50.8604 47.1477 50.9915 46.7546 52.9761ZM50.5939 65.911C51.6187 67.1542 51.4888 68.8779 50.2232 70.251C49.7214 70.7751 48.3696 71.4729 48.1725 71.2758C48.1075 71.2108 48.3248 69.7492 48.653 68.0043C49.307 64.4931 49.3507 64.4494 50.5939 65.911Z" fill="#0E5E6F"/>
</svg>
