<svg width="64" height="64" viewBox="0 0 64 64" fill="none" xmlns="http://www.w3.org/2000/svg">
<g clip-path="url(#clip0_220_244)">
<path d="M58 8H6C2.686 8 0 10.686 0 14V46C0 49.314 2.686 52 6 52H24V58H21C20.448 58 20 58.448 20 59C20 59.552 20.448 60 21 60H43C43.552 60 44 59.552 44 59C44 58.448 43.552 58 43 58H40V52H58C61.314 52 64 49.314 64 46V14C64 10.686 61.314 8 58 8ZM38 58H26V52H38V58ZM62 46C62 48.21 60.21 50 58 50H6C3.79 50 2 48.21 2 46V14C2 11.79 3.79 10 6 10H58C60.21 10 62 11.79 62 14V46ZM51.61 18.06C50.046 17.752 48.66 18.66 48.184 20H36V18H28V20H15.816C15.34 18.66 13.952 17.752 12.39 18.06C11.244 18.286 10.31 19.204 10.07 20.348C9.66 22.29 11.13 24 13 24C14.304 24 15.404 23.162 15.816 22H28V22.448C19.224 24.242 12.51 31.764 12.028 40.94C11.998 41.514 12.454 42 13.03 42C13.556 42 13.998 41.592 14.024 41.066C14.442 32.936 20.292 26.246 28 24.488V26H36V24.486C43.708 26.246 49.558 32.936 49.976 41.064C50.004 41.592 50.444 42 50.97 42C51.546 42 52.002 41.514 51.972 40.94C51.49 31.764 44.776 24.242 36 22.448V22H48.184C48.598 23.162 49.696 24 51 24C52.87 24 54.34 22.29 53.932 20.348C53.69 19.204 52.756 18.286 51.61 18.06ZM13 22C12.448 22 12 21.552 12 21C12 20.448 12.448 20 13 20C13.552 20 14 20.448 14 21C14 21.552 13.552 22 13 22ZM34 24H30V20H34V24ZM51 22C50.448 22 50 21.552 50 21C50 20.448 50.448 20 51 20C51.552 20 52 20.448 52 21C52 21.552 51.552 22 51 22Z" fill="#323232" stroke="#323232" stroke-width="0.5"/>
</g>
<defs>
<clipPath id="clip0_220_244">
<rect width="64" height="64" fill="white"/>
</clipPath>
</defs>
</svg>
