<svg width="62" height="62" viewBox="0 0 62 62" fill="none" xmlns="http://www.w3.org/2000/svg">
<g clip-path="url(#clip0_220_238)">
<path fill-rule="evenodd" clip-rule="evenodd" d="M35.766 32.1201L43.7234 36.7143C44.5002 37.1627 44.7515 38.1818 44.3141 38.9393C43.8635 39.7197 42.8912 40.0017 42.0918 39.5402L33.9996 34.8682C33.1711 35.5117 32.1303 35.8947 31 35.8947C28.2967 35.8947 26.1053 33.7033 26.1053 31C26.1053 28.8688 27.4673 27.0557 29.3684 26.3838V11.4322C29.3684 10.5249 30.1253 9.78947 31 9.78947C31.9011 9.78947 32.6316 10.5495 32.6316 11.4322V26.3838C34.5327 27.0557 35.8947 28.8688 35.8947 31C35.8947 31.3854 35.8502 31.7604 35.766 32.1201ZM31 62C48.1208 62 62 48.1208 62 31C62 13.8792 48.1208 0 31 0C13.8792 0 0 13.8792 0 31C0 48.1208 13.8792 62 31 62ZM31 58.7368C46.3186 58.7368 58.7368 46.3186 58.7368 31C58.7368 15.6814 46.3186 3.26316 31 3.26316C15.6814 3.26316 3.26316 15.6814 3.26316 31C3.26316 46.3186 15.6814 58.7368 31 58.7368Z" fill="#323232"/>
</g>
<defs>
<clipPath id="clip0_220_238">
<rect width="62" height="62" fill="white"/>
</clipPath>
</defs>
</svg>
