<svg width="56" height="56" viewBox="0 0 70 70" fill="none" xmlns="http://www.w3.org/2000/svg">
<path d="M31.0852 57.3299V13.128C31.0852 8.93158 29.2909 7.25302 24.833 7.25302H13.5061C9.04826 7.25302 7.25391 8.93158 7.25391 13.128V57.3299C7.25391 61.5263 9.04826 63.2048 13.5061 63.2048H24.833C29.2909 63.2048 31.0852 61.5263 31.0852 57.3299Z" stroke="#323232" stroke-width="3" stroke-linecap="round" stroke-linejoin="round"/>
<path d="M63.2063 32.4031V13.1873C63.2063 8.94853 61.412 7.25302 56.9541 7.25302H45.6272C41.1694 7.25302 39.375 8.94853 39.375 13.1873V32.4031C39.375 36.6419 41.1694 38.3374 45.6272 38.3374H56.9541C61.412 38.3374 63.2063 36.6419 63.2063 32.4031Z" stroke="#323232" stroke-width="3" stroke-linecap="round" stroke-linejoin="round"/>
<path d="M63.2063 57.4024V52.4289C63.2063 48.2843 61.412 46.6265 56.9541 46.6265H45.6272C41.1694 46.6265 39.375 48.2843 39.375 52.4289V57.4024C39.375 61.547 41.1694 63.2048 45.6272 63.2048H56.9541C61.412 63.2048 63.2063 61.547 63.2063 57.4024Z" stroke="#323232" stroke-width="3" stroke-linecap="round" stroke-linejoin="round"/>
</svg>
