<svg width="27" height="17" viewBox="0 0 27 17" fill="none" xmlns="http://www.w3.org/2000/svg">
<path d="M7.90176 8.23535L0.862856 1.19915C0.773756 1.11005 0.630656 1.11005 0.541556 1.19915C0.452456 1.28825 0.452456 1.43135 0.541556 1.52045L7.41846 8.40005L0.336356 15.4822C0.247256 15.5712 0.247256 15.7144 0.336356 15.8035C0.379556 15.8494 0.438956 15.8683 0.495656 15.8683C0.555056 15.8683 0.611756 15.8467 0.657656 15.8035L7.90176 8.55935C7.99086 8.47025 7.99086 8.32445 7.90176 8.23535Z" fill="#323232" stroke="#323232"/>
<path d="M9.71526 15.8035C9.75846 15.8494 9.81786 15.8683 9.87456 15.8683C9.93396 15.8683 9.99066 15.8467 10.0366 15.8035L17.2807 8.55935C17.3698 8.47025 17.3698 8.32715 17.2807 8.23805L10.2418 1.19915C10.1527 1.11005 10.0096 1.11005 9.92046 1.19915C9.83136 1.28825 9.83136 1.43135 9.92046 1.52045L16.7974 8.40005L9.71526 15.4822C9.62616 15.5686 9.62616 15.7144 9.71526 15.8035Z" fill="#323232" stroke="#323232"/>
<path d="M19.2562 15.8683C19.3129 15.8683 19.3723 15.8467 19.4182 15.8035L26.6623 8.55935C26.7487 8.47025 26.7487 8.32715 26.6623 8.23805L19.6207 1.19915C19.5343 1.11005 19.3885 1.11005 19.2994 1.19915C19.2103 1.28825 19.2103 1.43135 19.2994 1.52045L26.179 8.40005L19.0942 15.4822C19.0051 15.5712 19.0051 15.7144 19.0942 15.8035C19.1374 15.8467 19.1968 15.8683 19.2562 15.8683Z" fill="#323232" stroke="#323232"/>
</svg>
