<svg width="66" height="66" viewBox="0 0 66 66" fill="none" xmlns="http://www.w3.org/2000/svg">
<path d="M32.9999 0.659996C15.1403 0.659996 0.659912 15.1404 0.659912 33C0.659912 50.8596 15.1403 65.34 32.9999 65.34C50.8595 65.34 65.3399 50.8596 65.3399 33C65.3399 15.1404 50.8595 0.659996 32.9999 0.659996ZM29.4755 44.4048C27.5879 44.4048 25.3769 43.1112 22.8425 40.524C19.8263 37.455 18.3149 34.056 18.3149 30.3336C18.3149 28.0698 18.9089 26.3472 20.0969 25.1592C21.0671 24.189 22.3607 23.7072 23.9777 23.7072C25.5419 23.7072 26.9279 24.2022 28.1423 25.2054C29.3567 26.202 29.9639 27.4296 29.9639 28.8816C29.9639 31.4688 28.8881 33.3564 26.7299 34.5444C26.0303 34.9206 24.9479 35.2704 23.4959 35.5938C23.7137 36.7224 24.6245 38.1282 26.2415 39.798C28.9343 42.6558 30.2279 44.1342 30.1223 44.2464C30.0167 44.352 29.7989 44.4048 29.4755 44.4048ZM41.2829 40.689C37.7783 37.3494 36.0293 33.6534 36.0293 29.6142C36.0293 27.4032 36.6233 25.707 37.8113 24.519C38.8343 23.496 40.1279 22.9812 41.6921 22.9812C43.2563 22.9812 44.6423 23.4762 45.8567 24.4794C47.0711 25.476 47.6783 26.7036 47.6783 28.1556C47.6783 30.7428 46.5497 32.604 44.2859 33.7326C43.5335 34.1088 42.3983 34.4322 40.8869 34.7028C41.1575 35.8908 42.1277 37.3692 43.7975 39.1512C45.1439 40.7682 46.4903 42.3852 47.8433 44.0022C46.7015 44.8668 44.5169 43.758 41.2829 40.689Z" fill="#F2DEBA"/>
</svg>
