<svg width="66" height="66" viewBox="0 0 66 66" fill="none" xmlns="http://www.w3.org/2000/svg">
<path d="M33.0002 0.660088C15.1406 0.660088 0.660156 15.1405 0.660156 33.0001C0.660156 50.8597 15.1406 65.3401 33.0002 65.3401C50.8598 65.3401 65.3402 50.8597 65.3402 33.0001C65.3402 15.1405 50.8598 0.660088 33.0002 0.660088ZM29.4758 44.4049C27.5882 44.4049 25.3772 43.1113 22.8428 40.5241C19.8266 37.4551 18.3152 34.0561 18.3152 30.3337C18.3152 28.0699 18.9092 26.3473 20.0972 25.1593C21.0674 24.1891 22.361 23.7073 23.978 23.7073C25.5422 23.7073 26.9282 24.2023 28.1426 25.2055C29.357 26.2021 29.9642 27.4297 29.9642 28.8817C29.9642 31.4689 28.8884 33.3565 26.7302 34.5445C26.0306 34.9207 24.9482 35.2705 23.4962 35.5939C23.714 36.7225 24.6248 38.1283 26.2418 39.7981C28.9346 42.6559 30.2282 44.1343 30.1226 44.2465C30.017 44.3521 29.7992 44.4049 29.4758 44.4049ZM41.2832 40.6891C37.7786 37.3495 36.0296 33.6535 36.0296 29.6143C36.0296 27.4033 36.6236 25.7071 37.8116 24.5191C38.8346 23.4961 40.1282 22.9813 41.6924 22.9813C43.2566 22.9813 44.6426 23.4763 45.857 24.4795C47.0714 25.4761 47.6786 26.7037 47.6786 28.1557C47.6786 30.7429 46.55 32.6041 44.2862 33.7327C43.5338 34.1089 42.3986 34.4323 40.8872 34.7029C41.1578 35.8909 42.128 37.3693 43.7978 39.1513C45.1442 40.7683 46.4906 42.3853 47.8436 44.0023C46.7018 44.8669 44.5172 43.7581 41.2832 40.6891Z" fill="#0E5E6F"/>
</svg>
