<svg width="43" height="43" viewBox="0 0 43 43" fill="none" xmlns="http://www.w3.org/2000/svg">
<path d="M21.4997 0.430069C9.86389 0.430069 0.429688 9.86427 0.429688 21.5001C0.429688 33.1359 9.86389 42.5701 21.4997 42.5701C33.1355 42.5701 42.5697 33.1359 42.5697 21.5001C42.5697 9.86427 33.1355 0.430069 21.4997 0.430069ZM19.2035 28.9305C17.9737 28.9305 16.5332 28.0877 14.882 26.4021C12.9169 24.4026 11.9322 22.1881 11.9322 19.7629C11.9322 18.288 12.3192 17.1657 13.0932 16.3917C13.7253 15.7596 14.5681 15.4457 15.6216 15.4457C16.6407 15.4457 17.5437 15.7682 18.3349 16.4218C19.1261 17.0711 19.5217 17.8709 19.5217 18.8169C19.5217 20.5025 18.8208 21.7323 17.4147 22.5063C16.9589 22.7514 16.2537 22.9793 15.3077 23.19C15.4496 23.9253 16.043 24.8412 17.0965 25.9291C18.8509 27.791 19.6937 28.7542 19.6249 28.8273C19.5561 28.8961 19.4142 28.9305 19.2035 28.9305ZM26.8962 26.5096C24.6129 24.3338 23.4734 21.9258 23.4734 19.2942C23.4734 17.8537 23.8604 16.7486 24.6344 15.9746C25.3009 15.3081 26.1437 14.9727 27.1628 14.9727C28.1819 14.9727 29.0849 15.2952 29.8761 15.9488C30.6673 16.5981 31.0629 17.3979 31.0629 18.3439C31.0629 20.0295 30.3276 21.2421 28.8527 21.9774C28.3625 22.2225 27.6229 22.4332 26.6382 22.6095C26.8145 23.3835 27.4466 24.3467 28.5345 25.5077C29.4117 26.5612 30.2889 27.6147 31.1704 28.6682C30.4265 29.2315 29.0032 28.5091 26.8962 26.5096Z" fill="#0E5E6F"/>
</svg>
