<svg width="63" height="63" viewBox="0 0 63 63" fill="none" xmlns="http://www.w3.org/2000/svg">
<path d="M58.5143 62.8025H4.48548C2.17338 62.8025 0.629883 61.014 0.629883 58.3349V13.6151C0.629883 10.9287 2.17338 9.14016 4.48548 9.14016H19.9205V4.67256C19.9205 1.99346 21.464 0.204956 23.7761 0.204956H39.2111C41.5232 0.204956 43.0667 1.99346 43.0667 4.67256V9.14016H58.5017C60.8138 9.14016 62.3573 10.9287 62.3573 13.6151V58.3276C62.3699 61.014 60.8264 62.8025 58.5143 62.8025ZM39.2174 6.90636C39.2174 5.56316 38.4488 4.67256 37.2896 4.67256H25.7102C24.551 4.67256 23.7824 5.57046 23.7824 6.90636V9.14016H39.2174V6.90636ZM58.5143 18.09C58.5143 15.4036 56.9708 13.6224 54.6587 13.6224H8.35368C6.04158 13.6224 4.49808 15.4109 4.49808 18.09V31.5001H19.9331V27.0325C19.9331 24.3534 21.4766 22.5649 23.7887 22.5649H39.2237C41.5358 22.5649 43.0793 24.3534 43.0793 27.0325V31.5001H58.5143V18.09ZM23.7824 31.5001V35.975C23.7824 38.6541 25.3259 40.4426 27.638 40.4426H35.3555C37.6676 40.4426 39.2111 38.6541 39.2111 35.975V31.5001C39.2111 28.821 37.6676 27.0325 35.3555 27.0325H27.638C25.3259 27.0252 23.7824 28.8137 23.7824 31.5001ZM58.5143 35.975H43.0793V40.4426C43.0793 43.1217 41.5358 44.9102 39.2237 44.9102H23.7887C21.4766 44.9102 19.9331 43.1217 19.9331 40.4426V35.975H4.49808V53.86C4.49808 56.5464 6.04158 58.3349 8.35368 58.3349H54.6587C56.9708 58.3349 58.5143 56.5464 58.5143 53.86V35.975Z" fill="#0E5E6F"/>
</svg>
