<svg width="47" height="43" viewBox="0 0 47 43" fill="none" xmlns="http://www.w3.org/2000/svg">
<path d="M22.6515 0.560829C20.7258 0.776917 18.9133 1.3218 17.1096 2.21408C13.9629 3.76395 11.5962 6.21543 10.3658 9.20198C10.0091 10.0565 9.68957 11.2026 9.58618 11.9822L9.52983 12.4615L8.10197 12.5178C6.53348 12.5742 5.9886 12.6869 4.99292 13.1847C2.79527 14.274 1.31106 16.6412 0.700523 20.0035C0.437883 21.4407 0.418773 24.3714 0.653973 25.7801C1.33948 29.7722 3.13386 32.2893 5.93274 33.2193C6.62756 33.4447 6.80641 33.4633 8.42194 33.4731C10.0468 33.4825 10.1879 33.4638 10.6294 33.2664C11.2399 32.9846 11.9254 32.3084 12.1979 31.7072L12.414 31.228L12.4605 21.6945C12.5076 12.2454 12.5169 12.1518 12.7143 11.4378C13.785 7.67122 16.7529 4.938 20.9704 3.84873C25.8454 2.59041 31.2461 4.10255 34.1763 7.5497C35.1529 8.68601 35.8105 9.9262 36.2334 11.4099L36.4495 12.1611L36.5058 21.6945L36.5528 31.228L36.7689 31.6974C37.1918 32.6083 38.1498 33.3408 39.1077 33.4913L39.5115 33.5476V36.544V39.5403H32.0066H24.5018L24.4454 39.1366C24.3612 38.5638 23.9946 37.8405 23.5909 37.427C22.4448 36.2906 20.5102 36.2906 19.3641 37.427C18.2278 38.5731 18.2278 40.5076 19.3641 41.6537C19.5616 41.8507 19.9561 42.1138 20.2471 42.2549L20.7729 42.4989H30.4474H40.122L40.5635 42.2922C41.08 42.0481 41.7096 41.5033 42.01 41.0334C42.4794 40.2915 42.5171 39.925 42.5171 36.5342V33.3781L43.1556 33.1713C46.3024 32.157 48.2653 28.6814 48.4907 23.7221C48.7068 19.0725 47.082 14.9869 44.386 13.3993C43.334 12.7795 42.4887 12.5634 40.8639 12.5163L39.436 12.46L39.3233 11.7461C39.0038 9.67042 37.8019 7.22826 36.252 5.49072C34.1293 3.11422 30.8135 1.32964 27.4134 0.738209C26.155 0.52359 23.7972 0.429508 22.6515 0.560829ZM9.45486 23.0097V30.5238H8.43125C7.2479 30.5238 6.53397 30.3455 5.85777 29.8761C4.81505 29.1621 4.06388 27.7441 3.65963 25.762C3.42492 24.588 3.42492 21.4319 3.65963 20.2485C4.15747 17.8064 5.27516 16.1629 6.79661 15.6837C7.19106 15.5524 7.64186 15.5053 8.40283 15.5053L9.45486 15.496V23.0097ZM42.132 15.6739C43.6534 16.1433 44.7525 17.6932 45.269 20.0976C45.5414 21.328 45.56 24.512 45.3067 25.7615C44.7995 28.26 43.6912 29.8569 42.132 30.345C41.7189 30.4763 41.2774 30.5233 40.5351 30.5233H39.5115V23.0092V15.495H40.5351C41.2769 15.4955 41.7184 15.5426 42.132 15.6739Z" fill="#F2DEBA"/>
</svg>
