<svg width="38" height="38" viewBox="0 0 38 38" fill="none" xmlns="http://www.w3.org/2000/svg">
<path d="M4.81764 0.595825C4.67932 0.668404 3.66092 1.64349 2.5479 2.75651C0.394816 4.92441 0.300195 5.0479 0.409255 5.64451C0.467395 5.94281 0.744035 6.29924 1.04196 6.45201C1.30378 6.59032 1.7841 6.59033 2.0387 6.45923C2.14776 6.40109 2.66418 5.92799 3.18098 5.40435L4.1268 4.45131L4.16328 18.7237C4.19976 32.9232 4.19976 33.0034 4.3453 33.258C4.4327 33.3963 4.60712 33.5707 4.74544 33.6581C5.00004 33.8036 5.08022 33.8036 19.1414 33.8401L33.2755 33.8766L32.2202 34.7711C30.9107 35.8769 30.7507 36.168 31.0707 36.8661C31.3181 37.4117 31.9873 37.688 32.5109 37.4699C32.7799 37.3536 37.2829 33.549 37.4501 33.2872C37.5155 33.1926 37.5812 32.9817 37.6029 32.8217C37.6831 32.2472 37.5664 32.1161 35.1587 30.0067C33.937 28.937 32.8096 27.9984 32.6568 27.9186C31.9512 27.5694 31.0783 28.1443 31.0783 28.9735C31.0783 29.5119 31.2675 29.73 33.1295 31.3086L33.3625 31.5122H30.9111H28.4597V24.0707V16.636L31.4423 14.1626C33.3773 12.5548 34.4611 11.6094 34.534 11.4566C34.6723 11.1727 34.6723 10.6856 34.534 10.4238C34.2578 9.87809 33.5738 9.62349 33.0646 9.88531C32.8681 9.97993 23.1568 17.9744 21.3746 19.502C21.2435 19.611 21.1056 19.4803 18.5375 16.8758C15.6207 13.9152 15.5986 13.9004 14.9511 14.0098C14.7037 14.0535 14.3545 14.3807 11.525 17.2398C9.79373 18.9855 8.30983 20.5424 8.22966 20.6879C8.09856 20.9498 8.09134 21.1462 8.09134 26.2382V31.5122H7.29106H6.4904V17.9671V4.42205L7.49436 5.41157C8.51276 6.42275 8.70922 6.56107 9.15306 6.56107C9.70596 6.56107 10.1278 6.22629 10.2733 5.68098C10.4333 5.09921 10.3824 5.03347 8.07652 2.72762C6.90536 1.55647 5.85048 0.567326 5.74142 0.523624C5.4359 0.413803 5.10834 0.435844 4.81764 0.595825ZM14.0558 24.7467V31.5119H12.2371H10.4185V26.5943V21.6767L12.2223 19.8291C13.2122 18.8183 14.0269 17.9816 14.0414 17.9816C14.0486 17.9816 14.0558 21.0223 14.0558 24.7467ZM20.0211 26.5947V31.5122H18.2024H16.3837V24.7615L16.3909 18.0181L18.2024 19.8512L20.0211 21.6843V26.5947ZM26.2044 25.0378V31.5119H24.2767H22.3489V26.6163V21.7132L24.2474 20.1419C25.2951 19.2762 26.1607 18.5634 26.1752 18.5634C26.1896 18.5637 26.2044 21.4734 26.2044 25.0378Z" fill="#3A5358"/>
</svg>
