<svg width="85" height="71" viewBox="0 0 85 71" fill="none" xmlns="http://www.w3.org/2000/svg">
<path d="M6.064 0.957832C4.109 1.43554 2.3274 2.91283 1.39325 4.78114L0.850098 5.86744V35.5222V65.177L1.58875 66.5455C2.4141 68.0662 3.08815 68.7181 4.73885 69.5868L5.84725 70.1733H42.4542H79.0611L80.4296 69.4347C81.9503 68.6093 82.6022 67.9361 83.4709 66.2846L84.0574 65.1762L84.1229 35.9557C84.1883 3.38969 84.275 5.56229 82.6889 3.47724C82.1679 2.78194 81.4072 2.15208 80.473 1.65229L79.0611 0.870285L42.8894 0.826935C22.9875 0.826935 6.43375 0.870285 6.064 0.957832ZM78.9081 4.67233C79.6247 4.99789 79.929 5.30219 80.2554 6.01958C80.6464 6.86703 80.6898 7.47478 80.6898 12.5374V18.1423H42.4534H4.2178V12.5374C4.2178 7.47564 4.26115 6.86703 4.65215 6.01958C4.9777 5.30219 5.282 4.99873 5.9994 4.67233C6.91145 4.25924 7.73765 4.23799 42.4542 4.23799C77.1699 4.23799 77.9952 4.26009 78.9081 4.67233ZM80.6898 42.8433C80.6898 63.4167 80.6685 64.112 80.2554 65.024C79.9298 65.7414 79.6255 66.0449 78.9081 66.3713C77.9952 66.7844 77.1699 66.8056 42.4534 66.8056C7.7368 66.8056 6.91145 66.7844 5.99855 66.3713C5.28115 66.0457 4.9777 65.7414 4.6513 65.024C4.2382 64.112 4.21695 63.4167 4.21695 42.8433V21.6179H42.4525H80.6881V42.8433H80.6898Z" fill="#3A5358"/>
<path d="M9.75713 8.01791C7.56328 8.97416 7.04138 11.8854 8.75753 13.6016C11.1911 16.0564 15.1878 13.8625 14.5579 10.4294C14.1669 8.38766 11.7121 7.14921 9.75713 8.01791Z" fill="#3A5358"/>
<path d="M20.1851 8.01791C17.9913 8.97416 17.4694 11.8854 19.1855 13.6016C21.6191 16.0564 25.6158 13.8625 24.9859 10.4294C24.5958 8.38766 22.141 7.14921 20.1851 8.01791Z" fill="#3A5358"/>
<path d="M30.6138 8.01791C28.42 8.97416 27.8981 11.8854 29.6142 13.6016C32.0478 16.0564 36.0445 13.8625 35.4146 10.4294C35.0236 8.38766 32.5688 7.14921 30.6138 8.01791Z" fill="#3A5358"/>
<path d="M35.5012 45.9499V59.8542H42.4534H49.4055V45.9499V32.0456H42.4534H35.5012V45.9499ZM45.929 45.9499V56.3777H42.4534H38.9777V45.9499V35.5222H42.4534H45.929V45.9499Z" fill="#3A5358"/>
<path d="M56.3575 49.4257V59.8535H63.3097H70.261V49.4257V38.9979H63.3088H56.3567V49.4257H56.3575ZM66.7853 49.4257V56.3779H63.3097H59.834V49.4257V42.4736H63.3097H66.7853V49.4257Z" fill="#3A5358"/>
<path d="M14.6455 52.9021V59.8542H21.5977H28.5498V52.9021V45.9499H21.5977H14.6455V52.9021ZM25.0733 52.9021V56.3777H21.5977H18.122V52.9021V49.4264H21.5977H25.0733V52.9021Z" fill="#3A5358"/>
</svg>
