<svg width="20" height="22" viewBox="0 0 20 22" fill="none" xmlns="http://www.w3.org/2000/svg">
<path d="M15.4774 21.7231C13.8846 21.4028 12.6036 19.7974 12.7089 18.2467C12.7301 17.9349 12.8016 17.5682 12.8816 17.3618C12.9028 17.3154 12.1231 16.814 9.74247 15.3391C7.99787 14.2605 6.52739 13.3545 6.47261 13.325C6.37999 13.2744 6.35469 13.2828 6.13139 13.4766C5.28857 14.2057 4.33201 14.4921 3.37567 14.3109C1.83325 14.0163 0.560547 12.5203 0.560547 10.9992C0.560547 9.94145 1.20955 8.81659 2.17865 8.18013C3.45553 7.34589 4.91765 7.47217 6.13117 8.52157C6.32499 8.68591 6.38813 8.71957 6.44709 8.69009C6.52299 8.64785 12.8772 4.72063 12.8942 4.70809C12.8984 4.70391 12.8647 4.56487 12.8183 4.40471C12.5065 3.30911 12.8519 2.12089 13.7284 1.24441C14.5418 0.426889 15.6288 0.0687284 16.6443 0.279488C18.1949 0.599808 19.4381 2.07029 19.4381 3.58301C19.4381 4.64055 18.7891 5.76563 17.82 6.40209C16.5389 7.23655 15.081 7.11005 13.8675 6.06087C13.6736 5.89653 13.6105 5.86287 13.5513 5.89235C13.4754 5.93459 7.12117 9.86181 7.10423 9.87435C7.10005 9.87853 7.13789 10.0176 7.18431 10.1777C7.31081 10.5948 7.31081 11.404 7.18431 11.8211C7.13789 11.9813 7.10005 12.1203 7.10423 12.1245C7.12117 12.1414 13.4754 16.0643 13.5513 16.1065C13.6103 16.136 13.6734 16.1023 13.8675 15.938C14.7186 15.2005 15.6877 14.9141 16.6443 15.1121C17.9885 15.3902 19.0925 16.4941 19.3705 17.8383C19.5813 18.8539 19.2231 19.9411 18.4056 20.7542C17.5969 21.5673 16.5013 21.9297 15.4774 21.7231ZM16.5391 20.3917C17.5335 20.1851 18.1614 19.3002 18.0772 18.2299C18.0013 17.2102 17.2724 16.4812 16.2527 16.4055C14.9969 16.3085 14.0446 17.1724 14.0446 18.4154C14.0446 19.7638 15.1949 20.6739 16.5391 20.3917ZM4.69435 12.8826C5.42761 12.6171 5.87839 11.9978 5.94153 11.1633C6.03833 9.92033 5.17043 8.97631 3.93161 8.97631C2.58741 8.97631 1.70675 10.0761 1.95535 11.4456C2.09439 12.2041 2.69697 12.8234 3.44695 12.9752C3.78839 13.0428 4.37403 13.0008 4.69435 12.8826ZM16.5391 5.55927C17.4662 5.36545 18.0897 4.57323 18.0897 3.58301C18.0897 2.41151 17.2385 1.56033 16.067 1.56033C14.8955 1.56033 14.0443 2.41151 14.0443 3.58301C14.0446 4.93139 15.1949 5.84153 16.5391 5.55927Z" fill="#0E5E6F"/>
</svg>
