<svg width="12" height="123" viewBox="0 0 12 123" fill="none" xmlns="http://www.w3.org/2000/svg">
<path d="M9.463 15.5317L5.98714 11.145L2.59704 15.6396L0.0835014 12.4643L3.47355 7.97275L0 3.58911L2.4533 0.33586L5.92685 4.7225L9.31921 0.227923L11.8328 3.40021L8.4427 7.89479L11.9162 12.2784L9.463 15.5317Z" fill="#F2DEBA"/>
<path d="M9.463 42.4932L5.98714 38.1065L2.59704 42.6011L0.0835014 39.4258L3.47355 34.9342L0 30.5506L2.4533 27.2973L5.92685 31.681L9.31921 27.1894L11.8328 30.3617L8.4427 34.8563L11.9162 39.2399L9.463 42.4932Z" fill="#F2DEBA"/>
<path d="M9.463 68.78L5.98714 64.3934L2.59704 68.8879L0.0835014 65.7127L3.47355 61.2211L0 56.8344L2.4533 53.5842L5.92685 57.9678L9.31921 53.4762L11.8328 56.6485L8.4427 61.1431L11.9162 65.5268L9.463 68.78Z" fill="#F2DEBA"/>
<path d="M9.463 95.5646L5.98714 91.1779L2.59704 95.6725L0.0835014 92.4972L3.47355 88.0056L0 83.622L2.4533 80.3687L5.92685 84.7524L9.31921 80.2608L11.8328 83.4331L8.4427 87.9277L11.9162 92.3113L9.463 95.5646Z" fill="#F2DEBA"/>
<path d="M9.463 122.751L5.98714 118.364L2.59704 122.859L0.0835014 119.683L3.47355 115.192L0 110.805L2.4533 107.555L5.92685 111.939L9.31921 107.447L11.8328 110.619L8.4427 115.114L11.9162 119.498L9.463 122.751Z" fill="#F2DEBA"/>
</svg>
