<svg width="35" height="35" viewBox="0 0 35 35" fill="none" xmlns="http://www.w3.org/2000/svg">
<path d="M23.7636 0.518044C23.0552 1.00279 23.0849 1.91979 23.8308 2.41924L24.0842 2.59074H27.3875C29.2068 2.59074 30.6981 2.61314 30.6981 2.64289C30.6981 2.67999 26.1646 7.23594 20.6244 12.7761L10.5511 22.8498L9.75342 22.4473C8.65722 21.8876 8.01602 21.7385 6.80047 21.7385C6.04727 21.7385 5.69692 21.7683 5.23457 21.895C4.01167 22.2229 2.99772 22.827 2.08807 23.7888C1.42447 24.4899 0.939723 25.3026 0.634173 26.2269C0.343323 27.1366 0.261423 28.5236 0.455323 29.4557C0.977173 32.0058 2.99807 34.0263 5.54817 34.5482C5.97307 34.6378 6.38327 34.6602 7.09902 34.6378C7.93412 34.608 8.16512 34.5706 8.77657 34.362C9.88012 33.9892 10.4916 33.6088 11.3491 32.7513C12.4677 31.6327 13.0042 30.589 13.2282 29.0752C13.4295 27.7032 13.1985 26.4579 12.5048 25.1384L12.1544 24.4524L22.2803 14.3266L32.4135 4.1934V7.58595C32.4135 10.8367 32.4208 10.9862 32.5626 11.2245C33.0025 11.9403 34.0613 11.9403 34.5012 11.2245C34.643 10.9858 34.6503 10.8367 34.6503 6.05749C34.6503 1.27789 34.643 1.1288 34.5012 0.890446C34.4193 0.756042 34.2478 0.584896 34.1134 0.502644C33.8747 0.360893 33.7256 0.353542 28.9387 0.353542H24.0096L23.7636 0.518044ZM8.15777 24.2141C9.76847 24.7734 10.8717 26.2199 10.991 27.9423C11.1251 29.896 9.85772 31.6554 7.91137 32.2371C7.32232 32.416 6.27862 32.416 5.68187 32.2371C4.27277 31.8196 3.18392 30.7311 2.76637 29.3216C2.58752 28.7252 2.58752 27.6812 2.76637 27.0921C3.21367 25.5784 4.34732 24.4825 5.83832 24.1021C6.44277 23.953 7.54632 24.0055 8.15777 24.2141Z" fill="#3A5358"/>
<path d="M4.69032 4.30571C4.22797 4.58886 4.00432 5.28991 4.23532 5.74491C4.28012 5.83451 5.02562 6.62481 5.89047 7.48966L7.46372 9.07796L5.85302 10.696C4.49607 12.068 4.22762 12.3736 4.16042 12.6347C3.89932 13.5891 4.75682 14.3497 5.69657 13.9916C5.80857 13.9545 6.62862 13.194 7.50852 12.3141L9.11152 10.7184L10.6774 12.2917C11.5423 13.1565 12.3326 13.9097 12.4446 13.9692C12.9293 14.2226 13.6822 14.014 13.9359 13.5443C14.1001 13.2461 14.1074 12.7243 13.9657 12.4481C13.9058 12.3361 13.153 11.5458 12.2881 10.681L10.7149 9.11506L12.2731 7.54916C13.1306 6.69166 13.8838 5.87896 13.9506 5.74456C14.1967 5.25246 14.0252 4.64101 13.5555 4.32776C13.2422 4.11916 12.6308 4.09676 12.355 4.27561C12.2507 4.34281 11.4751 5.08831 10.6176 5.93846L9.07407 7.47461L7.48647 5.89401C6.62162 5.02916 5.83132 4.28331 5.74172 4.23886C5.48062 4.10446 4.96647 4.14156 4.69032 4.30571Z" fill="#3A5358"/>
<path d="M21.5417 21.0603C21.0867 21.2839 20.8631 21.776 20.9677 22.328C21.0125 22.574 21.2509 22.8498 22.653 24.2516L24.2861 25.892L22.7125 27.4576C21.8476 28.3224 21.0944 29.1127 21.0346 29.2247C20.8855 29.5156 20.9005 30.0973 21.0794 30.3804C21.2358 30.6415 21.4374 30.7682 21.8102 30.8575C22.3471 30.9768 22.5112 30.8648 24.2112 29.1649C25.0911 28.285 25.8516 27.5692 25.8887 27.5692C25.9335 27.5692 26.6493 28.2626 27.4917 29.1054C28.3342 29.9478 29.1171 30.686 29.2365 30.7532C29.4752 30.8799 29.9746 30.8949 30.2504 30.7906C30.7128 30.6118 30.9812 30.0003 30.8395 29.4708C30.7723 29.2247 30.4741 28.8817 29.1469 27.5545L27.5439 25.9365L28.1476 25.2802C28.4756 24.9222 29.1693 24.2064 29.6911 23.6919C30.213 23.1774 30.6827 22.6703 30.7425 22.5586C30.9067 22.2531 30.8769 21.7459 30.6753 21.4477C30.3845 21.0078 29.6911 20.7988 29.2585 21.0151C29.1689 21.0599 28.3713 21.8131 27.4914 22.6927L25.8884 24.2883L24.3225 22.7151C23.4576 21.8502 22.6673 21.097 22.5553 21.0375C22.2872 20.8961 21.8473 20.9035 21.5417 21.0603Z" fill="#3A5358"/>
</svg>
