<svg width="47" height="47" viewBox="0 0 47 47" fill="none" xmlns="http://www.w3.org/2000/svg">
<path d="M31.9251 0.595157C30.9734 1.24639 31.0134 2.47833 32.0154 3.14932L32.3558 3.37972H36.7936C39.2377 3.37972 41.2413 3.40981 41.2413 3.44978C41.2413 3.49962 35.1507 9.62029 27.7078 17.0632L14.1748 30.5966L13.1032 30.0559C11.6305 29.304 10.7691 29.1037 9.13611 29.1037C8.12422 29.1037 7.65355 29.1437 7.0324 29.3139C5.38951 29.7545 4.02732 30.5661 2.80525 31.8582C1.91374 32.8 1.26251 33.8918 0.852018 35.1337C0.461277 36.3557 0.351249 38.2192 0.611743 39.4713C1.31282 42.8972 4.02779 45.6117 7.45371 46.3128C8.02454 46.4332 8.57562 46.4633 9.53719 46.4332C10.6591 46.3932 10.9694 46.3429 11.7909 46.0627C13.2734 45.5619 14.0949 45.0508 15.2469 43.8988C16.7497 42.396 17.4705 40.9938 17.7714 38.9602C18.0418 37.117 17.7315 35.444 16.7995 33.6713L16.3288 32.7497L29.9324 19.1462L43.5458 5.53279V10.0905C43.5458 14.4578 43.5556 14.6585 43.7461 14.9788C44.3371 15.9403 45.7595 15.9403 46.3505 14.9788C46.541 14.6581 46.5509 14.4578 46.5509 8.03711C46.5509 1.61598 46.541 1.41567 46.3505 1.09546C46.2405 0.914899 46.0101 0.684969 45.8296 0.574471C45.5089 0.384037 45.3086 0.37416 38.8776 0.37416H32.2557L31.9251 0.595157ZM10.9596 32.4295C13.1235 33.1809 14.6055 35.1243 14.7659 37.4381C14.946 40.0628 13.2434 42.4266 10.6285 43.208C9.83718 43.4483 8.43503 43.4483 7.63333 43.208C5.74028 42.6471 4.27747 41.1847 3.71651 39.2912C3.47624 38.49 3.47624 37.0874 3.71651 36.296C4.31744 34.2624 5.84043 32.7902 7.84351 32.279C8.65555 32.0787 10.1381 32.1493 10.9596 32.4295Z" fill="#0E5E6F"/>
<path d="M6.30135 5.68375C5.68021 6.06415 5.37975 7.00597 5.69008 7.61724C5.75027 7.73761 6.75181 8.79934 7.91368 9.96122L10.0273 12.095L7.86337 14.2688C6.04038 16.112 5.67974 16.5225 5.58946 16.8732C5.23868 18.1555 6.39069 19.1772 7.65319 18.6962C7.80366 18.6464 8.90535 17.6246 10.0874 16.4425L12.241 14.2989L14.3447 16.4124C15.5066 17.5743 16.5683 18.5862 16.7188 18.6661C17.37 19.0066 18.3814 18.7263 18.7223 18.0953C18.9428 17.6947 18.9527 16.9936 18.7623 16.6226C18.6819 16.4722 17.6705 15.4104 16.5086 14.2486L14.395 12.1449L16.4884 10.0412C17.6404 8.88915 18.6522 7.79733 18.7421 7.61677C19.0726 6.95566 18.8422 6.13421 18.2112 5.71338C17.7904 5.43313 16.9689 5.40304 16.5984 5.64332C16.4583 5.7336 15.4163 6.73513 14.2643 7.87726L12.1907 9.941L10.0578 7.81755C8.89594 6.65567 7.83422 5.65366 7.71385 5.59395C7.36307 5.41339 6.67234 5.46323 6.30135 5.68375Z" fill="#0E5E6F"/>
<path d="M28.9401 28.1925C28.3289 28.493 28.0284 29.1541 28.169 29.8956C28.2292 30.2262 28.5494 30.5967 30.433 32.4798L32.627 34.6837L30.513 36.7869C29.3511 37.9488 28.3392 39.0105 28.2588 39.161C28.0585 39.5517 28.0787 40.3332 28.319 40.7136C28.5292 41.0644 28.8 41.2346 29.3008 41.3545C30.0221 41.5149 30.2426 41.3644 32.5264 39.0806C33.7085 37.8985 34.7303 36.9369 34.7801 36.9369C34.8403 36.9369 35.8019 37.8684 36.9336 39.0007C38.0654 40.1324 39.1173 41.1241 39.2776 41.2144C39.5983 41.3846 40.2693 41.4048 40.6398 41.2647C41.2609 41.0244 41.6216 40.203 41.4312 39.4916C41.3409 39.161 40.9403 38.7002 39.1572 36.9172L37.0037 34.7434L37.8148 33.8618C38.2554 33.3808 39.1873 32.4192 39.8884 31.728C40.5895 31.0368 41.2205 30.3555 41.3009 30.2055C41.5214 29.795 41.4815 29.1136 41.2106 28.713C40.8199 28.122 39.8884 27.8413 39.3072 28.1319C39.1869 28.192 38.1153 29.2039 36.9332 30.3856L34.7796 32.5292L32.6759 30.4156C31.514 29.2538 30.4523 28.2419 30.3019 28.1619C29.9417 27.972 29.3506 27.9819 28.9401 28.1925Z" fill="#0E5E6F"/>
</svg>
