<svg width="29" height="25" viewBox="0 0 29 25" fill="none" xmlns="http://www.w3.org/2000/svg">
<path d="M22.6314 21.2099C22.4197 21.2099 22.2109 21.1824 22.0021 21.1249L15.335 19.3349C15.335 19.3349 14.6303 19.0549 14.9 18.3149C15.1494 17.6324 15.9121 17.7374 15.9121 17.7374L22.5908 19.5299C22.614 19.5374 22.643 19.5399 22.6865 19.5199L22.6894 19.5174C22.7677 19.4799 22.8315 19.3949 22.8663 19.2899L26.6218 2.77239L2.68809 13.5224L9.39579 15.3849C9.39579 15.3849 10.3209 15.7449 10.0628 16.4999C9.82789 17.1824 8.79259 16.9774 8.79259 16.9774L1.61219 14.9824C0.469589 14.6774 0.315889 13.9149 0.295589 13.6899C0.240489 13.0874 0.637789 12.5449 1.36279 12.2349L26.4275 0.974889C26.9002 0.737389 27.4338 0.717389 27.8978 0.924889C28.1501 1.03739 28.9476 1.49239 28.6373 2.60989L24.7658 19.6549L24.76 19.6749C24.6005 20.2399 24.1916 20.7149 23.6406 20.9799C23.3245 21.1324 22.9794 21.2099 22.6314 21.2099Z" fill="#263538"/>
<path d="M12.7335 23.4724C12.7335 23.4724 12.7335 24.2199 11.7417 24.2199C10.8369 24.2199 10.7905 23.4724 10.7905 23.4724V18.8124C10.7905 18.3999 10.8601 17.6349 11.327 17.1699L24.9019 3.53493C25.7255 2.65743 26.32 2.03493 26.668 1.68243C26.7898 1.55993 26.8768 1.47493 26.9377 1.41993C27.3582 1.04493 27.8135 1.12493 27.9904 1.17743L27.3582 2.75993C27.7555 2.87743 28.1441 2.74743 28.3355 2.57993C28.3094 2.60243 28.0252 2.85993 26.4012 4.59493L26.3838 4.61493L12.8263 18.2374C12.7973 18.2999 12.7335 18.4924 12.7335 18.8149V23.4724Z" fill="#263538"/>
</svg>
