<svg width="46" height="52" viewBox="0 0 46 52" fill="none" xmlns="http://www.w3.org/2000/svg">
<path d="M40.8359 5.61602H38.2879V0.52002H33.1919V5.61602H25.5687V0.52002H20.4259V5.61602H12.8079V0.52002H7.71187V5.61602H5.16387C2.35067 5.61602 0.0938711 7.89882 0.0938711 10.712L0.0678711 46.384C0.0678711 49.1972 2.35067 51.48 5.16387 51.48H40.8359C43.6491 51.48 45.9319 49.1972 45.9319 46.384V10.712C45.9319 7.89882 43.6491 5.61602 40.8359 5.61602ZM40.8359 46.6232H5.16387V18.8812V18.5952V14.2844H5.18467V10.0152H40.8151V14.2844V14.612V18.5952H40.8359V46.6232Z" fill="#0E5E6F"/>
<path d="M10.3535 23.9097H15.4495V41.7457H10.3535V23.9097Z" fill="#0E5E6F"/>
<path d="M20.5454 16.2656H25.6414V41.7456H20.5454V16.2656Z" fill="#0E5E6F"/>
<path d="M30.7373 31.5537H35.8333V41.7457H30.7373V31.5537Z" fill="#0E5E6F"/>
</svg>
