<svg width="48" height="42" viewBox="0 0 48 42" fill="none" xmlns="http://www.w3.org/2000/svg">
<path d="M22.1895 0.487827C20.3031 0.699509 18.5276 1.23326 16.7607 2.10735C13.6781 3.62558 11.3597 6.02703 10.1545 8.95263C9.80502 9.78975 9.49206 10.9125 9.39078 11.6761L9.33558 12.1456L7.93686 12.2008C6.40038 12.256 5.86662 12.3664 4.89126 12.8541C2.73846 13.9211 1.28454 16.24 0.686455 19.5337C0.429175 20.9416 0.410455 23.8125 0.640855 25.1925C1.31238 29.103 3.07014 31.5688 5.8119 32.4798C6.49254 32.7006 6.66774 32.7189 8.2503 32.7285C9.84198 32.7376 9.98022 32.7193 10.4127 32.5259C11.0108 32.2499 11.6823 31.5875 11.9492 30.9985L12.1609 30.5291L12.2065 21.1902C12.2525 11.9339 12.2617 11.8422 12.4551 11.1429C13.5039 7.45311 16.4113 4.77567 20.5426 3.70863C25.3181 2.47599 30.6087 3.95727 33.4791 7.33407C34.4357 8.44719 35.0799 9.66207 35.4941 11.1155L35.7058 11.8513L35.761 21.1902L35.8071 30.5291L36.0188 30.9889C36.433 31.8813 37.3714 32.5989 38.3098 32.7462L38.7053 32.8014V35.7366V38.6718H31.3537H24.002L23.9468 38.2763C23.8642 37.7152 23.5052 37.0067 23.1097 36.6016C21.9869 35.4885 20.0919 35.4885 18.9692 36.6016C17.8561 37.7243 17.8561 39.6193 18.9692 40.7421C19.1626 40.935 19.549 41.1928 19.8341 41.331L20.3492 41.5701H29.8263H39.3034L39.7359 41.3675C40.2418 41.1285 40.8586 40.5947 41.1529 40.1344C41.6127 39.4077 41.6497 39.0486 41.6497 35.727V32.6353L42.2751 32.4328C45.3577 31.4392 47.2805 28.0345 47.5013 23.1765C47.713 18.6217 46.1213 14.6195 43.4804 13.0643C42.4498 12.4571 41.6218 12.2454 40.0301 12.1993L38.6314 12.1441L38.521 11.4448C38.2081 9.41151 37.0306 7.01918 35.5124 5.3171C33.433 2.98911 30.1849 1.24095 26.8541 0.661587C25.6215 0.451347 23.3117 0.359188 22.1895 0.487827ZM9.26214 22.4785V29.8393H8.25942C7.10022 29.8393 6.40086 29.6646 5.73846 29.2048C4.71702 28.5054 3.98118 27.1163 3.58518 25.1747C3.35526 24.0246 3.35526 20.9329 3.58518 19.7737C4.07286 17.3814 5.16774 15.7715 6.65814 15.3021C7.04454 15.1734 7.48614 15.1273 8.23158 15.1273L9.26214 15.1182V22.4785ZM41.2724 15.2925C42.7628 15.7523 43.8394 17.2705 44.3453 19.6259C44.6122 20.8312 44.6305 23.9502 44.3823 25.1742C43.8855 27.6217 42.7997 29.1861 41.2724 29.6641C40.8677 29.7928 40.4353 29.8389 39.7081 29.8389H38.7053V22.4781V15.1173H39.7081C40.4348 15.1177 40.8673 15.1638 41.2724 15.2925Z" fill="#323232"/>
</svg>
