<svg width="75" height="76" viewBox="0 0 75 76" fill="none" xmlns="http://www.w3.org/2000/svg">
<g clip-path="url(#clip0_220_168)">
<path d="M11.2196 39.536C12.5944 39.536 13.7125 40.654 13.7125 42.029C13.7125 43.4038 12.5945 44.522 11.2196 44.522C9.84473 44.522 8.72656 43.4039 8.72656 42.029C8.72656 40.6542 9.84473 39.536 11.2196 39.536Z" fill="#0E5E6F"/>
<path d="M72.4129 43.3689C73.8587 44.5107 74.7886 46.2795 74.7886 48.2614C74.7886 50.9337 73.0971 53.2199 70.7275 54.1036C71.7022 55.2043 72.2956 56.6502 72.2956 58.2332C72.2956 61.4878 69.7877 64.1676 66.6042 64.4419C67.0505 65.186 67.3098 66.0485 67.3098 66.9586C67.3098 69.5674 64.9339 71.9444 62.3239 71.9444H43.6269C37.781 71.9444 35.4425 70.6543 33.179 69.4066C31.4514 68.4543 29.6665 67.4695 25.9993 66.946C25.3175 66.8487 24.8451 66.2168 24.9424 65.535C25.0397 64.8544 25.6653 64.3832 26.3534 64.478C30.4693 65.0664 32.5484 66.2119 34.3819 67.2227C36.5508 68.418 38.423 69.4514 43.627 69.4514H62.3241C63.583 69.4514 64.8171 68.2162 64.8171 66.9584C64.8171 65.6534 63.6292 64.4654 62.3241 64.4654C61.6348 64.4654 61.0776 63.907 61.0776 63.219C61.0776 62.531 61.6348 61.9726 62.3241 61.9726H66.0635C68.1251 61.9726 69.8029 60.2948 69.8029 58.2332C69.8029 56.1715 68.1251 54.4938 66.0635 54.4938C65.3742 54.4938 64.8171 53.9353 64.8171 53.2473C64.8171 52.5594 65.3742 52.0009 66.0635 52.0009H68.5565C70.6181 52.0009 72.2959 50.3232 72.2959 48.2615C72.2959 46.1999 70.6181 44.5221 68.5565 44.5221C67.8946 44.5221 67.3474 44.0049 67.3125 43.3442C67.2765 42.6823 67.7626 42.1089 68.4206 42.0367C72.2959 41.6116 72.2959 39.6385 72.2959 38.9916C72.2959 36.9797 70.628 34.5504 68.5565 34.5504H51.1057C48.9492 34.5504 44.8733 33.2479 44.8733 28.318C44.8733 27.6301 45.4304 27.0716 46.1197 27.0716C46.809 27.0716 47.3661 27.6301 47.3661 28.318C47.3661 31.8369 50.4872 32.05 51.1055 32.0575H68.5562C72.1223 32.0575 74.7886 35.7171 74.7886 38.9916C74.7886 40.2465 74.4084 42.1337 72.4129 43.3689Z" fill="#0E5E6F"/>
<path d="M51.1056 29.5643C50.4163 29.5643 49.8591 29.0059 49.8591 28.3179V13.3603C49.8591 9.05002 47.9371 7.12787 43.6267 7.12787C42.8464 7.12787 42.3803 7.59413 42.3803 8.37429C42.3803 18.4432 42.3803 25.0944 37.0292 30.4456C34.5649 32.9098 29.8794 37.0432 26.1761 37.0432C25.4868 37.0432 24.9297 36.4847 24.9297 35.7967C24.9297 35.1087 25.4868 34.5503 26.1761 34.5503C28.1643 34.5503 31.6481 32.3017 35.2667 28.6832C39.8873 24.0626 39.8873 18.1581 39.8873 8.37444C39.8873 6.20806 41.4604 4.63503 43.6267 4.63503C49.3343 4.63503 52.352 7.65154 52.352 13.3603V28.3179C52.352 29.0059 51.7949 29.5643 51.1056 29.5643Z" fill="#0E5E6F"/>
<path d="M21.19 71.9438H1.24642C0.557114 71.9438 0 71.3854 0 70.6974V33.3033C0 32.6153 0.557114 32.0569 1.24642 32.0569H21.1899C21.8792 32.0569 22.4363 32.6153 22.4363 33.3033V70.6974C22.4365 71.3854 21.8793 71.9438 21.19 71.9438ZM19.9435 34.5497H2.49299V69.4509H19.9436L19.9435 34.5497Z" fill="#0E5E6F"/>
</g>
<defs>
<clipPath id="clip0_220_168">
<rect width="74.7882" height="74.7882" fill="white" transform="matrix(1 0 0 -1 0 75.6837)"/>
</clipPath>
</defs>
</svg>
