<svg width="60" height="61" viewBox="0 0 60 61" fill="none" xmlns="http://www.w3.org/2000/svg">
<path d="M53.375 24.2C55.5194 25.4348 57.2581 27.2669 58.3791 29.4728C59.5001 31.6788 59.955 34.1633 59.6883 36.6234C59.4215 39.0834 58.4447 41.4127 56.877 43.3271C55.3092 45.2416 53.2182 46.6584 50.859 47.405C50.0252 51.1888 47.9242 54.5744 44.9038 57.0013C41.8833 59.4281 38.1247 60.7507 34.25 60.75H27.875C27.3115 60.75 26.771 60.5261 26.3724 60.1276C25.9739 59.729 25.75 59.1885 25.75 58.625C25.75 58.0614 25.9739 57.5209 26.3724 57.1223C26.771 56.7238 27.3115 56.5 27.875 56.5H34.25C36.8877 56.5007 39.4607 55.6837 41.6147 54.1614C43.7687 52.6392 45.3977 50.4865 46.2775 48H44.875C44.3115 48 43.771 47.7761 43.3724 47.3776C42.9739 46.979 42.75 46.4385 42.75 45.875V24.625C42.75 24.0614 42.9739 23.5209 43.3724 23.1223C43.771 22.7238 44.3115 22.5 44.875 22.5H47C47.6885 22.5 48.3643 22.5552 49.0273 22.6615C48.5489 17.9477 46.3378 13.5794 42.8225 10.4028C39.3072 7.22627 34.738 5.46761 30 5.46761C25.2621 5.46761 20.6929 7.22627 17.1776 10.4028C13.6623 13.5794 11.4512 17.9477 10.9728 22.6615C11.6432 22.5541 12.3211 22.5001 13 22.5H15.125C15.6886 22.5 16.2291 22.7238 16.6276 23.1223C17.0262 23.5209 17.25 24.0614 17.25 24.625V45.875C17.25 46.4385 17.0262 46.979 16.6276 47.3776C16.2291 47.7761 15.6886 48 15.125 48H13C10.1907 48.0031 7.459 47.0783 5.22933 45.3692C2.99966 43.6601 1.39688 41.2625 0.670007 38.5488C-0.0568682 35.8352 0.132865 32.9574 1.20973 30.3627C2.28659 27.7679 4.19029 25.6015 6.62504 24.2C6.62504 18.0005 9.08776 12.055 13.4714 7.67133C17.8551 3.28767 23.8006 0.824951 30 0.824951C36.1995 0.824951 42.145 3.28767 46.5287 7.67133C50.9123 12.055 53.375 18.0005 53.375 24.2ZM13 26.75C10.7457 26.75 8.58369 27.6455 6.98963 29.2395C5.39557 30.8336 4.50004 32.9956 4.50004 35.25C4.50004 37.5043 5.39557 39.6663 6.98963 41.2604C8.58369 42.8544 10.7457 43.75 13 43.75V26.75ZM55.5 35.25C55.5 32.9956 54.6045 30.8336 53.0104 29.2395C51.4164 27.6455 49.2544 26.75 47 26.75V43.75C49.2544 43.75 51.4164 42.8544 53.0104 41.2604C54.6045 39.6663 55.5 37.5043 55.5 35.25Z" fill="#323232"/>
</svg>
