<svg width="53" height="54" viewBox="0 0 53 54" fill="none" xmlns="http://www.w3.org/2000/svg">
<path d="M52.5535 27C52.5535 12.3822 40.8047 0.540039 26.3022 0.540039C11.805 0.540039 0.0507812 12.3822 0.0507812 27C0.0507812 41.6178 11.805 53.46 26.3022 53.46C32.2542 53.46 37.7027 51.4188 42.1119 48.0546C42.2941 47.844 42.4119 47.5848 42.4119 47.2878C42.4119 46.6398 41.8923 46.116 41.2494 46.116C40.9172 46.116 40.6172 46.2456 40.4029 46.4724H40.3922C36.4491 49.3992 31.6006 51.1488 26.3289 51.1488C13.2033 51.1488 2.55806 40.419 2.55806 27.189C2.55806 13.9536 13.2033 3.22384 26.3289 3.22384C39.46 3.22384 50.0998 13.9536 50.0998 27.189C50.0998 31.2336 49.1623 35.0352 47.405 38.3724V38.394C47.3729 38.5074 47.3354 38.61 47.3354 38.7288C47.3354 39.3768 47.8604 39.906 48.498 39.906C49.0016 39.906 49.4194 39.582 49.5855 39.1338V39.1446C51.4499 35.4996 52.5535 31.3794 52.5535 27Z" fill="#323232"/>
<path d="M34.7295 27.9937C33.0312 27.9937 31.5151 27.2323 30.5025 26.0227C29.4899 27.2485 27.9845 27.9937 26.3076 27.9937C24.62 27.9937 23.1093 27.2269 22.0913 26.0227C21.0788 27.2269 19.5626 27.9937 17.8751 27.9937C14.8267 27.9937 12.3462 25.4935 12.3462 22.4209V15.5575C12.3462 14.8231 12.9355 14.2345 13.6588 14.2345H38.9083C39.6315 14.2345 40.2155 14.8231 40.2209 15.5521L40.2584 22.4155C40.2584 25.4935 37.7779 27.9937 34.7295 27.9937ZM30.5132 21.0925C31.2418 21.0925 31.8365 21.6865 31.8365 22.4155C31.8954 24.1057 33.1651 25.3423 34.7295 25.3423C36.3314 25.3423 37.6279 24.0301 37.6279 22.4155L37.5957 16.8805H14.9767V22.4155C14.9767 24.0301 16.2785 25.3423 17.8751 25.3423C19.4769 25.3423 20.7788 24.0301 20.7788 22.4155C20.7788 21.6811 21.3681 21.0925 22.0913 21.0925C22.82 21.0925 23.4039 21.6865 23.4039 22.4155C23.4039 24.0301 24.7058 25.3423 26.3076 25.3423C27.872 25.3423 29.1471 24.1111 29.206 22.5343C29.2328 21.8215 29.806 21.0925 30.5132 21.0925Z" fill="#323232"/>
<path d="M38.5492 39.7656H14.0176V29.8512C14.0176 29.1168 14.6069 28.5282 15.3301 28.5282C16.0588 28.5282 16.6427 29.1222 16.6427 29.8512V37.1142H35.9241L35.9509 29.8458C35.9509 29.1168 36.5402 28.5282 37.2634 28.5282C37.2634 28.5282 37.2634 28.5282 37.2688 28.5282C37.992 28.5282 38.5814 29.1276 38.576 29.8566L38.5492 39.7656Z" fill="#323232"/>
</svg>
