<svg width="40" height="41" viewBox="0 0 40 41" fill="none" xmlns="http://www.w3.org/2000/svg">
<path d="M19.2727 0.640739C18.7827 0.803665 18.5223 0.974289 18.1703 1.32324C17.8183 1.688 17.6495 1.96725 17.5119 2.44022L17.4199 2.75067L8.9063 2.77377L0.399902 2.78957V4.03098V5.27237H1.5483H2.6967V17.5287V29.7854H1.5483H0.399902V31.0264V32.2678H6.2951C10.3375 32.2678 12.1903 32.2909 12.1903 32.3452C12.1903 32.4149 10.8199 36.2473 9.5947 39.6218L9.3575 40.2581L10.5979 40.2427L11.8307 40.2196L12.4203 38.5903L13.0099 36.961H19.9999H26.9899L27.5795 38.5903L28.1691 40.2196L29.4019 40.2427L30.6423 40.2581L30.4051 39.6218C29.4175 36.9221 27.8095 32.4072 27.8095 32.3452C27.8095 32.2909 29.7695 32.2678 33.7047 32.2678H39.5999V31.0264V29.7854H38.4515H37.3031V17.5287V5.27197H38.4515H39.5999V4.03057V2.78917L31.0939 2.77377L22.5803 2.75067L22.4883 2.44022C22.2739 1.71881 21.7915 1.14451 21.0947 0.803257C20.5971 0.555626 19.7547 0.477814 19.2727 0.640739ZM34.8531 17.5287V29.7854H19.9999H5.1467V17.5287V5.27197H19.9999H34.8531V17.5287ZM25.6807 33.3151C25.8799 33.8659 26.0483 34.3469 26.0483 34.3777C26.0483 34.4166 23.3303 34.4397 19.9999 34.4397C16.6771 34.4397 13.9515 34.4166 13.9515 34.3777C13.9515 34.3311 14.3803 33.1363 14.6331 32.4773L14.7175 32.2678L20.0079 32.2832L25.3059 32.3063L25.6807 33.3151Z" fill="#323232"/>
<path d="M11.8306 9.58508C11.4018 9.74031 10.889 10.2137 10.6594 10.6713C10.4986 10.9894 10.4678 11.16 10.4678 11.7108C10.4678 12.5019 10.6594 12.9522 11.1798 13.4252C11.5934 13.7899 12.0758 13.9606 12.7186 13.9606C13.3234 13.9606 13.7294 13.7899 14.2038 13.3478C15.3598 12.2616 15.0154 10.2915 13.5454 9.60859C13.155 9.42986 12.2978 9.42215 11.8306 9.58508Z" fill="#323232"/>
<path d="M18.0859 11.7108V12.9521H23.8279H29.5699V11.7108V10.4694H23.8279H18.0859V11.7108Z" fill="#323232"/>
<path d="M11.8308 15.4341C11.3716 15.6202 10.8892 16.0623 10.644 16.5357C10.4144 16.9779 10.3912 18.1184 10.6056 18.5216C11.2872 19.7938 12.7416 20.2052 13.8976 19.4526C14.6248 18.9796 15.0308 18.0251 14.8776 17.172C14.6784 16.0781 13.8592 15.3644 12.7644 15.3024C12.3592 15.287 12.1372 15.3178 11.8308 15.4341Z" fill="#323232"/>
<path d="M18.1395 16.3421C18.1087 16.3652 18.0859 16.9241 18.0859 17.5835V18.7701H23.8279H29.5699V17.5287V16.2873H23.8815C20.7503 16.2878 18.1623 16.3109 18.1395 16.3421Z" fill="#323232"/>
<path d="M11.9381 21.229C11.4941 21.3842 10.8661 21.9273 10.6365 22.369C10.3993 22.8266 10.3913 23.944 10.6365 24.3939C11.1573 25.3791 12.2521 25.8679 13.2701 25.5651C14.0969 25.3248 14.6177 24.7663 14.8397 23.8974C14.9545 23.4398 14.9545 23.3543 14.8397 22.9044C14.5105 21.5394 13.2245 20.7945 11.9381 21.229Z" fill="#323232"/>
<path d="M18.1009 23.4013L18.1237 24.6269L23.8505 24.65L29.5697 24.6654V23.424V22.1826H23.8277H18.0781L18.1009 23.4013Z" fill="#323232"/>
</svg>
